# 3ds Max Wavefront OBJ Exporter v0.97b - (c)2007 guruware
# File Created: 29.04.2018 10:32:00

mtllib Bean_step05.mtl

#
# object Bean_step05
#

v  -0.3173 0.0488 0.3733
v  -0.3166 0.0420 0.1468
v  -0.2302 0.0263 0.2404
v  -0.2444 0.0351 0.5496
v  -0.2422 0.0419 -0.2699
v  -0.1309 0.0262 -0.3224
v  -0.1925 0.0174 -0.0502
v  -0.3012 0.0352 -0.0694
v  -0.0460 0.0351 -0.5760
v  -0.0171 0.0488 -0.4334
v  -0.0561 0.0419 -0.2371
v  -0.1288 0.0420 0.1799
v  -0.0836 0.0352 -0.0310
v  -0.2301 0.1501 0.2404
v  -0.3166 0.1344 0.1467
v  -0.3173 0.1275 0.3734
v  -0.2444 0.1413 0.5496
v  -0.1627 0.1275 0.4006
v  -0.1288 0.1344 0.1798
v  -0.1309 0.1502 -0.3223
v  -0.0561 0.1343 -0.2371
v  -0.0171 0.1275 -0.4334
v  -0.0460 0.1412 -0.5759
v  -0.1689 0.1275 -0.4601
v  -0.2422 0.1343 -0.2699
v  -0.2407 0.0882 0.7661
v  -0.3446 0.0881 0.5320
v  -0.1441 0.0881 0.5674
v  -0.1627 0.0488 0.4006
v  -0.1055 0.0882 0.2625
v  -0.0474 0.0881 -0.0246
v  -0.0077 0.0881 -0.3006
v  0.0518 0.0882 -0.5586
v  -0.0836 0.1413 -0.0310
v  0.0240 0.0882 -0.7347
v  -0.1436 0.0882 -0.5931
v  -0.1689 0.0488 -0.4602
v  -0.2543 0.0881 -0.3441
v  -0.3550 0.0882 0.2185
v  -0.3375 0.0881 -0.0757
v  -0.3012 0.1413 -0.0694
v  -0.1925 0.1589 -0.0502
v  0.4797 0.0412 0.4642
v  0.3661 0.0331 0.2189
v  0.5069 0.0144 0.2766
v  0.6473 0.0249 0.6182
v  0.2364 0.0330 -0.2694
v  0.3303 0.0143 -0.3823
v  0.4010 0.0037 -0.0568
v  0.2738 0.0249 -0.0227
v  0.2943 0.0248 -0.6994
v  0.3974 0.0412 -0.5598
v  0.4543 0.0330 -0.3278
v  0.5859 0.0331 0.1600
v  0.5284 0.0249 -0.0910
v  0.5068 0.1621 0.2765
v  0.3661 0.1434 0.2188
v  0.4797 0.1351 0.4643
v  0.6474 0.1516 0.6182
v  0.6607 0.1351 0.4158
v  0.5859 0.1434 0.1599
v  0.3303 0.1622 -0.3822
v  0.4543 0.1433 -0.3278
v  0.3974 0.1351 -0.5597
v  0.2943 0.1515 -0.6994
v  0.2197 0.1351 -0.5121
v  0.2364 0.1433 -0.2694
v  0.7606 0.0882 0.8504
v  0.5301 0.0881 0.6497
v  0.7648 0.0881 0.5868
v  0.6606 0.0412 0.4157
v  0.6528 0.0882 0.2375
v  0.5708 0.0881 -0.1023
v  0.4746 0.0881 -0.4208
v  0.4088 0.0882 -0.7300
v  0.5284 0.1516 -0.0910
v  0.2899 0.0882 -0.9063
v  0.1800 0.0882 -0.6687
v  0.2197 0.0412 -0.5122
v  0.1859 0.0881 -0.3435
v  0.3607 0.0882 0.3158
v  0.2313 0.0881 -0.0113
v  0.2738 0.1516 -0.0227
v  0.4010 0.1726 -0.0569
# 84 vertices

vn -0.5245 -0.8507 0.0350
vn -0.5323 -0.8465 -0.0108
vn -0.0113 -0.9992 0.0379
vn -0.0332 -0.9834 0.1784
vn -0.5050 -0.8439 -0.1810
vn 0.0021 -0.9990 -0.0441
vn -0.0035 -1.0000 -0.0015
vn -0.5383 -0.8371 -0.0976
vn 0.0359 -0.9758 -0.2156
vn 0.4868 -0.8693 0.0857
vn 0.5035 -0.8618 0.0619
vn 0.4924 -0.8634 0.1102
vn 0.5283 -0.8441 0.0914
vn -0.0114 0.9992 0.0381
vn -0.5324 0.8464 -0.0109
vn -0.5251 0.8503 0.0352
vn -0.0333 0.9834 0.1786
vn 0.4835 0.8715 0.0821
vn 0.4926 0.8632 0.1102
vn 0.0020 0.9990 -0.0439
vn 0.5042 0.8614 0.0621
vn 0.4870 0.8691 0.0860
vn 0.0359 0.9758 -0.2155
vn -0.4836 0.8422 -0.2383
vn -0.5056 0.8435 -0.1812
vn -0.0064 -0.0001 1.0000
vn -0.9595 -0.0007 0.2816
vn 0.9364 -0.0007 0.3508
vn 0.4828 -0.8719 0.0819
vn 0.9845 0.0000 0.1755
vn 0.9853 -0.0008 0.1708
vn 0.9857 -0.0005 0.1688
vn 0.9994 0.0005 -0.0356
vn 0.5285 0.8441 0.0911
vn 0.3652 -0.0001 -0.9309
vn -0.7646 0.0005 -0.6445
vn -0.4833 -0.8423 -0.2385
vn -0.9301 -0.0005 -0.3674
vn -1.0000 0.0001 0.0059
vn -0.9840 -0.0008 -0.1780
vn -0.5384 0.8370 -0.0979
vn -0.0035 1.0000 -0.0018
vn -0.4606 -0.8507 0.2534
vn -0.4869 -0.8465 0.2152
vn 0.0058 -0.9992 0.0391
vn 0.0453 -0.9834 0.1758
vn -0.5342 -0.8439 0.0494
vn -0.0168 -0.9990 -0.0409
vn -0.0038 -1.0000 0.0001
vn -0.5291 -0.8371 0.1390
vn -0.0586 -0.9758 -0.2106
vn 0.4774 -0.8693 -0.1281
vn 0.4825 -0.8618 -0.1567
vn 0.4928 -0.8634 -0.1082
vn 0.5174 -0.8441 -0.1404
vn 0.0058 0.9992 0.0394
vn -0.4871 0.8464 0.2151
vn -0.4611 0.8503 0.2539
vn 0.0454 0.9834 0.1760
vn 0.4729 0.8715 -0.1299
vn 0.4930 0.8632 -0.1083
vn -0.0167 0.9990 -0.0407
vn 0.4832 0.8614 -0.1568
vn 0.4778 0.8691 -0.1279
vn -0.0585 0.9758 -0.2105
vn -0.5390 0.8422 -0.0116
vn -0.5348 0.8435 0.0495
vn 0.4168 -0.0001 0.9090
vn -0.7506 -0.0007 0.6607
vn 0.9970 -0.0007 -0.0778
vn 0.4722 -0.8719 -0.1298
vn 0.9664 0.0000 -0.2570
vn 0.9652 -0.0008 -0.2616
vn 0.9646 -0.0005 -0.2636
vn 0.8907 0.0005 -0.4546
vn 0.5175 0.8441 -0.1408
vn -0.0624 -0.0001 -0.9981
vn -0.9653 0.0005 -0.2610
vn -0.5388 -0.8423 -0.0119
vn -0.9982 -0.0005 0.0601
vn -0.9038 0.0001 0.4280
vn -0.9671 -0.0008 0.2546
vn -0.5293 0.8370 0.1388
vn -0.0039 1.0000 -0.0002
# 84 vertex normals

vt 0.5928 0.4959 0.0000
vt 0.6479 0.4866 0.0000
vt 0.6290 0.5120 0.0000
vt 0.5533 0.5216 0.0000
vt 0.7520 0.4868 0.0000
vt 0.7693 0.5120 0.0000
vt 0.7009 0.5088 0.0000
vt 0.7009 0.4813 0.0000
vt 0.8345 0.5216 0.0000
vt 0.8013 0.5353 0.0000
vt 0.7520 0.5342 0.0000
vt 0.6479 0.5344 0.0000
vt 0.7009 0.5362 0.0000
vt 0.6290 0.5661 0.0000
vt 0.6479 0.5914 0.0000
vt 0.5928 0.5821 0.0000
vt 0.5533 0.5565 0.0000
vt 0.5929 0.5424 0.0000
vt 0.6479 0.5436 0.0000
vt 0.7693 0.5661 0.0000
vt 0.7520 0.5438 0.0000
vt 0.8013 0.5427 0.0000
vt 0.8345 0.5565 0.0000
vt 0.8013 0.5817 0.0000
vt 0.7520 0.5912 0.0000
vt 0.4571 0.5367 0.0000
vt 0.4809 0.5456 0.0000
vt 0.4682 0.5720 0.0000
vt 0.4158 0.5826 0.0000
vt 0.4917 0.5228 0.0000
vt 0.4540 0.4813 0.0000
vt 0.5477 0.5260 0.0000
vt 0.5027 0.5585 0.0000
vt 0.4930 0.6194 0.0000
vt 0.6299 0.6549 0.0000
vt 0.5533 0.6551 0.0000
vt 0.5934 0.6413 0.0000
vt 0.6494 0.6401 0.0000
vt 0.7015 0.6547 0.0000
vt 0.7015 0.6392 0.0000
vt 0.7518 0.6399 0.0000
vt 0.7697 0.6545 0.0000
vt 0.8357 0.6544 0.0000
vt 0.8020 0.6681 0.0000
vt 0.7519 0.6693 0.0000
vt 0.7016 0.6702 0.0000
vt 0.6494 0.6696 0.0000
vt 0.4869 0.7104 0.0000
vt 0.4566 0.7457 0.0000
vt 0.4532 0.7000 0.0000
vt 0.4748 0.6903 0.0000
vt 0.4599 0.6654 0.0000
vt 0.4158 0.6624 0.0000
vt 0.4936 0.6758 0.0000
vt 0.4778 0.6251 0.0000
vt 0.5323 0.7002 0.0000
vt 0.7696 0.6181 0.0000
vt 0.8368 0.6182 0.0000
vt 0.8036 0.6307 0.0000
vt 0.7536 0.6325 0.0000
vt 0.6486 0.6324 0.0000
vt 0.6309 0.6178 0.0000
vt 0.7020 0.6179 0.0000
vt 0.7020 0.6335 0.0000
vt 0.5533 0.6176 0.0000
vt 0.5929 0.6049 0.0000
vt 0.6487 0.6032 0.0000
vt 0.7021 0.6024 0.0000
vt 0.7537 0.6036 0.0000
vt 0.8013 0.4963 0.0000
vt 0.7009 0.5693 0.0000
vt 0.7009 0.5419 0.0000
vt 0.7009 0.5967 0.0000
vt 0.8019 0.6409 0.0000
vt 0.8037 0.6056 0.0000
vt 0.5929 0.5356 0.0000
vt 0.5935 0.6687 0.0000
vt 0.5929 0.6305 0.0000
# 78 texture coords

g Bean_step05
usemtl wire_227153153
s 1
f 1/1/1 2/2/2 3/3/3 4/4/4 
f 5/5/5 6/6/6 7/7/7 8/8/8 
f 6/6/6 9/9/9 10/10/10 11/11/11 
f 12/12/12 3/3/3 7/7/7 13/13/13 
f 14/14/14 15/15/15 16/16/16 17/17/17 
f 18/18/18 19/19/19 14/14/14 17/17/17 
f 20/20/20 21/21/21 22/22/22 23/23/23 
f 24/24/24 25/25/25 20/20/20 23/23/23 
f 4/26/4 26/27/26 27/28/27 1/29/1 
f 28/30/28 26/27/26 4/26/4 29/31/29 
f 28/30/28 18/32/18 17/33/17 26/27/26 
f 27/28/27 26/27/26 17/33/17 16/34/16 
f 30/35/30 28/36/28 29/37/29 12/38/12 
f 31/39/31 13/40/13 11/41/11 32/42/32 
f 32/42/32 33/43/33 22/44/22 21/45/21 
f 31/39/31 34/46/34 19/47/19 30/35/30 
f 33/48/33 10/49/10 9/50/9 35/51/35 
f 36/52/36 35/51/35 9/50/9 37/53/37 
f 23/54/23 35/51/35 36/52/36 24/55/24 
f 33/48/33 35/51/35 23/54/23 22/56/22 
f 38/57/38 36/58/36 37/59/37 5/60/5 
f 2/61/2 39/62/39 40/63/40 8/64/8 
f 39/62/39 27/65/27 16/66/16 15/67/15 
f 40/63/40 41/68/41 25/69/25 38/57/38 
f 37/70/37 9/9/9 6/6/6 5/5/5 
f 11/11/11 13/13/13 7/7/7 6/6/6 
f 42/71/42 34/72/34 21/21/21 20/20/20 
f 42/71/42 20/20/20 25/25/25 41/73/41 
f 32/42/32 11/41/11 10/74/10 33/43/33 
f 21/45/21 34/46/34 31/39/31 32/42/32 
f 40/63/40 38/57/38 5/60/5 8/64/8 
f 24/75/24 36/58/36 38/57/38 25/69/25 
f 2/2/2 8/8/8 7/7/7 3/3/3 
f 3/3/3 12/12/12 29/76/29 4/4/4 
f 42/71/42 41/73/41 15/15/15 14/14/14 
f 19/19/19 34/72/34 42/71/42 14/14/14 
f 12/38/12 13/40/13 31/39/31 30/35/30 
f 30/35/30 19/47/19 18/77/18 28/36/28 
f 39/62/39 2/61/2 1/78/1 27/65/27 
f 15/67/15 41/68/41 40/63/40 39/62/39 
f 43/1/43 44/2/44 45/3/45 46/4/46 
f 47/5/47 48/6/48 49/7/49 50/8/50 
f 48/6/48 51/9/51 52/10/52 53/11/53 
f 54/12/54 45/3/45 49/7/49 55/13/55 
f 56/14/56 57/15/57 58/16/58 59/17/59 
f 60/18/60 61/19/61 56/14/56 59/17/59 
f 62/20/62 63/21/63 64/22/64 65/23/65 
f 66/24/66 67/25/67 62/20/62 65/23/65 
f 46/26/46 68/27/68 69/28/69 43/29/43 
f 70/30/70 68/27/68 46/26/46 71/31/71 
f 70/30/70 60/32/60 59/33/59 68/27/68 
f 69/28/69 68/27/68 59/33/59 58/34/58 
f 72/35/72 70/36/70 71/37/71 54/38/54 
f 73/39/73 55/40/55 53/41/53 74/42/74 
f 74/42/74 75/43/75 64/44/64 63/45/63 
f 73/39/73 76/46/76 61/47/61 72/35/72 
f 75/48/75 52/49/52 51/50/51 77/51/77 
f 78/52/78 77/51/77 51/50/51 79/53/79 
f 65/54/65 77/51/77 78/52/78 66/55/66 
f 75/48/75 77/51/77 65/54/65 64/56/64 
f 80/57/80 78/58/78 79/59/79 47/60/47 
f 44/61/44 81/62/81 82/63/82 50/64/50 
f 81/62/81 69/65/69 58/66/58 57/67/57 
f 82/63/82 83/68/83 67/69/67 80/57/80 
f 79/70/79 51/9/51 48/6/48 47/5/47 
f 53/11/53 55/13/55 49/7/49 48/6/48 
f 84/71/84 76/72/76 63/21/63 62/20/62 
f 84/71/84 62/20/62 67/25/67 83/73/83 
f 74/42/74 53/41/53 52/74/52 75/43/75 
f 63/45/63 76/46/76 73/39/73 74/42/74 
f 82/63/82 80/57/80 47/60/47 50/64/50 
f 66/75/66 78/58/78 80/57/80 67/69/67 
f 44/2/44 50/8/50 49/7/49 45/3/45 
f 45/3/45 54/12/54 71/76/71 46/4/46 
f 84/71/84 83/73/83 57/15/57 56/14/56 
f 61/19/61 76/72/76 84/71/84 56/14/56 
f 54/38/54 55/40/55 73/39/73 72/35/72 
f 72/35/72 61/47/61 60/77/60 70/36/70 
f 81/62/81 44/61/44 43/78/43 69/65/69 
f 57/67/57 83/68/83 82/63/82 81/62/81 
# 80 polygons

