# 3ds Max Wavefront OBJ Exporter v0.97b - (c)2007 guruware
# File Created: 25.04.2018 11:28:36

mtllib BEAN FRUITS.mtl

#
# object Object001
#

v  0.2366 0.9980 0.1897
v  0.2160 1.1089 0.1454
v  0.2701 1.0672 0.1516
v  0.2914 0.9147 0.2122
v  0.2164 1.3215 0.0680
v  0.2701 1.3543 0.0471
v  0.2630 1.2127 0.0936
v  0.2040 1.2159 0.1025
v  0.2914 1.4887 0.0032
v  0.3198 1.4233 0.0349
v  0.3174 1.3215 0.0680
v  0.3221 1.2159 0.1025
v  0.3179 1.1089 0.1454
v  0.2914 0.9341 0.2655
v  0.2701 1.0899 0.2138
v  0.2160 1.1258 0.1918
v  0.2366 1.0124 0.2292
v  0.3205 1.0124 0.2292
v  0.3179 1.1258 0.1918
v  0.2914 1.5081 0.0565
v  0.2701 1.3769 0.1093
v  0.3174 1.3384 0.1144
v  0.3198 1.4376 0.0744
v  0.2374 1.4376 0.0744
v  0.2164 1.3384 0.1144
v  0.3134 0.8176 0.2777
v  0.2370 0.9244 0.2388
v  0.3205 0.9980 0.1897
v  0.3458 0.9244 0.2388
v  0.3378 1.0785 0.1827
v  0.3417 1.2256 0.1292
v  0.3370 1.3656 0.0782
v  0.3444 1.4984 0.0299
v  0.3221 1.2353 0.1558
v  0.3134 1.5831 -0.0009
v  0.2384 1.4984 0.0299
v  0.2374 1.4233 0.0349
v  0.2032 1.3656 0.0782
v  0.2024 1.0785 0.1827
v  0.1843 1.2256 0.1292
v  0.2040 1.2353 0.1558
v  0.2630 1.2386 0.1647
v  0.8223 0.7850 0.6271
v  0.7968 0.9217 0.5725
v  0.8635 0.8703 0.5802
v  0.8897 0.6823 0.6548
v  0.7973 1.1837 0.4772
v  0.8635 1.2240 0.4515
v  0.8548 1.0496 0.5088
v  0.7820 1.0535 0.5197
v  0.8897 1.3897 0.3974
v  0.9247 1.3090 0.4364
v  0.9218 1.1837 0.4772
v  0.9275 1.0535 0.5197
v  0.9224 0.9217 0.5725
v  0.8897 0.7062 0.7205
v  0.8635 0.8982 0.6569
v  0.7968 0.9425 0.6297
v  0.8223 0.8027 0.6758
v  0.9256 0.8027 0.6758
v  0.9224 0.9425 0.6297
v  0.8897 1.4136 0.4631
v  0.8635 1.2519 0.5281
v  0.9218 1.2045 0.5344
v  0.9247 1.3267 0.4850
v  0.8232 1.3267 0.4850
v  0.7973 1.2045 0.5344
v  0.9169 0.5628 0.7355
v  0.8227 0.6943 0.6877
v  0.9256 0.7850 0.6271
v  0.9567 0.6943 0.6877
v  0.9470 0.8843 0.6185
v  0.9518 1.0655 0.5526
v  0.9460 1.2380 0.4898
v  0.9550 1.4017 0.4302
v  0.9275 1.0774 0.5854
v  0.9169 1.5059 0.3923
v  0.8244 1.4017 0.4302
v  0.8232 1.3090 0.4364
v  0.7811 1.2380 0.4898
v  0.7801 0.8843 0.6185
v  0.7578 1.0655 0.5526
v  0.7820 1.0774 0.5854
v  0.8548 1.0814 0.5964
v  1.1831 0.8506 0.0789
v  1.1641 0.9527 0.0381
v  1.2139 0.9143 0.0439
v  1.2335 0.7739 0.0996
v  1.1645 1.1484 -0.0331
v  1.2139 1.1785 -0.0523
v  1.2074 1.0482 -0.0095
v  1.1531 1.0512 -0.0013
v  1.2335 1.3023 -0.0927
v  1.2596 1.2421 -0.0636
v  1.2575 1.1484 -0.0331
v  1.2618 1.0512 -0.0013
v  1.2579 0.9527 0.0381
v  1.2335 0.7918 0.1487
v  1.2139 0.9352 0.1011
v  1.1641 0.9682 0.0809
v  1.1831 0.8638 0.1153
v  1.2603 0.8638 0.1153
v  1.2579 0.9682 0.0809
v  1.2335 1.3202 -0.0436
v  1.2139 1.1994 0.0050
v  1.2575 1.1640 0.0096
v  1.2596 1.2553 -0.0272
v  1.1838 1.2553 -0.0272
v  1.1645 1.1640 0.0096
v  1.2538 0.6846 0.1599
v  1.1834 0.7828 0.1242
v  1.2603 0.8506 0.0789
v  1.2836 0.7828 0.1242
v  1.2763 0.9247 0.0725
v  1.2799 1.0601 0.0232
v  1.2755 1.1890 -0.0237
v  1.2823 1.3113 -0.0682
v  1.2618 1.0691 0.0478
v  1.2538 1.3892 -0.0965
v  1.1847 1.3113 -0.0682
v  1.1838 1.2421 -0.0636
v  1.1523 1.1890 -0.0237
v  1.1516 0.9247 0.0725
v  1.1350 1.0601 0.0232
v  1.1531 1.0691 0.0478
v  1.2074 1.0720 0.0559
v  -0.4409 0.5886 0.7177
v  -0.4664 0.7252 0.6632
v  -0.3996 0.6739 0.6709
v  -0.3735 0.4859 0.7455
v  -0.4658 0.9872 0.5678
v  -0.3996 1.0276 0.5421
v  -0.4084 0.8531 0.5994
v  -0.4811 0.8571 0.6104
v  -0.3735 1.1933 0.4880
v  -0.3385 1.1126 0.5270
v  -0.3413 0.9872 0.5678
v  -0.3356 0.8571 0.6104
v  -0.3408 0.7252 0.6632
v  -0.3735 0.5098 0.8112
v  -0.3996 0.7018 0.7475
v  -0.4664 0.7461 0.7204
v  -0.4409 0.6063 0.7664
v  -0.3375 0.6063 0.7664
v  -0.3408 0.7461 0.7204
v  -0.3735 1.2172 0.5537
v  -0.3996 1.0555 0.6188
v  -0.3413 1.0080 0.6250
v  -0.3385 1.1303 0.5757
v  -0.4400 1.1303 0.5757
v  -0.4658 1.0080 0.6250
v  -0.3463 0.3663 0.8262
v  -0.4405 0.4978 0.7783
v  -0.3375 0.5886 0.7177
v  -0.3064 0.4978 0.7783
v  -0.3162 0.6878 0.7092
v  -0.3114 0.8690 0.6432
v  -0.3172 1.0415 0.5804
v  -0.3081 1.2052 0.5209
v  -0.3356 0.8810 0.6761
v  -0.3463 1.3095 0.4829
v  -0.4388 1.2052 0.5209
v  -0.4400 1.1126 0.5270
v  -0.4821 1.0415 0.5804
v  -0.4831 0.6878 0.7092
v  -0.5054 0.8690 0.6432
v  -0.4811 0.8810 0.6761
v  -0.4084 0.8850 0.6870
# 168 vertices

vn -0.5259 -0.4048 -0.7481
vn -0.5194 -0.3713 -0.7696
vn -0.0055 -0.3805 -0.9247
vn 0.0317 -0.5100 -0.8596
vn -0.5253 -0.2027 -0.8264
vn -0.0020 -0.3021 -0.9533
vn -0.0082 -0.3412 -0.9399
vn -0.5456 -0.2837 -0.7886
vn -0.0013 -0.1280 -0.9918
vn 0.4952 -0.2974 -0.8163
vn 0.5136 -0.2629 -0.8168
vn 0.5407 -0.2859 -0.7911
vn 0.5112 -0.3178 -0.7986
vn -0.0328 0.1328 0.9906
vn -0.0086 0.3122 0.9500
vn -0.5249 0.2071 0.8256
vn -0.5204 0.1601 0.8388
vn 0.5212 0.2837 0.8049
vn 0.5056 0.2759 0.8175
vn -0.0408 0.5739 0.8179
vn -0.0117 0.3763 0.9264
vn 0.4973 0.3299 0.8024
vn 0.4767 0.3320 0.8140
vn -0.5483 0.4311 0.7166
vn -0.5257 0.3772 0.7625
vn 0.1701 -0.9244 0.3415
vn -0.8832 -0.4217 0.2055
vn 0.4369 -0.3251 -0.8387
vn 0.9758 -0.2058 0.0740
vn 0.9995 0.0247 0.0201
vn 1.0000 -0.0046 -0.0020
vn 0.9995 -0.0223 -0.0244
vn 0.9727 0.2272 -0.0474
vn 0.5348 0.2819 0.7966
vn 0.1937 0.9258 -0.3245
vn -0.8481 0.5141 -0.1283
vn -0.5260 -0.1390 -0.8390
vn -0.9780 0.1988 -0.0638
vn -0.9829 -0.1750 0.0576
vn -1.0000 0.0052 -0.0010
vn -0.5467 0.2913 0.7850
vn -0.0044 0.3426 0.9395
vn -0.5248 -0.4049 -0.7487
vn -0.5200 -0.3711 -0.7694
vn -0.0056 -0.3804 -0.9248
vn 0.0309 -0.5103 -0.8595
vn -0.5258 -0.2025 -0.8262
vn -0.0021 -0.3022 -0.9533
vn -0.0080 -0.3411 -0.9400
vn -0.5458 -0.2835 -0.7885
vn -0.0015 -0.1281 -0.9918
vn 0.4945 -0.2973 -0.8167
vn 0.5131 -0.2630 -0.8170
vn 0.5392 -0.2862 -0.7921
vn 0.5104 -0.3178 -0.7990
vn -0.0343 0.1323 0.9906
vn -0.0086 0.3119 0.9501
vn -0.5255 0.2065 0.8253
vn -0.5195 0.1605 0.8392
vn 0.5201 0.2837 0.8056
vn 0.5052 0.2759 0.8177
vn -0.0416 0.5748 0.8173
vn -0.0115 0.3760 0.9265
vn 0.4969 0.3297 0.8027
vn 0.4778 0.3325 0.8131
vn -0.5484 0.4317 0.7162
vn -0.5261 0.3771 0.7623
vn 0.1705 -0.9243 0.3415
vn -0.8830 -0.4210 0.2075
vn 0.4382 -0.3247 -0.8382
vn 0.9758 -0.2049 0.0758
vn 0.9995 0.0243 0.0205
vn 1.0000 -0.0044 -0.0019
vn 0.9995 -0.0217 -0.0240
vn 0.9726 0.2275 -0.0474
vn 0.5337 0.2821 0.7973
vn 0.1944 0.9256 -0.3248
vn -0.8477 0.5147 -0.1281
vn -0.5253 -0.1397 -0.8393
vn -0.9780 0.1987 -0.0636
vn -0.9829 -0.1748 0.0587
vn -1.0000 0.0054 -0.0010
vn -0.5473 0.2910 0.7847
vn -0.0040 0.3425 0.9395
vn -0.5249 -0.4049 -0.7487
vn -0.5200 -0.3709 -0.7694
vn -0.0055 -0.3804 -0.9248
vn 0.0313 -0.5102 -0.8595
vn -0.5249 -0.2031 -0.8266
vn -0.0023 -0.3020 -0.9533
vn -0.0080 -0.3412 -0.9399
vn -0.5456 -0.2836 -0.7886
vn -0.0013 -0.1281 -0.9918
vn 0.4944 -0.2973 -0.8168
vn 0.5134 -0.2629 -0.8169
vn 0.5396 -0.2863 -0.7918
vn 0.5095 -0.3180 -0.7995
vn -0.0335 0.1324 0.9906
vn -0.0085 0.3123 0.9499
vn -0.5251 0.2068 0.8255
vn -0.5200 0.1603 0.8390
vn 0.5206 0.2836 0.8053
vn 0.5046 0.2761 0.8180
vn -0.0410 0.5745 0.8175
vn -0.0119 0.3762 0.9265
vn 0.4984 0.3301 0.8016
vn 0.4772 0.3322 0.8136
vn -0.5491 0.4309 0.7161
vn -0.5252 0.3771 0.7628
vn -0.8828 -0.4214 0.2075
vn 0.4374 -0.3249 -0.8385
vn 0.9758 -0.2052 0.0760
vn 0.9995 0.0244 0.0205
vn 1.0000 -0.0053 -0.0036
vn 0.9995 -0.0219 -0.0247
vn 0.9727 0.2270 -0.0480
vn 0.5343 0.2817 0.7970
vn 0.1942 0.9257 -0.3247
vn -0.8478 0.5144 -0.1290
vn -0.5250 -0.1397 -0.8396
vn -0.9780 0.1987 -0.0635
vn -0.9829 -0.1747 0.0582
vn -1.0000 0.0044 -0.0028
vn -0.5469 0.2914 0.7849
vn -0.0044 0.3424 0.9395
vn -0.5237 -0.4049 -0.7495
vn -0.5204 -0.3709 -0.7692
vn -0.0052 -0.3802 -0.9249
vn 0.0305 -0.5101 -0.8596
vn -0.5250 -0.2030 -0.8265
vn -0.0019 -0.3022 -0.9532
vn -0.0080 -0.3413 -0.9399
vn -0.5452 -0.2838 -0.7888
vn -0.0018 -0.1278 -0.9918
vn 0.4943 -0.2972 -0.8169
vn 0.5134 -0.2632 -0.8168
vn 0.5398 -0.2864 -0.7916
vn 0.5101 -0.3178 -0.7993
vn -0.0347 0.1322 0.9906
vn -0.0081 0.3123 0.9500
vn -0.5252 0.2069 0.8254
vn -0.5205 0.1597 0.8388
vn 0.5216 0.2833 0.8048
vn 0.5050 0.2760 0.8178
vn -0.0417 0.5748 0.8172
vn -0.0116 0.3764 0.9264
vn 0.4987 0.3299 0.8016
vn 0.4760 0.3326 0.8141
vn -0.5490 0.4308 0.7163
vn -0.5255 0.3773 0.7626
vn 0.1702 -0.9243 0.3416
vn -0.8831 -0.4215 0.2063
vn 0.4379 -0.3245 -0.8384
vn 0.9758 -0.2057 0.0746
vn 0.9995 0.0248 0.0205
vn 1.0000 -0.0054 -0.0033
vn 0.9994 -0.0221 -0.0249
vn 0.9726 0.2278 -0.0470
vn 0.5347 0.2817 0.7967
vn 0.1942 0.9256 -0.3250
vn -0.8478 0.5147 -0.1277
vn -0.5257 -0.1394 -0.8392
vn -0.9781 0.1984 -0.0635
vn -0.9829 -0.1746 0.0590
vn -1.0000 0.0047 -0.0026
vn -0.5466 0.2915 0.7850
vn -0.0045 0.3425 0.9395
# 167 vertex normals

vt 0.5928 0.4959 0.0000
vt 0.6479 0.4866 0.0000
vt 0.6290 0.5120 0.0000
vt 0.5533 0.5216 0.0000
vt 0.7520 0.4868 0.0000
vt 0.7693 0.5120 0.0000
vt 0.7009 0.5088 0.0000
vt 0.7009 0.4813 0.0000
vt 0.8345 0.5216 0.0000
vt 0.8013 0.5353 0.0000
vt 0.7520 0.5342 0.0000
vt 0.7009 0.5362 0.0000
vt 0.6479 0.5344 0.0000
vt 0.5533 0.5565 0.0000
vt 0.6290 0.5661 0.0000
vt 0.6479 0.5914 0.0000
vt 0.5928 0.5821 0.0000
vt 0.5929 0.5424 0.0000
vt 0.6479 0.5436 0.0000
vt 0.8345 0.5565 0.0000
vt 0.7693 0.5661 0.0000
vt 0.7520 0.5438 0.0000
vt 0.8013 0.5427 0.0000
vt 0.8013 0.5817 0.0000
vt 0.7520 0.5912 0.0000
vt 0.4571 0.5367 0.0000
vt 0.4809 0.5456 0.0000
vt 0.4682 0.5720 0.0000
vt 0.4158 0.5826 0.0000
vt 0.4540 0.4813 0.0000
vt 0.4917 0.5228 0.0000
vt 0.5477 0.5260 0.0000
vt 0.5027 0.5585 0.0000
vt 0.4930 0.6194 0.0000
vt 0.6494 0.6401 0.0000
vt 0.6299 0.6549 0.0000
vt 0.5533 0.6551 0.0000
vt 0.5934 0.6413 0.0000
vt 0.7015 0.6547 0.0000
vt 0.7015 0.6392 0.0000
vt 0.7518 0.6399 0.0000
vt 0.7697 0.6545 0.0000
vt 0.7519 0.6693 0.0000
vt 0.8357 0.6544 0.0000
vt 0.8020 0.6681 0.0000
vt 0.7016 0.6702 0.0000
vt 0.6494 0.6696 0.0000
vt 0.4869 0.7104 0.0000
vt 0.4566 0.7457 0.0000
vt 0.4532 0.7000 0.0000
vt 0.4748 0.6903 0.0000
vt 0.4599 0.6654 0.0000
vt 0.4158 0.6624 0.0000
vt 0.4778 0.6251 0.0000
vt 0.4936 0.6758 0.0000
vt 0.5323 0.7002 0.0000
vt 0.7696 0.6181 0.0000
vt 0.8368 0.6182 0.0000
vt 0.8036 0.6307 0.0000
vt 0.7536 0.6325 0.0000
vt 0.7020 0.6335 0.0000
vt 0.6486 0.6324 0.0000
vt 0.6309 0.6178 0.0000
vt 0.7020 0.6179 0.0000
vt 0.5533 0.6176 0.0000
vt 0.5929 0.6049 0.0000
vt 0.6487 0.6032 0.0000
vt 0.7021 0.6024 0.0000
vt 0.7537 0.6036 0.0000
vt 0.8013 0.4963 0.0000
vt 0.7009 0.5693 0.0000
vt 0.7009 0.5419 0.0000
vt 0.7009 0.5967 0.0000
vt 0.8019 0.6409 0.0000
vt 0.8037 0.6056 0.0000
vt 0.5929 0.5356 0.0000
vt 0.5935 0.6687 0.0000
vt 0.5929 0.6305 0.0000
# 78 texture coords

g Object001
usemtl wire_227153153
s 1
f 1/1/1 2/2/2 3/3/3 4/4/4 
f 5/5/5 6/6/6 7/7/7 8/8/8 
f 6/6/6 9/9/9 10/10/10 11/11/11 
f 12/12/12 13/13/13 3/3/3 7/7/7 
f 14/14/14 15/15/15 16/16/16 17/17/17 
f 14/14/14 18/18/18 19/19/19 15/15/15 
f 20/20/20 21/21/21 22/22/22 23/23/23 
f 20/20/20 24/24/24 25/25/25 21/21/21 
f 4/26/4 26/27/26 27/28/27 1/29/1 
f 28/30/28 29/31/29 26/27/26 4/26/4 
f 26/27/26 29/31/29 18/32/18 14/33/14 
f 17/34/17 27/28/27 26/27/26 14/33/14 
f 13/35/13 30/36/30 29/37/29 28/38/28 
f 31/39/31 12/40/12 11/41/11 32/42/32 
f 22/43/22 32/42/32 33/44/33 23/45/23 
f 31/39/31 34/46/34 19/47/19 30/36/30 
f 33/48/33 10/49/10 9/50/9 35/51/35 
f 36/52/36 35/51/35 9/50/9 37/53/37 
f 24/54/24 20/55/20 35/51/35 36/52/36 
f 23/56/23 33/48/33 35/51/35 20/55/20 
f 38/57/38 36/58/36 37/59/37 5/60/5 
f 8/61/8 2/62/2 39/63/39 40/64/40 
f 39/63/39 27/65/27 17/66/17 16/67/16 
f 38/57/38 40/64/40 41/68/41 25/69/25 
f 5/5/5 37/70/37 9/9/9 6/6/6 
f 6/6/6 11/11/11 12/12/12 7/7/7 
f 21/21/21 42/71/42 34/72/34 22/22/22 
f 42/71/42 21/21/21 25/25/25 41/73/41 
f 32/42/32 11/41/11 10/74/10 33/44/33 
f 32/42/32 22/43/22 34/46/34 31/39/31 
f 8/61/8 40/64/40 38/57/38 5/60/5 
f 25/69/25 24/75/24 36/58/36 38/57/38 
f 2/2/2 8/8/8 7/7/7 3/3/3 
f 3/3/3 13/13/13 28/76/28 4/4/4 
f 15/15/15 42/71/42 41/73/41 16/16/16 
f 19/19/19 34/72/34 42/71/42 15/15/15 
f 13/35/13 12/40/12 31/39/31 30/36/30 
f 30/36/30 19/47/19 18/77/18 29/37/29 
f 27/65/27 39/63/39 2/62/2 1/78/1 
f 39/63/39 16/67/16 41/68/41 40/64/40 
f 43/1/43 44/2/44 45/3/45 46/4/46 
f 47/5/47 48/6/48 49/7/49 50/8/50 
f 48/6/48 51/9/51 52/10/52 53/11/53 
f 54/12/54 55/13/55 45/3/45 49/7/49 
f 56/14/56 57/15/57 58/16/58 59/17/59 
f 56/14/56 60/18/60 61/19/61 57/15/57 
f 62/20/62 63/21/63 64/22/64 65/23/65 
f 62/20/62 66/24/66 67/25/67 63/21/63 
f 46/26/46 68/27/68 69/28/69 43/29/43 
f 70/30/70 71/31/71 68/27/68 46/26/46 
f 68/27/68 71/31/71 60/32/60 56/33/56 
f 59/34/59 69/28/69 68/27/68 56/33/56 
f 55/35/55 72/36/72 71/37/71 70/38/70 
f 73/39/73 54/40/54 53/41/53 74/42/74 
f 64/43/64 74/42/74 75/44/75 65/45/65 
f 73/39/73 76/46/76 61/47/61 72/36/72 
f 75/48/75 52/49/52 51/50/51 77/51/77 
f 78/52/78 77/51/77 51/50/51 79/53/79 
f 66/54/66 62/55/62 77/51/77 78/52/78 
f 65/56/65 75/48/75 77/51/77 62/55/62 
f 80/57/80 78/58/78 79/59/79 47/60/47 
f 50/61/50 44/62/44 81/63/81 82/64/82 
f 81/63/81 69/65/69 59/66/59 58/67/58 
f 80/57/80 82/64/82 83/68/83 67/69/67 
f 47/5/47 79/70/79 51/9/51 48/6/48 
f 48/6/48 53/11/53 54/12/54 49/7/49 
f 63/21/63 84/71/84 76/72/76 64/22/64 
f 84/71/84 63/21/63 67/25/67 83/73/83 
f 74/42/74 53/41/53 52/74/52 75/44/75 
f 74/42/74 64/43/64 76/46/76 73/39/73 
f 50/61/50 82/64/82 80/57/80 47/60/47 
f 67/69/67 66/75/66 78/58/78 80/57/80 
f 44/2/44 50/8/50 49/7/49 45/3/45 
f 45/3/45 55/13/55 70/76/70 46/4/46 
f 57/15/57 84/71/84 83/73/83 58/16/58 
f 61/19/61 76/72/76 84/71/84 57/15/57 
f 55/35/55 54/40/54 73/39/73 72/36/72 
f 72/36/72 61/47/61 60/77/60 71/37/71 
f 69/65/69 81/63/81 44/62/44 43/78/43 
f 81/63/81 58/67/58 83/68/83 82/64/82 
f 85/1/85 86/2/86 87/3/87 88/4/88 
f 89/5/89 90/6/90 91/7/91 92/8/92 
f 90/6/90 93/9/93 94/10/94 95/11/95 
f 96/12/96 97/13/97 87/3/87 91/7/91 
f 98/14/98 99/15/99 100/16/100 101/17/101 
f 98/14/98 102/18/102 103/19/103 99/15/99 
f 104/20/104 105/21/105 106/22/106 107/23/107 
f 104/20/104 108/24/108 109/25/109 105/21/105 
f 88/26/88 110/27/68 111/28/110 85/29/85 
f 112/30/111 113/31/112 110/27/68 88/26/88 
f 110/27/68 113/31/112 102/32/102 98/33/98 
f 101/34/101 111/28/110 110/27/68 98/33/98 
f 97/35/97 114/36/113 113/37/112 112/38/111 
f 115/39/114 96/40/96 95/41/95 116/42/115 
f 106/43/106 116/42/115 117/44/116 107/45/107 
f 115/39/114 118/46/117 103/47/103 114/36/113 
f 117/48/116 94/49/94 93/50/93 119/51/118 
f 120/52/119 119/51/118 93/50/93 121/53/120 
f 108/54/108 104/55/104 119/51/118 120/52/119 
f 107/56/107 117/48/116 119/51/118 104/55/104 
f 122/57/121 120/58/119 121/59/120 89/60/89 
f 92/61/92 86/62/86 123/63/122 124/64/123 
f 123/63/122 111/65/110 101/66/101 100/67/100 
f 122/57/121 124/64/123 125/68/124 109/69/109 
f 89/5/89 121/70/120 93/9/93 90/6/90 
f 90/6/90 95/11/95 96/12/96 91/7/91 
f 105/21/105 126/71/125 118/72/117 106/22/106 
f 126/71/125 105/21/105 109/25/109 125/73/124 
f 116/42/115 95/41/95 94/74/94 117/44/116 
f 116/42/115 106/43/106 118/46/117 115/39/114 
f 92/61/92 124/64/123 122/57/121 89/60/89 
f 109/69/109 108/75/108 120/58/119 122/57/121 
f 86/2/86 92/8/92 91/7/91 87/3/87 
f 87/3/87 97/13/97 112/76/111 88/4/88 
f 99/15/99 126/71/125 125/73/124 100/16/100 
f 103/19/103 118/72/117 126/71/125 99/15/99 
f 97/35/97 96/40/96 115/39/114 114/36/113 
f 114/36/113 103/47/103 102/77/102 113/37/112 
f 111/65/110 123/63/122 86/62/86 85/78/85 
f 123/63/122 100/67/100 125/68/124 124/64/123 
f 127/1/126 128/2/127 129/3/128 130/4/129 
f 131/5/130 132/6/131 133/7/132 134/8/133 
f 132/6/131 135/9/134 136/10/135 137/11/136 
f 138/12/137 139/13/138 129/3/128 133/7/132 
f 140/14/139 141/15/140 142/16/141 143/17/142 
f 140/14/139 144/18/143 145/19/144 141/15/140 
f 146/20/145 147/21/146 148/22/147 149/23/148 
f 146/20/145 150/24/149 151/25/150 147/21/146 
f 130/26/129 152/27/151 153/28/152 127/29/126 
f 154/30/153 155/31/154 152/27/151 130/26/129 
f 152/27/151 155/31/154 144/32/143 140/33/139 
f 143/34/142 153/28/152 152/27/151 140/33/139 
f 139/35/138 156/36/155 155/37/154 154/38/153 
f 157/39/156 138/40/137 137/41/136 158/42/157 
f 148/43/147 158/42/157 159/44/158 149/45/148 
f 157/39/156 160/46/159 145/47/144 156/36/155 
f 159/48/158 136/49/135 135/50/134 161/51/160 
f 162/52/161 161/51/160 135/50/134 163/53/162 
f 150/54/149 146/55/145 161/51/160 162/52/161 
f 149/56/148 159/48/158 161/51/160 146/55/145 
f 164/57/163 162/58/161 163/59/162 131/60/130 
f 134/61/133 128/62/127 165/63/164 166/64/165 
f 165/63/164 153/65/152 143/66/142 142/67/141 
f 164/57/163 166/64/165 167/68/166 151/69/150 
f 131/5/130 163/70/162 135/9/134 132/6/131 
f 132/6/131 137/11/136 138/12/137 133/7/132 
f 147/21/146 168/71/167 160/72/159 148/22/147 
f 168/71/167 147/21/146 151/25/150 167/73/166 
f 158/42/157 137/41/136 136/74/135 159/44/158 
f 158/42/157 148/43/147 160/46/159 157/39/156 
f 134/61/133 166/64/165 164/57/163 131/60/130 
f 151/69/150 150/75/149 162/58/161 164/57/163 
f 128/2/127 134/8/133 133/7/132 129/3/128 
f 129/3/128 139/13/138 154/76/153 130/4/129 
f 141/15/140 168/71/167 167/73/166 142/16/141 
f 145/19/144 160/72/159 168/71/167 141/15/140 
f 139/35/138 138/40/137 157/39/156 156/36/155 
f 156/36/155 145/47/144 144/77/143 155/37/154 
f 153/65/152 165/63/164 128/62/127 127/78/126 
f 165/63/164 142/67/141 167/68/166 166/64/165 
# 160 polygons

