# 3ds Max Wavefront OBJ Exporter v0.97b - (c)2007 guruware
# File Created: 28.04.2018 16:04:23

mtllib TOMATOES STEP 01.mtl

#
# object Tomato_step02
#

v  -0.2196 1.2542 -0.0894
v  -0.2170 1.2643 -0.1000
v  -0.2201 1.2538 -0.1012
v  -0.2248 1.2506 -0.0913
v  -0.2246 1.2591 -0.0840
v  -0.1438 1.1934 -0.0523
v  -0.1373 1.2031 -0.0587
v  -0.0809 1.1239 -0.0270
v  -0.0723 1.1343 -0.0343
v  -0.0338 1.0388 -0.0075
v  -0.0226 1.0492 -0.0155
v  -0.0002 0.9398 0.0072
v  0.0138 0.9497 -0.0015
v  0.0218 0.8286 0.0177
v  0.0392 0.8374 0.0085
v  -0.1341 1.1994 -0.0719
v  -0.0688 1.1303 -0.0500
v  -0.0191 1.0453 -0.0338
v  0.0173 0.9459 -0.0225
v  0.0424 0.8341 -0.0153
v  -0.1387 1.1875 -0.0735
v  -0.0754 1.1175 -0.0524
v  -0.0281 1.0324 -0.0371
v  0.0053 0.9337 -0.0269
v  0.0271 0.8232 -0.0209
v  -0.1447 1.1838 -0.0614
v  -0.0828 1.1136 -0.0381
v  -0.0371 1.0284 -0.0208
v  -0.0055 0.9300 -0.0086
v  0.0143 0.8199 -0.0006
v  -0.2246 1.2726 -0.1240
v  -0.1455 1.2282 -0.0958
v  -0.1697 1.2540 -0.1550
v  -0.2017 1.2726 -0.1868
v  -0.2476 1.2726 -0.0608
v  -0.1689 1.2282 -0.0315
v  -0.2255 1.2540 -0.0018
v  -0.2705 1.2726 0.0020
v  -0.2530 1.2904 -0.2055
v  -0.2758 1.2904 -0.1426
v  -0.2988 1.2904 -0.0795
v  -0.3217 1.2904 -0.0166
v  -0.3470 1.3023 -0.1977
v  -0.4098 1.3052 -0.1619
v  -0.4139 1.3052 -0.1508
v  -0.3887 1.3023 -0.0830
v  -0.2346 1.2520 -0.1276
v  -0.2117 1.2520 -0.1905
v  -0.1803 1.2208 -0.1589
v  -0.1569 1.1962 -0.1000
v  -0.1803 1.1962 -0.0357
v  -0.2576 1.2520 -0.0644
v  -0.2361 1.2208 -0.0057
v  -0.2804 1.2520 -0.0016
v  -0.2853 1.2690 -0.1461
v  -0.2624 1.2690 -0.2089
v  -0.3083 1.2690 -0.0829
v  -0.3312 1.2690 -0.0200
v  -0.3560 1.2891 -0.2009
v  -0.4187 1.2973 -0.1651
v  -0.4228 1.2973 -0.1541
v  -0.3977 1.2891 -0.0863
v  -0.1742 1.2437 -0.2349
v  -0.1639 1.2640 -0.2312
v  -0.1377 1.2402 -0.1712
v  -0.1488 1.2076 -0.1752
v  -0.2803 1.2437 0.0565
v  -0.2225 1.2076 0.0272
v  -0.2114 1.2402 0.0312
v  -0.2700 1.2640 0.0602
v  -0.3168 1.2808 0.0634
v  -0.3265 1.2598 0.0599
v  -0.3703 1.2964 0.0439
v  -0.3795 1.2747 0.0406
v  -0.2075 1.2598 -0.2672
v  -0.2605 1.2747 -0.2864
v  -0.2513 1.2964 -0.2831
v  -0.1977 1.2808 -0.2636
v  0.0330 0.8286 -0.0231
v  0.0203 0.7069 -0.0300
v  -0.0007 0.7142 -0.0205
v  0.0156 0.8374 -0.0139
v  -0.0037 0.7114 0.0060
v  0.0123 0.8341 0.0098
v  0.0155 0.7024 0.0130
v  0.0277 0.8232 0.0154
v  0.0303 0.6997 -0.0093
v  0.0405 0.8199 -0.0048
v  -0.0164 0.0000 -0.0300
v  0.0226 0.0000 -0.0412
v  0.0203 0.0000 0.0244
v  -0.0179 0.0000 0.0106
v  0.0453 0.0000 -0.0075
v  0.2745 1.2542 0.0840
v  0.2718 1.2643 0.0946
v  0.2750 1.2538 0.0957
v  0.2796 1.2506 0.0858
v  0.2794 1.2591 0.0786
v  0.1986 1.1934 0.0469
v  0.1920 1.2031 0.0532
v  0.1357 1.1239 0.0216
v  0.1271 1.1343 0.0289
v  0.0886 1.0388 0.0020
v  0.0774 1.0492 0.0101
v  0.0551 0.9398 -0.0126
v  0.0409 0.9497 -0.0039
v  -0.0156 0.1494 -0.0290
v  0.0205 0.1489 -0.0395
v  -0.0156 0.2975 -0.0282
v  0.0171 0.2957 -0.0384
v  -0.0143 0.4423 -0.0270
v  0.0144 0.4388 -0.0370
v  -0.0100 0.5819 -0.0247
v  0.0149 0.5764 -0.0344
v  0.1889 1.1994 0.0664
v  0.1236 1.1303 0.0446
v  0.0739 1.0453 0.0284
v  0.0375 0.9459 0.0171
v  -0.0171 0.1492 0.0089
v  -0.0173 0.2968 0.0068
v  -0.0165 0.4410 0.0052
v  -0.0125 0.5798 0.0047
v  0.1935 1.1875 0.0681
v  0.1301 1.1175 0.0470
v  0.0829 1.0324 0.0317
v  0.0494 0.9337 0.0214
v  0.0181 0.1485 0.0217
v  0.0142 0.2945 0.0183
v  0.0111 0.4365 0.0152
v  0.0108 0.5730 0.0132
v  0.1995 1.1838 0.0559
v  0.1377 1.1136 0.0327
v  0.0919 1.0284 0.0154
v  0.0603 0.9300 0.0031
v  0.0413 0.1483 -0.0082
v  0.0355 0.2939 -0.0096
v  0.0301 0.4352 -0.0108
v  0.0276 0.5709 -0.0110
v  0.2794 1.2726 0.1186
v  0.2003 1.2282 0.0904
v  0.2245 1.2540 0.1496
v  0.2566 1.2726 0.1814
v  0.3024 1.2726 0.0554
v  0.2237 1.2282 0.0261
v  0.2803 1.2540 -0.0036
v  0.3253 1.2726 -0.0075
v  0.3078 1.2904 0.2001
v  0.3306 1.2904 0.1372
v  0.3536 1.2904 0.0740
v  0.3765 1.2904 0.0112
v  0.4018 1.3023 0.1923
v  0.4646 1.3052 0.1565
v  0.4687 1.3052 0.1454
v  0.4435 1.3023 0.0776
v  0.2894 1.2520 0.1222
v  0.2665 1.2520 0.1850
v  0.2351 1.2208 0.1535
v  0.2118 1.1962 0.0946
v  0.2352 1.1962 0.0303
v  0.3124 1.2520 0.0590
v  0.2909 1.2208 0.0002
v  0.3353 1.2520 -0.0038
v  0.3401 1.2690 0.1406
v  0.3173 1.2690 0.2035
v  0.3631 1.2690 0.0775
v  0.3860 1.2690 0.0146
v  0.4108 1.2891 0.1955
v  0.4736 1.2973 0.1597
v  0.4776 1.2973 0.1486
v  0.4526 1.2891 0.0809
v  0.2289 1.2437 0.2295
v  0.2187 1.2640 0.2257
v  0.1925 1.2402 0.1658
v  0.2036 1.2076 0.1698
v  0.3350 1.2437 -0.0619
v  0.2773 1.2076 -0.0326
v  0.2662 1.2402 -0.0366
v  0.3248 1.2640 -0.0656
v  0.3716 1.2808 -0.0688
v  0.3813 1.2598 -0.0653
v  0.4251 1.2964 -0.0493
v  0.4343 1.2747 -0.0460
v  0.2622 1.2598 0.2617
v  0.3153 1.2747 0.2810
v  0.3061 1.2964 0.2777
v  0.2526 1.2808 0.2582
# 186 vertices

vn -0.5341 0.8361 -0.1248
vn -0.8796 0.4727 -0.0540
vn -0.8938 0.3088 -0.3253
vn -0.6631 0.7086 -0.2413
vn -0.1752 0.6439 -0.7448
vn -0.3413 0.0454 0.9389
vn 0.4545 0.7452 0.4881
vn 0.4581 0.8164 0.3517
vn -0.2866 0.1051 0.9523
vn -0.3054 0.0314 0.9517
vn 0.6020 0.6101 0.5151
vn -0.3069 0.0202 0.9515
vn 0.7102 0.4432 0.5470
vn -0.3155 0.0161 0.9488
vn 0.7687 0.2977 0.5662
vn -0.4984 -0.0144 0.8668
vn 0.7642 0.2247 0.6046
vn 0.6417 0.4750 -0.6021
vn 0.5735 0.7115 -0.4060
vn 0.7285 0.4000 -0.5561
vn 0.7968 0.2906 -0.5298
vn 0.8315 0.1961 -0.5197
vn 0.7708 0.1335 -0.6229
vn -0.1013 -0.4286 -0.8978
vn -0.0204 -0.4065 -0.9134
vn -0.1695 -0.3437 -0.9237
vn -0.2432 -0.2430 -0.9390
vn -0.2839 -0.1521 -0.9467
vn -0.4254 -0.1294 -0.8957
vn -0.7140 -0.6976 0.0596
vn -0.6606 -0.7427 0.1092
vn -0.8314 -0.5557 0.0069
vn -0.9224 -0.3840 -0.0422
vn -0.9687 -0.2395 -0.0656
vn -0.9770 -0.1864 -0.1036
vn 0.3581 0.9234 0.1381
vn 0.4328 0.8839 0.1772
vn 0.4063 0.8955 0.1816
vn 0.3337 0.9348 0.1215
vn 0.3668 0.9207 0.1335
vn 0.4357 0.8885 0.1439
vn 0.3746 0.9231 -0.0867
vn 0.3515 0.9297 0.1103
vn 0.2160 0.9725 0.0866
vn 0.1988 0.9774 0.0724
vn 0.2061 0.9760 0.0705
vn 0.2241 0.9711 0.0816
vn 0.1371 0.9771 0.1629
vn 0.1074 0.9929 0.0507
vn 0.1114 0.9934 0.0257
vn 0.1308 0.9914 0.0077
vn -0.4186 -0.8967 -0.1437
vn -0.4164 -0.8965 -0.1515
vn -0.5593 -0.8131 -0.1612
vn -0.5339 -0.8282 -0.1706
vn -0.5293 -0.8218 -0.2106
vn -0.4090 -0.9003 -0.1489
vn -0.5465 -0.7244 -0.4203
vn -0.3970 -0.9031 -0.1636
vn -0.2401 -0.9668 -0.0874
vn -0.2485 -0.9638 -0.0967
vn -0.2457 -0.9655 -0.0859
vn -0.2549 -0.9625 -0.0928
vn -0.2213 -0.9602 -0.1707
vn -0.1993 -0.9765 -0.0818
vn -0.2026 -0.9773 -0.0619
vn -0.2178 -0.9748 -0.0474
vn 0.7947 -0.3064 -0.5240
vn 0.8122 -0.2861 -0.5083
vn 0.8540 -0.2323 -0.4655
vn 0.8420 -0.2487 -0.4788
vn 0.8783 -0.3555 0.3197
vn 0.3162 -0.2963 0.9012
vn 0.3263 -0.2242 0.9183
vn 0.3238 -0.2432 0.9143
vn 0.3121 -0.3232 0.8934
vn 0.0066 -0.1848 0.9828
vn 0.0062 -0.1801 0.9836
vn -0.1558 -0.0936 0.9833
vn -0.1871 -0.0805 0.9790
vn -0.3420 0.0000 0.9397
vn -0.6669 0.1777 0.7236
vn -0.6657 0.1880 0.7221
vn -0.6533 0.2706 0.7071
vn -0.6563 0.2534 0.7107
vn -0.8105 0.4653 0.3559
vn -0.7993 0.4894 0.3488
vn -0.6751 0.7345 0.0694
vn -0.6737 0.7390 -0.0020
vn -0.4647 0.7181 -0.5181
vn -0.5013 0.7465 -0.4375
vn -0.4096 0.4932 -0.7675
vn -0.4180 0.4778 -0.7727
vn -0.0556 0.1904 -0.9801
vn -0.0269 0.2585 -0.9656
vn -0.0309 0.2492 -0.9680
vn -0.0587 0.1831 -0.9813
vn 0.4883 -0.0797 -0.8690
vn 0.3420 0.0000 -0.9397
vn 0.5139 -0.0968 -0.8524
vn 0.6350 -0.1790 -0.7515
vn 0.6325 -0.1818 -0.7530
vn 0.3659 0.9211 0.1331
vn 0.4609 0.8715 0.1675
vn 0.9414 -0.3339 0.0475
vn -0.4767 -0.8464 -0.2373
vn -0.4361 -0.8760 -0.2062
vn -0.2612 -0.9606 -0.0950
vn -0.9179 0.3968 0.0087
vn 0.2695 0.9580 0.0980
vn 0.3659 0.9211 0.1333
vn 0.2695 0.9580 0.0982
vn -0.6976 0.3968 -0.5966
vn -0.2611 -0.9606 -0.0951
vn -0.4666 -0.8760 -0.1224
vn -0.5177 -0.8464 -0.1247
vn 0.7517 -0.3339 0.5687
vn 0.4608 0.8715 0.1679
vn 0.3242 0.0168 -0.9459
vn 0.3303 0.0184 -0.9437
vn -0.7997 0.1060 -0.5910
vn -0.7933 0.1857 -0.5798
vn -0.8468 0.0733 0.5269
vn -0.8448 0.1242 0.5204
vn 0.3015 -0.0297 0.9530
vn 0.3000 -0.0807 0.9505
vn 0.9965 -0.0537 0.0644
vn 0.9890 -0.1304 0.0700
vn 0.0000 -1.0000 -0.0000
vn 0.5341 0.8361 0.1248
vn 0.8796 0.4727 0.0540
vn 0.8938 0.3088 0.3253
vn 0.6631 0.7086 0.2413
vn 0.1752 0.6439 0.7448
vn 0.3413 0.0454 -0.9389
vn -0.4545 0.7452 -0.4881
vn -0.4581 0.8164 -0.3517
vn 0.2866 0.1051 -0.9523
vn 0.3054 0.0314 -0.9517
vn -0.6020 0.6101 -0.5151
vn 0.3069 0.0202 -0.9515
vn -0.7102 0.4432 -0.5470
vn 0.3155 0.0161 -0.9488
vn -0.7687 0.2977 -0.5662
vn -0.7873 0.0079 -0.6165
vn -0.7881 0.0049 -0.6155
vn 0.3429 0.0168 -0.9392
vn 0.3449 0.0160 -0.9385
vn -0.7904 0.0056 -0.6126
vn 0.3400 0.0182 -0.9403
vn -0.7940 0.0208 -0.6076
vn 0.3373 0.0191 -0.9412
vn -0.7979 0.0529 -0.6004
vn 0.3342 0.0192 -0.9423
vn -0.6417 0.4750 0.6021
vn -0.5735 0.7115 0.4060
vn -0.7285 0.4000 0.5561
vn -0.7968 0.2906 0.5298
vn -0.8315 0.1961 0.5197
vn -0.8276 0.0104 0.5612
vn -0.8293 0.0088 0.5587
vn -0.8331 0.0095 0.5530
vn -0.8382 0.0192 0.5451
vn -0.8434 0.0395 0.5359
vn 0.1013 -0.4286 0.8978
vn 0.0204 -0.4065 0.9134
vn 0.1695 -0.3437 0.9237
vn 0.2432 -0.2430 0.9390
vn 0.2839 -0.1521 0.9467
vn 0.2796 0.0263 0.9598
vn 0.2791 0.0224 0.9600
vn 0.2830 0.0294 0.9587
vn 0.2891 0.0223 0.9570
vn 0.2963 0.0035 0.9551
vn 0.7140 -0.6976 -0.0596
vn 0.6606 -0.7427 -0.1092
vn 0.8314 -0.5557 -0.0069
vn 0.9224 -0.3840 0.0422
vn 0.9687 -0.2395 0.0656
vn 0.9990 0.0261 0.0368
vn 0.9988 0.0322 0.0377
vn 0.9985 0.0369 0.0412
vn 0.9986 0.0257 0.0473
vn 0.9985 -0.0034 0.0555
vn -0.3581 0.9234 -0.1381
vn -0.4328 0.8839 -0.1772
vn -0.4063 0.8955 -0.1816
vn -0.3337 0.9348 -0.1215
vn -0.3668 0.9207 -0.1335
vn -0.4357 0.8885 -0.1439
vn -0.3746 0.9231 0.0867
vn -0.3515 0.9297 -0.1103
vn -0.2160 0.9725 -0.0866
vn -0.1989 0.9774 -0.0724
vn -0.2061 0.9760 -0.0705
vn -0.2241 0.9711 -0.0816
vn -0.1371 0.9771 -0.1629
vn -0.1074 0.9929 -0.0507
vn -0.1114 0.9934 -0.0257
vn -0.1308 0.9914 -0.0077
vn 0.4186 -0.8967 0.1437
vn 0.4164 -0.8965 0.1515
vn 0.5593 -0.8131 0.1612
vn 0.5339 -0.8282 0.1706
vn 0.5293 -0.8218 0.2106
vn 0.4090 -0.9003 0.1489
vn 0.5465 -0.7244 0.4203
vn 0.3970 -0.9031 0.1636
vn 0.2401 -0.9668 0.0874
vn 0.2485 -0.9638 0.0967
vn 0.2457 -0.9655 0.0859
vn 0.2549 -0.9625 0.0928
vn 0.2213 -0.9602 0.1707
vn 0.1993 -0.9765 0.0818
vn 0.2026 -0.9773 0.0619
vn 0.2178 -0.9748 0.0474
vn -0.7947 -0.3064 0.5240
vn -0.8122 -0.2861 0.5083
vn -0.8540 -0.2323 0.4655
vn -0.8420 -0.2487 0.4788
vn -0.8783 -0.3555 -0.3197
vn -0.3162 -0.2963 -0.9012
vn -0.3263 -0.2242 -0.9183
vn -0.3238 -0.2432 -0.9143
vn -0.3121 -0.3232 -0.8934
vn -0.0066 -0.1848 -0.9828
vn -0.0062 -0.1801 -0.9836
vn 0.1558 -0.0936 -0.9833
vn 0.1871 -0.0805 -0.9790
vn 0.6669 0.1777 -0.7236
vn 0.6657 0.1880 -0.7221
vn 0.6533 0.2706 -0.7071
vn 0.6563 0.2534 -0.7107
vn 0.8105 0.4653 -0.3559
vn 0.7993 0.4894 -0.3488
vn 0.6751 0.7345 -0.0694
vn 0.6737 0.7390 0.0020
vn 0.4646 0.7181 0.5181
vn 0.5013 0.7465 0.4375
vn 0.4096 0.4932 0.7675
vn 0.4180 0.4778 0.7727
vn 0.0556 0.1904 0.9801
vn 0.0269 0.2585 0.9656
vn 0.0309 0.2492 0.9680
vn 0.0587 0.1831 0.9813
vn -0.4883 -0.0797 0.8690
vn -0.5139 -0.0968 0.8524
vn -0.6350 -0.1790 0.7515
vn -0.6325 -0.1818 0.7530
vn -0.3659 0.9211 -0.1331
vn -0.4609 0.8715 -0.1675
vn -0.9414 -0.3339 -0.0475
vn 0.4767 -0.8464 0.2373
vn 0.4361 -0.8760 0.2062
vn 0.2612 -0.9606 0.0950
vn 0.9179 0.3968 -0.0087
vn -0.2695 0.9580 -0.0980
vn -0.3659 0.9211 -0.1333
vn -0.2695 0.9580 -0.0982
vn 0.6976 0.3968 0.5966
vn 0.2611 -0.9606 0.0951
vn 0.4666 -0.8760 0.1224
vn 0.5177 -0.8464 0.1247
vn -0.7517 -0.3339 -0.5687
vn -0.4608 0.8715 -0.1679
# 265 vertex normals

vt 0.0245 0.6545 0.2500
vt 0.2061 0.0955 0.2500
vt 0.7939 0.0955 0.2500
vt 0.9755 0.6545 0.2500
vt 0.5000 1.0000 0.2500
vt 0.7500 0.9091 1.0000
vt 0.9500 0.9091 1.0000
vt 0.9500 1.0000 1.0000
vt 0.7500 1.0000 1.0000
vt 0.7500 0.8182 1.0000
vt 0.9500 0.8182 1.0000
vt 0.7500 0.7273 1.0000
vt 0.9500 0.7273 1.0000
vt 0.7500 0.6364 1.0000
vt 0.9500 0.6364 1.0000
vt 0.7500 0.5455 1.0000
vt 0.9500 0.5455 1.0000
vt 1.1500 0.9091 1.0000
vt 1.1500 1.0000 1.0000
vt 1.1500 0.8182 1.0000
vt 1.1500 0.7273 1.0000
vt 1.1500 0.6364 1.0000
vt 1.1500 0.5455 1.0000
vt 0.1500 0.9091 1.0000
vt 0.3500 0.9091 1.0000
vt 0.3500 1.0000 1.0000
vt 0.1500 1.0000 1.0000
vt 0.1500 0.8182 1.0000
vt 0.3500 0.8182 1.0000
vt 0.1500 0.7273 1.0000
vt 0.3500 0.7273 1.0000
vt 0.1500 0.6364 1.0000
vt 0.3500 0.6364 1.0000
vt 0.1500 0.5455 1.0000
vt 0.3500 0.5455 1.0000
vt 0.5500 0.9091 1.0000
vt 0.5500 1.0000 1.0000
vt 0.5500 0.8182 1.0000
vt 0.5500 0.7273 1.0000
vt 0.5500 0.6364 1.0000
vt 0.5500 0.5455 1.0000
vt 0.6667 0.3333 0.0000
vt 0.6667 0.0000 0.0000
vt 1.0000 0.0000 0.0000
vt 1.0000 0.3333 0.0000
vt 0.3333 0.3333 0.0000
vt 0.3333 0.0000 0.0000
vt -0.0000 0.0000 0.0000
vt -0.0000 0.3333 0.0000
vt 1.0000 0.6667 0.0000
vt 0.6667 0.6667 0.0000
vt 0.3333 0.6667 0.0000
vt -0.0000 0.6667 0.0000
vt 1.0000 1.0000 0.0000
vt 0.6667 1.0000 0.0000
vt 0.3333 1.0000 0.0000
vt -0.0000 1.0000 0.0000
vt 0.0000 0.3333 0.0000
vt 0.0000 0.0000 0.0000
vt 0.0000 0.6667 0.0000
vt 0.0000 1.0000 0.0000
vt 0.7500 0.4545 1.0000
vt 0.9500 0.4545 1.0000
vt 1.1500 0.4545 1.0000
vt 0.1500 0.4545 1.0000
vt 0.3500 0.4545 1.0000
vt 0.5500 0.4545 1.0000
vt 0.0245 0.6545 -0.2500
vt 0.5000 1.0000 -0.2500
vt 0.7939 0.0955 -0.2500
vt 0.2061 0.0955 -0.2500
vt 0.9755 0.6545 -0.2500
vt 0.9500 0.0000 1.0000
vt 0.9500 0.0909 1.0000
vt 0.7500 0.0909 1.0000
vt 0.7500 0.0000 1.0000
vt 0.9500 0.1818 1.0000
vt 0.7500 0.1818 1.0000
vt 0.9500 0.2727 1.0000
vt 0.7500 0.2727 1.0000
vt 0.9500 0.3636 1.0000
vt 0.7500 0.3636 1.0000
vt 1.1500 0.0000 1.0000
vt 1.1500 0.0909 1.0000
vt 1.1500 0.1818 1.0000
vt 1.1500 0.2727 1.0000
vt 1.1500 0.3636 1.0000
vt 0.3500 0.0909 1.0000
vt 0.1500 0.0909 1.0000
vt 0.1500 0.0000 1.0000
vt 0.3500 0.0000 1.0000
vt 0.3500 0.1818 1.0000
vt 0.1500 0.1818 1.0000
vt 0.3500 0.2727 1.0000
vt 0.1500 0.2727 1.0000
vt 0.3500 0.3636 1.0000
vt 0.1500 0.3636 1.0000
vt 0.5500 0.0000 1.0000
vt 0.5500 0.0909 1.0000
vt 0.5500 0.1818 1.0000
vt 0.5500 0.2727 1.0000
vt 0.5500 0.3636 1.0000
# 102 texture coords

g Tomato_step02
usemtl wire_225087143
s 1
f 1/1/1 2/2/2 3/3/3 4/4/4 
f 1/1/1 4/4/4 5/5/5 
s 8
f 6/6/6 7/7/7 1/8/8 5/9/9 
f 6/6/6 8/10/10 9/11/11 7/7/7 
f 8/10/10 10/12/12 11/13/13 9/11/11 
f 10/12/12 12/14/14 13/15/15 11/13/13 
f 12/14/14 14/16/16 15/17/17 13/15/15 
f 1/8/8 7/7/7 16/18/18 2/19/19 
f 9/11/11 17/20/20 16/18/18 7/7/7 
f 11/13/13 18/21/21 17/20/20 9/11/11 
f 13/15/15 19/22/22 18/21/21 11/13/13 
f 15/17/17 20/23/23 19/22/22 13/15/15 
f 16/24/18 21/25/24 3/26/25 2/27/19 
f 17/28/20 22/29/26 21/25/24 16/24/18 
f 18/30/21 23/31/27 22/29/26 17/28/20 
f 19/32/22 24/33/28 23/31/27 18/30/21 
f 20/34/23 25/35/29 24/33/28 19/32/22 
f 21/25/24 26/36/30 4/37/31 3/26/25 
f 22/29/26 27/38/32 26/36/30 21/25/24 
f 23/31/27 28/39/33 27/38/32 22/29/26 
f 24/33/28 29/40/34 28/39/33 23/31/27 
f 25/35/29 30/41/35 29/40/34 24/33/28 
f 4/37/31 26/36/30 6/6/6 5/9/9 
f 26/36/30 27/38/32 8/10/10 6/6/6 
f 27/38/32 28/39/33 10/12/12 8/10/10 
f 28/39/33 29/40/34 12/14/14 10/12/12 
f 29/40/34 30/41/35 14/16/16 12/14/14 
s 2
f 31/42/36 32/43/37 33/44/38 34/45/39 
f 32/43/37 31/42/36 35/46/40 36/47/41 
f 37/48/42 36/47/41 35/46/40 38/49/43 
f 34/45/39 39/50/44 40/51/45 31/42/36 
f 31/42/36 40/51/45 41/52/46 35/46/40 
f 35/46/40 41/52/46 42/53/47 38/49/43 
f 40/51/45 39/50/44 43/54/48 44/55/49 
f 40/51/45 44/55/49 45/56/50 41/52/46 
f 46/57/51 42/53/47 41/52/46 45/56/50 
s 4
f 47/46/52 48/58/53 49/59/54 50/47/55 
f 50/47/55 51/43/56 52/42/57 47/46/52 
f 52/42/57 51/43/56 53/44/58 54/45/59 
f 48/58/53 47/46/52 55/52/60 56/60/61 
f 47/46/52 52/42/57 57/51/62 55/52/60 
f 52/42/57 54/45/59 58/50/63 57/51/62 
f 59/61/64 56/60/61 55/52/60 60/56/65 
f 55/52/60 57/51/62 61/55/66 60/56/65 
f 62/54/67 61/55/66 57/51/62 58/50/63 
s 8
f 63/61/68 64/59/69 65/47/70 66/56/71 
f 32/47/72 36/43/72 51/55/72 50/56/72 
f 67/54/73 68/55/74 69/43/75 70/44/76 
s 16
f 67/61/77 70/59/78 71/47/79 72/56/80 
f 72/56/80 71/47/79 73/43/81 74/55/81 
f 58/55/82 42/43/83 46/44/84 62/54/85 
s 32
f 62/61/86 46/59/87 45/47/88 61/56/89 
f 45/47/88 44/43/90 60/55/91 61/56/89 
f 59/54/92 60/55/91 44/43/90 43/44/93 
s 64
f 56/56/94 59/61/95 43/59/96 39/47/97 
f 75/55/98 76/56/99 77/47/99 78/43/100 
f 63/54/101 75/55/98 78/43/100 64/44/102 
s off
f 64/44/103 78/43/103 34/43/103 33/44/103 
f 65/47/104 64/59/104 33/59/104 32/47/104 
f 66/56/105 65/47/105 32/47/105 50/56/105 
f 66/56/106 50/56/106 49/61/106 63/61/106 
f 63/54/107 49/54/107 48/55/107 75/55/107 
f 75/55/108 48/55/108 56/56/108 76/56/108 
f 77/47/109 76/56/109 56/56/109 39/47/109 
f 78/43/110 77/47/110 39/47/110 34/43/110 
f 70/59/111 37/59/111 38/47/111 71/47/111 
f 71/47/112 38/47/112 42/43/112 73/43/112 
f 73/43/113 42/43/113 58/55/113 74/55/113 
f 72/56/114 74/55/114 58/55/114 54/56/114 
f 67/61/115 72/56/115 54/56/115 53/61/115 
f 68/55/116 67/54/116 53/54/116 51/55/116 
f 68/55/117 51/55/117 36/43/117 69/43/117 
f 69/43/118 36/43/118 37/44/118 70/44/118 
s 8
f 79/16/119 80/62/120 81/63/121 82/17/122 
f 81/63/121 83/64/123 84/23/124 82/17/122 
f 83/65/123 85/66/125 86/35/126 84/34/124 
f 85/66/125 87/67/127 88/41/128 86/35/126 
f 88/41/128 87/67/127 80/62/120 79/16/119 
s 1
f 89/68/129 90/69/129 91/70/129 92/71/129 
f 90/69/129 93/72/129 91/70/129 
f 94/1/130 95/2/131 96/3/132 97/4/133 
f 94/1/130 97/4/133 98/5/134 
s 8
f 99/6/135 100/7/136 94/8/137 98/9/138 
f 99/6/135 101/10/139 102/11/140 100/7/136 
f 101/10/139 103/12/141 104/13/142 102/11/140 
f 103/12/141 105/14/143 106/15/144 104/13/142 
f 105/14/143 79/16/119 82/17/122 106/15/144 
f 89/73/145 107/74/146 108/75/147 90/76/148 
f 107/74/146 109/77/149 110/78/150 108/75/147 
f 109/77/149 111/79/151 112/80/152 110/78/150 
f 111/79/151 113/81/153 114/82/154 112/80/152 
f 113/81/153 81/63/121 80/62/120 114/82/154 
f 94/8/137 100/7/136 115/18/155 95/19/156 
f 102/11/140 116/20/157 115/18/155 100/7/136 
f 104/13/142 117/21/158 116/20/157 102/11/140 
f 106/15/144 118/22/159 117/21/158 104/13/142 
f 82/17/122 84/23/124 118/22/159 106/15/144 
f 107/74/146 89/73/145 92/83/160 119/84/161 
f 120/85/162 109/77/149 107/74/146 119/84/161 
f 121/86/163 111/79/151 109/77/149 120/85/162 
f 122/87/164 113/81/153 111/79/151 121/86/163 
f 83/64/123 81/63/121 113/81/153 122/87/164 
f 115/24/155 123/25/165 96/26/166 95/27/156 
f 116/28/157 124/29/167 123/25/165 115/24/155 
f 117/30/158 125/31/168 124/29/167 116/28/157 
f 118/32/159 126/33/169 125/31/168 117/30/158 
f 84/34/124 86/35/126 126/33/169 118/32/159 
f 127/88/170 119/89/161 92/90/160 91/91/171 
f 128/92/172 120/93/162 119/89/161 127/88/170 
f 129/94/173 121/95/163 120/93/162 128/92/172 
f 130/96/174 122/97/164 121/95/163 129/94/173 
f 85/66/125 83/65/123 122/97/164 130/96/174 
f 123/25/165 131/36/175 97/37/176 96/26/166 
f 124/29/167 132/38/177 131/36/175 123/25/165 
f 125/31/168 133/39/178 132/38/177 124/29/167 
f 126/33/169 134/40/179 133/39/178 125/31/168 
f 86/35/126 88/41/128 134/40/179 126/33/169 
f 127/88/170 91/91/171 93/98/180 135/99/181 
f 136/100/182 128/92/172 127/88/170 135/99/181 
f 137/101/183 129/94/173 128/92/172 136/100/182 
f 138/102/184 130/96/174 129/94/173 137/101/183 
f 87/67/127 85/66/125 130/96/174 138/102/184 
f 97/37/176 131/36/175 99/6/135 98/9/138 
f 131/36/175 132/38/177 101/10/139 99/6/135 
f 132/38/177 133/39/178 103/12/141 101/10/139 
f 133/39/178 134/40/179 105/14/143 103/12/141 
f 134/40/179 88/41/128 79/16/119 105/14/143 
f 90/76/148 108/75/147 135/99/181 93/98/180 
f 108/75/147 110/78/150 136/100/182 135/99/181 
f 110/78/150 112/80/152 137/101/183 136/100/182 
f 112/80/152 114/82/154 138/102/184 137/101/183 
f 114/82/154 80/62/120 87/67/127 138/102/184 
s 2
f 139/42/185 140/43/186 141/44/187 142/45/188 
f 140/43/186 139/42/185 143/46/189 144/47/190 
f 145/48/191 144/47/190 143/46/189 146/49/192 
f 142/45/188 147/50/193 148/51/194 139/42/185 
f 139/42/185 148/51/194 149/52/195 143/46/189 
f 143/46/189 149/52/195 150/53/196 146/49/192 
f 148/51/194 147/50/193 151/54/197 152/55/198 
f 148/51/194 152/55/198 153/56/199 149/52/195 
f 154/57/200 150/53/196 149/52/195 153/56/199 
s 4
f 155/46/201 156/58/202 157/59/203 158/47/204 
f 158/47/204 159/43/205 160/42/206 155/46/201 
f 160/42/206 159/43/205 161/44/207 162/45/208 
f 156/58/202 155/46/201 163/52/209 164/60/210 
f 155/46/201 160/42/206 165/51/211 163/52/209 
f 160/42/206 162/45/208 166/50/212 165/51/211 
f 167/61/213 164/60/210 163/52/209 168/56/214 
f 163/52/209 165/51/211 169/55/215 168/56/214 
f 170/54/216 169/55/215 165/51/211 166/50/212 
s 8
f 171/61/217 172/59/218 173/47/219 174/56/220 
f 140/47/221 144/43/221 159/55/221 158/56/221 
f 175/54/222 176/55/223 177/43/224 178/44/225 
s 16
f 175/61/226 178/59/227 179/47/228 180/56/229 
f 180/56/229 179/47/228 181/43/99 182/55/99 
f 166/55/230 150/43/231 154/44/232 170/54/233 
s 32
f 170/61/234 154/59/235 153/47/236 169/56/237 
f 153/47/236 152/43/238 168/55/239 169/56/237 
f 167/54/240 168/55/239 152/43/238 151/44/241 
s 64
f 164/56/242 167/61/243 151/59/244 147/47/245 
f 183/55/246 184/56/81 185/47/81 186/43/247 
f 171/54/248 183/55/246 186/43/247 172/44/249 
s off
f 172/44/250 186/43/250 142/43/250 141/44/250 
f 173/47/251 172/59/251 141/59/251 140/47/251 
f 174/56/252 173/47/252 140/47/252 158/56/252 
f 174/56/253 158/56/253 157/61/253 171/61/253 
f 171/54/254 157/54/254 156/55/254 183/55/254 
f 183/55/255 156/55/255 164/56/255 184/56/255 
f 185/47/256 184/56/256 164/56/256 147/47/256 
f 186/43/257 185/47/257 147/47/257 142/43/257 
f 178/59/258 145/59/258 146/47/258 179/47/258 
f 179/47/259 146/47/259 150/43/259 181/43/259 
f 181/43/260 150/43/260 166/55/260 182/55/260 
f 180/56/261 182/55/261 166/55/261 162/56/261 
f 175/61/262 180/56/262 162/56/262 161/61/262 
f 176/55/263 175/54/263 161/54/263 159/55/263 
f 176/55/264 159/55/264 144/43/264 177/43/264 
f 177/43/265 144/43/265 145/44/265 178/44/265 
# 175 polygons - 3 triangles

