# 3ds Max Wavefront OBJ Exporter v0.97b - (c)2007 guruware
# File Created: 27.04.2018 18:36:07

mtllib Barrier.mtl

#
# object Barrier
#

v  4.9436 -0.0285 -0.5523
v  4.4991 -0.0285 -0.3382
v  4.4991 2.0461 -0.3382
v  4.9436 2.0461 -0.5523
v  4.3893 -0.0285 0.1428
v  4.3893 2.0461 0.1428
v  4.6969 -0.0285 0.5285
v  4.6969 2.0461 0.5285
v  5.1902 -0.0285 0.5285
v  5.1902 2.0461 0.5285
v  5.4978 -0.0285 0.1428
v  5.4978 2.0461 0.1428
v  5.3881 -0.0285 -0.3382
v  5.3881 2.0461 -0.3382
v  4.9436 3.9645 -0.5523
v  4.4991 3.9645 -0.3382
v  4.3893 3.9645 0.1428
v  4.6969 3.9645 0.5285
v  5.1902 3.9645 0.5285
v  5.4978 3.9645 0.1428
v  5.3881 3.9645 -0.3382
v  4.4991 2.4517 -0.3382
v  4.9436 2.4358 -0.5523
v  4.3893 2.4517 0.1428
v  4.6969 2.4517 0.5285
v  5.1902 2.4358 0.5285
v  5.4978 2.4358 0.1428
v  5.3881 2.4358 -0.3382
v  -4.9686 -0.0285 -0.5523
v  -5.4130 -0.0285 -0.3382
v  -5.4130 2.0497 -0.3382
v  -4.9686 2.0497 -0.5523
v  -5.5228 -0.0285 0.1428
v  -5.5228 2.0497 0.1428
v  -5.2152 -0.0285 0.5285
v  -5.2152 2.0497 0.5285
v  -4.7219 -0.0285 0.5285
v  -4.7219 2.0497 0.5285
v  -4.4143 -0.0285 0.1428
v  -4.4143 2.0497 0.1428
v  -4.5241 -0.0285 -0.3382
v  -4.5241 2.0497 -0.3382
v  -4.9686 3.9645 -0.5523
v  -5.4130 3.9645 -0.3382
v  -5.5228 3.9645 0.1428
v  -5.2152 3.9645 0.5285
v  -4.7219 3.9645 0.5285
v  -4.4143 3.9645 0.1428
v  -4.5241 3.9645 -0.3382
v  -5.4130 2.8286 -0.3382
v  -4.9686 2.8286 -0.5523
v  -5.5228 2.8286 0.1428
v  -5.2152 2.8286 0.5285
v  -4.7219 2.8286 0.5285
v  -4.4143 2.8286 0.1428
v  -4.5241 2.8286 -0.3382
# 56 vertices

vn -0.0000 0.0000 -1.0000
vn -0.7818 0.0000 -0.6235
vn -0.6731 -0.0000 -0.7395
vn -0.0000 -0.0000 -1.0000
vn -0.9749 0.0000 0.2225
vn -0.4339 0.0000 0.9010
vn -0.2856 0.0000 0.9583
vn 0.4339 0.0000 0.9010
vn 0.9749 0.0000 0.2225
vn 0.7818 0.0000 -0.6235
vn 0.0000 -1.0000 -0.0000
vn 0.0000 1.0000 -0.0000
vn 0.2856 0.0000 0.9583
vn 0.6731 0.0000 -0.7395
vn 0.0413 0.9991 -0.0000
vn 0.0000 0.0000 1.0000
vn -0.0004 -1.0000 0.0000
vn -0.0004 -1.0000 -0.0000
vn 0.0423 0.9991 0.0000
# 19 vertex normals

vt 0.2712 0.4001 -0.0292
vt 0.3214 0.4001 -0.0292
vt 0.3214 0.6113 -0.0292
vt 0.2712 0.6113 -0.0292
vt 0.3717 0.4001 0.0292
vt 0.3717 0.6113 -0.0292
vt 0.0200 0.4001 0.0292
vt 0.0703 0.4001 -0.0292
vt 0.0702 0.6113 -0.0292
vt 0.0200 0.6113 -0.0292
vt 0.1205 0.4001 -0.0292
vt 0.1205 0.6113 -0.0292
vt 0.1707 0.4001 -0.0292
vt 0.1707 0.6113 -0.0292
vt 0.2210 0.4001 -0.0292
vt 0.2210 0.6113 -0.0292
vt 0.8563 0.4909 0.0020
vt 0.8102 0.5110 0.0020
vt 0.7658 0.4875 0.0020
vt 0.7565 0.4381 -0.0020
vt 0.7892 0.4001 0.0020
vt 0.8395 0.4019 0.0020
vt 0.8693 0.4424 -0.0020
vt 0.1328 0.8961 0.0020
vt 0.1000 0.9342 -0.0020
vt 0.0498 0.9323 -0.0020
vt 0.0200 0.8919 0.0020
vt 0.0330 0.8433 -0.0020
vt 0.0791 0.8232 -0.0020
vt 0.1235 0.8467 -0.0020
vt 0.3214 0.6526 -0.0292
vt 0.3215 0.8067 -0.0292
vt 0.2712 0.8067 -0.0292
vt 0.2712 0.6510 -0.0292
vt 0.3717 0.6526 -0.0292
vt 0.3717 0.8067 -0.0292
vt 0.0702 0.6526 -0.0292
vt 0.0702 0.8067 -0.0292
vt 0.0200 0.8067 -0.0292
vt 0.0200 0.6526 -0.0292
vt 0.1205 0.6510 -0.0292
vt 0.1205 0.8067 -0.0292
vt 0.1707 0.6510 -0.0292
vt 0.1707 0.8067 -0.0292
vt 0.2210 0.6510 -0.0292
vt 0.2210 0.8067 -0.0292
vt 0.6394 0.4001 -0.0253
vt 0.6897 0.4001 -0.0253
vt 0.6897 0.6117 -0.0253
vt 0.6394 0.6117 -0.0253
vt 0.7399 0.4001 0.0253
vt 0.7399 0.6117 -0.0253
vt 0.3882 0.4001 0.0253
vt 0.4385 0.4001 -0.0253
vt 0.4385 0.6117 -0.0253
vt 0.3882 0.6117 -0.0253
vt 0.4887 0.4001 -0.0253
vt 0.4887 0.6117 -0.0253
vt 0.5390 0.4001 -0.0253
vt 0.5390 0.6117 -0.0253
vt 0.5892 0.4001 -0.0253
vt 0.5892 0.6117 -0.0253
vt 0.4881 0.9141 0.0020
vt 0.4420 0.9342 0.0020
vt 0.3976 0.9107 0.0020
vt 0.3882 0.8613 -0.0020
vt 0.4210 0.8232 0.0020
vt 0.4712 0.8251 0.0020
vt 0.5011 0.8655 -0.0020
vt 0.2622 0.8961 0.0020
vt 0.2294 0.9342 -0.0020
vt 0.1792 0.9323 -0.0020
vt 0.1494 0.8919 0.0020
vt 0.1624 0.8433 -0.0020
vt 0.2084 0.8232 -0.0020
vt 0.2528 0.8467 -0.0020
vt 0.6897 0.6910 -0.0253
vt 0.6897 0.8067 -0.0253
vt 0.6394 0.8067 -0.0253
vt 0.6394 0.6910 -0.0253
vt 0.7399 0.6910 -0.0253
vt 0.7399 0.8067 -0.0253
vt 0.4385 0.6910 -0.0253
vt 0.4385 0.8067 -0.0253
vt 0.3882 0.8067 -0.0253
vt 0.3882 0.6910 -0.0253
vt 0.4887 0.6910 -0.0253
vt 0.4887 0.8067 -0.0253
vt 0.5390 0.6910 -0.0253
vt 0.5390 0.8067 -0.0253
vt 0.5892 0.6910 -0.0253
vt 0.5892 0.8067 -0.0253
vt 0.9431 0.1958 0.0432
vt 0.9773 0.2327 0.0432
vt 0.0200 0.3041 -0.0432
vt 0.0483 0.2625 0.0432
vt 0.9800 0.3120 0.0432
vt 0.0214 0.3453 0.0432
vt 0.9501 0.3523 0.0432
vt 0.0541 0.3835 0.0432
vt 0.9247 0.0200 0.0432
vt 0.9414 0.0674 0.0432
vt 0.0287 0.1735 0.0432
vt 0.0342 0.1236 0.0432
vt 0.9506 0.1461 -0.0432
vt 0.0335 0.2145 0.0432
# 106 texture coords

g Barrier
usemtl Material__36
s 8
f 1/1/1 2/2/2 3/3/3 4/4/4 
f 2/2/2 5/5/5 6/6/5 3/3/3 
f 5/7/5 7/8/6 8/9/7 6/10/5 
f 7/8/6 9/11/8 10/12/8 8/9/7 
f 9/11/8 11/13/9 12/14/9 10/12/8 
f 11/13/9 13/15/10 14/16/10 12/14/9 
f 13/15/10 1/1/1 4/4/4 14/16/10 
s 1
f 13/17/11 11/18/11 9/19/11 7/20/11 5/21/11 2/22/11 1/23/11 
f 15/24/12 16/25/12 17/26/12 18/27/12 19/28/12 20/29/12 21/30/12 
s 8
f 22/31/3 16/32/2 15/33/1 23/34/1 
f 24/35/5 17/36/5 16/32/2 22/31/3 
f 25/37/7 18/38/6 17/39/5 24/40/5 
f 26/41/8 19/42/8 18/38/6 25/37/7 
f 27/43/9 20/44/9 19/42/8 26/41/8 
f 28/45/10 21/46/10 20/44/9 27/43/9 
f 23/34/1 15/33/1 21/46/10 28/45/10 
f 3/3/3 22/31/3 23/34/1 4/4/4 
f 10/12/8 26/41/8 25/37/7 8/9/7 
f 12/14/9 27/43/9 26/41/8 10/12/8 
f 14/16/10 28/45/10 27/43/9 12/14/9 
f 4/4/4 23/34/1 28/45/10 14/16/10 
f 29/47/1 30/48/2 31/49/2 32/50/1 
f 30/48/2 33/51/5 34/52/5 31/49/2 
f 33/53/5 35/54/6 36/55/6 34/56/5 
f 35/54/6 37/57/8 38/58/13 36/55/6 
f 37/57/8 39/59/9 40/60/9 38/58/13 
f 39/59/9 41/61/10 42/62/14 40/60/9 
f 41/61/10 29/47/1 32/50/1 42/62/14 
s 1
f 41/63/11 39/64/11 37/65/11 35/66/11 33/67/11 30/68/11 29/69/11 
f 43/70/12 44/71/12 45/72/12 46/73/12 47/74/12 48/75/12 49/76/12 
s 8
f 50/77/2 44/78/2 43/79/1 51/80/1 
f 52/81/5 45/82/5 44/78/2 50/77/2 
f 53/83/6 46/84/6 45/85/5 52/86/5 
f 54/87/13 47/88/8 46/84/6 53/83/6 
f 55/89/9 48/90/9 47/88/8 54/87/13 
f 56/91/14 49/92/10 48/90/9 55/89/9 
f 51/80/1 43/79/1 49/92/10 56/91/14 
f 31/49/2 50/77/2 51/80/1 32/50/1 
f 34/52/5 52/81/5 50/77/2 31/49/2 
f 36/55/6 53/83/6 52/86/5 34/56/5 
f 38/58/13 54/87/13 53/83/6 36/55/6 
f 32/50/1 51/80/1 56/91/14 42/62/14 
s off
f 55/93/15 54/94/15 25/95/15 24/96/15 
f 54/94/16 38/97/16 8/98/16 25/95/16 
f 38/97/17 40/99/17 6/100/17 8/98/17 
f 40/101/18 42/102/18 3/103/18 6/104/18 
f 42/102/4 56/105/4 22/106/4 3/103/4 
f 56/105/19 55/93/19 24/96/19 22/106/19 
# 48 polygons

