# 3ds Max Wavefront OBJ Exporter v0.97b - (c)2007 guruware
# File Created: 27.04.2018 19:24:45

mtllib BasicFlower.mtl

#
# object BasicFlower
#

v  0.2734 0.4924 -0.7332
v  0.2684 0.5148 -0.7776
v  0.2384 0.5765 -0.8819
v  0.1947 0.5364 -0.7450
v  0.1410 0.5860 -0.7967
v  0.1091 0.5832 -0.7553
v  0.0351 0.4900 -0.4674
v  0.1040 0.4506 -0.4551
v  0.1657 0.4153 -0.4442
v  -0.1921 0.1300 -0.0171
v  -0.1527 0.1080 -0.0112
v  -0.1218 0.0907 -0.0066
v  -0.1850 0.1706 0.0303
v  -0.1424 0.1519 0.0696
v  0.0458 0.5717 -0.0685
v  0.0054 0.5925 -0.1090
v  -0.1098 0.1082 0.0426
v  0.0751 0.5246 -0.0937
v  -0.1323 0.0998 -0.0133
v  0.0527 0.5163 -0.1496
v  -0.1787 0.1384 -0.0210
v  0.0096 0.5582 -0.1591
v  0.5895 1.0478 -0.4110
v  0.6254 1.0236 -0.3682
v  0.6472 0.9709 -0.3895
v  0.6248 0.9625 -0.4455
v  0.5891 1.0100 -0.4587
v  0.2858 0.8506 -0.2063
v  0.2499 0.8748 -0.2491
v  0.3076 0.7979 -0.2276
v  0.2851 0.7895 -0.2836
v  0.2495 0.8370 -0.2969
v  -0.1568 0.8752 0.6087
v  -0.1418 0.8930 0.6531
v  -0.0899 0.9240 0.7623
v  -0.0826 0.8351 0.6427
v  -0.0217 0.8279 0.7080
v  -0.0025 0.7902 0.6772
v  -0.0034 0.6135 0.4206
v  -0.0688 0.6478 0.3891
v  -0.1273 0.6785 0.3608
v  -0.1355 0.1363 0.0482
v  -0.1726 0.1564 0.0312
v  -0.2017 0.1722 0.0179
v  0.3886 0.9665 0.3221
v  0.4383 0.9846 0.3423
v  0.5706 1.0120 0.3830
v  0.4691 0.9068 0.2989
v  0.5684 0.8880 0.3047
v  0.5540 0.8405 0.2723
v  0.3250 0.6342 0.1019
v  0.2526 0.6855 0.1213
v  0.1878 0.7314 0.1387
v  -0.1391 0.1195 -0.0016
v  -0.1793 0.1494 0.0100
v  -0.2109 0.1729 0.0191
v  0.4497 0.7924 -0.4450
v  0.4884 0.7667 -0.3345
v  0.4170 0.8946 -0.3250
v  0.3816 0.8814 -0.4737
v  0.5324 0.8232 -0.2384
v  0.4933 0.9231 -0.1949
v  0.4570 1.0241 -0.2382
v  0.3865 1.0378 -0.3342
v  0.3742 0.9932 -0.4447
v  0.5405 0.8266 -0.4864
v  0.5042 0.9276 -0.5297
v  0.5804 0.9561 -0.3996
v  0.6109 0.8128 -0.3905
v  0.4650 1.0274 -0.4862
v  0.5090 1.0840 -0.3901
v  0.5477 1.0583 -0.2797
v  0.6158 0.9692 -0.2509
v  0.6232 0.8574 -0.2799
v  0.4243 0.8975 -0.5482
v  0.4938 0.7689 -0.5019
v  0.3919 1.0401 -0.5016
v  0.4308 1.1061 -0.3621
v  0.5036 1.0817 -0.2227
v  0.5732 0.9531 -0.1764
v  0.6055 0.8106 -0.2230
v  0.5667 0.7446 -0.3625
v  0.9616 0.9739 -0.2578
v  0.7877 0.8495 -0.2300
v  0.6627 1.1821 -0.2296
v  0.8920 1.1924 -0.2626
v  0.5607 0.8607 -0.3111
v  0.4992 1.0242 -0.3109
v  0.7711 1.3294 -0.3977
v  0.6310 1.2173 -0.2701
v  0.5001 1.1685 -0.5968
v  0.6737 1.2931 -0.6410
v  0.5142 1.0061 -0.2930
v  0.4519 0.9828 -0.4486
v  0.6803 1.1189 -0.7699
v  0.4994 1.1211 -0.6375
v  0.6244 0.7885 -0.6378
v  0.7590 0.9097 -0.7702
v  0.4575 0.9899 -0.4306
v  0.5065 0.8593 -0.4308
v  0.8771 0.7771 -0.6207
v  0.6562 0.7533 -0.5973
v  0.7870 0.8021 -0.2706
v  0.9615 0.8086 -0.4101
v  0.4927 0.8591 -0.4612
v  0.5650 0.8861 -0.2807
v  0.6407 1.2519 -0.5604
v  0.5212 1.0814 -0.3594
v  0.5184 0.8994 -0.5155
v  0.6379 1.0699 -0.7165
v  0.6848 0.9384 -0.7222
v  0.4900 0.9789 -0.5120
v  0.6114 0.8281 -0.3704
v  0.8062 0.7876 -0.5807
v  0.8765 0.8053 -0.4121
v  0.5880 0.8222 -0.4268
v  0.5907 1.0043 -0.2707
v  0.8793 0.9873 -0.2560
v  0.8324 1.1188 -0.2503
v  0.6191 0.9247 -0.2741
v  0.4977 1.0755 -0.4157
v  0.7110 1.2696 -0.3918
v  0.8132 0.9619 -0.3250
v  0.6330 0.8942 -0.3654
v  0.5757 1.0468 -0.3652
v  0.7559 1.1145 -0.3248
v  0.7519 0.8561 -0.5464
v  0.5736 0.9095 -0.4830
v  0.6336 0.9319 -0.3331
v  0.8119 0.8785 -0.3966
v  0.6999 1.1765 -0.3962
v  0.6009 1.0188 -0.3330
v  0.5409 0.9964 -0.4829
v  0.6399 1.1541 -0.5461
v  0.6386 1.0707 -0.6176
v  0.5415 1.0340 -0.4506
v  0.5988 0.8815 -0.4508
v  0.6959 0.9182 -0.6178
v  0.9323 0.7846 -0.1760
v  0.9779 0.8118 -0.2273
v  1.0682 0.8801 -0.3723
v  0.8747 0.8107 -0.2942
v  0.8844 0.8540 -0.4185
v  0.8090 0.8376 -0.4203
v  0.4183 0.6872 -0.2318
v  0.4666 0.6632 -0.1264
v  0.5099 0.6418 -0.0321
v  -0.2363 0.1015 0.0187
v  -0.2074 0.0884 0.0779
v  -0.1847 0.0782 0.1242
v  -0.2972 0.1639 0.0500
v  -0.3073 0.1585 0.1390
v  -0.0778 0.8255 0.0769
v  -0.0651 0.8347 -0.0114
v  -0.2390 0.1103 0.1718
v  -0.0137 0.7713 0.1087
v  -0.1868 0.0859 0.1030
v  0.0385 0.7469 0.0400
v  -0.2227 0.1191 0.0278
v  0.0068 0.7861 -0.0343
v  0.6727 1.7206 0.2355
v  0.6541 1.7047 0.3218
v  0.7087 1.6394 0.3503
v  0.7610 1.6151 0.2815
v  0.7387 1.6652 0.2106
v  0.2224 1.3177 0.1307
v  0.2409 1.3336 0.0444
v  0.2770 1.2524 0.1592
v  0.3293 1.2281 0.0905
v  0.3070 1.2782 0.0195
v  -1.1312 1.1929 0.2805
v  -1.1772 1.2266 0.3274
v  -1.2759 1.2984 0.4651
v  -1.1050 1.1712 0.4102
v  -1.1346 1.1914 0.5372
v  -1.0737 1.1456 0.5491
v  -0.7234 0.8851 0.4065
v  -0.7443 0.9026 0.2913
v  -0.7629 0.9182 0.1882
v  -0.2722 0.1386 0.1356
v  -0.2854 0.1495 0.0706
v  -0.2957 0.1580 0.0198
v  -0.3656 1.5511 0.6392
v  -0.3546 1.5997 0.7061
v  -0.3047 1.6992 0.8819
v  -0.2604 1.5021 0.7367
v  -0.1843 1.5203 0.8638
v  -0.1461 1.4458 0.8393
v  -0.0768 1.0458 0.5155
v  -0.1691 1.0864 0.4275
v  -0.2517 1.1228 0.3487
v  -0.2107 0.1111 0.0970
v  -0.2634 0.1357 0.0482
v  -0.3046 0.1550 0.0100
v  0.6570 1.2980 0.1467
v  0.5584 1.2844 0.2926
v  0.4627 1.4325 0.1673
v  0.6189 1.3913 0.0090
v  0.4641 1.3880 0.4004
v  0.3585 1.5127 0.3514
v  0.3609 1.6363 0.2338
v  0.4191 1.6196 0.0678
v  0.5538 1.5463 -0.0198
v  0.7728 1.3846 0.2040
v  0.7752 1.5082 0.0864
v  0.6710 1.5883 0.2705
v  0.7147 1.4013 0.3700
v  0.6696 1.6329 0.0375
v  0.5753 1.7365 0.1452
v  0.4767 1.7228 0.2911
v  0.5148 1.6296 0.4288
v  0.5799 1.4746 0.4577
v  0.7405 1.4295 -0.0094
v  0.7667 1.2821 0.1601
v  0.6274 1.6173 -0.0647
v  0.4740 1.7339 0.0690
v  0.3670 1.7388 0.2777
v  0.3933 1.5914 0.4472
v  0.5063 1.4036 0.5025
v  0.6597 1.2870 0.3688
v  0.7980 1.7903 0.8212
v  0.6518 1.5392 0.6922
v  0.4809 1.9504 0.4165
v  0.7018 2.0657 0.6503
v  0.5675 1.4498 0.3583
v  0.4834 1.6519 0.2227
v  0.7413 2.1978 0.3451
v  0.4975 1.9838 0.3324
v  0.8027 1.8415 -0.0689
v  0.9685 2.0919 0.0463
v  0.4773 1.6340 0.2621
v  0.6227 1.5662 0.0709
v  1.1684 1.8442 0.0166
v  0.8618 1.7728 -0.0844
v  1.0327 1.3616 0.1914
v  1.2759 1.5856 0.1901
v  0.6037 1.5794 0.0894
v  0.6708 1.4181 0.1976
v  1.2157 1.4592 0.5023
v  1.0160 1.3282 0.2754
v  0.7109 1.4705 0.6767
v  1.0190 1.5509 0.7610
v  0.6969 1.4102 0.1567
v  0.5283 1.4888 0.3784
v  0.8524 2.0231 0.0908
v  0.5480 1.7398 0.1856
v  0.7752 1.4756 0.1257
v  1.0796 1.7590 0.0309
v  1.1520 1.5950 0.1324
v  0.7314 1.5748 0.0644
v  0.6874 1.4240 0.3810
v  1.1080 1.4441 0.4491
v  0.9545 1.5082 0.6623
v  0.7387 1.4025 0.3098
v  0.5115 1.6667 0.3697
v  0.7273 1.7724 0.7221
v  0.6549 1.9364 0.6207
v  0.5553 1.5675 0.4310
v  0.5993 1.7183 0.1144
v  0.6989 2.0873 0.3040
v  0.7642 1.7040 0.5989
v  0.6843 1.5266 0.3840
v  0.6059 1.7152 0.2575
v  0.6858 1.8926 0.4724
v  1.0083 1.5177 0.3875
v  0.7773 1.5160 0.2124
v  0.6373 1.5812 0.3964
v  0.8684 1.5829 0.5715
v  0.7152 1.9514 0.3243
v  0.5927 1.6887 0.3243
v  0.7326 1.6234 0.1403
v  0.8552 1.8861 0.1403
v  0.9593 1.7651 0.1129
v  0.6857 1.6780 0.1527
v  0.7640 1.4894 0.2792
v  1.0377 1.5765 0.2394
# 276 vertices

vn 0.4092 0.8321 0.3745
vn 0.3486 0.7741 0.5285
vn 0.3449 0.7700 0.5369
vn 0.3464 0.7715 0.5337
vn 0.2759 0.6772 0.6821
vn 0.2760 0.6767 0.6825
vn 0.2761 0.6763 0.6830
vn -0.8423 0.4674 0.2683
vn 0.1861 0.2318 0.9548
vn 0.0575 0.3298 0.9423
vn -0.7727 0.5954 0.2202
vn 0.9128 -0.3251 0.2472
vn 0.8472 -0.3730 0.3783
vn 0.5307 -0.4671 -0.7072
vn 0.3984 -0.5409 -0.7407
vn -0.5338 -0.0376 -0.8448
vn -0.6294 0.0741 -0.7735
vn -0.6313 -0.6891 0.3558
vn 0.7864 0.4815 -0.3869
vn 0.1251 0.4223 0.8978
vn 0.2283 0.3875 0.8931
vn -0.4378 0.8981 0.0412
vn -0.5735 0.8120 0.1080
vn 0.6856 -0.5444 0.4832
vn 0.5699 -0.6564 0.4943
vn 0.2282 -0.7151 -0.6607
vn 0.1470 -0.8142 -0.5617
vn -0.5602 0.1670 -0.8113
vn -0.4778 0.1241 -0.8697
vn 0.5767 0.6720 -0.4646
vn 0.5766 0.6720 -0.4646
vn 0.5793 0.5560 -0.5960
vn 0.5788 0.5488 -0.6031
vn 0.5790 0.5516 -0.6005
vn 0.5543 0.4103 -0.7241
vn 0.5539 0.4100 -0.7246
vn 0.5535 0.4097 -0.7251
vn 0.1487 0.5262 -0.8372
vn 0.0442 0.4071 -0.9123
vn 0.0380 0.3999 -0.9157
vn 0.0403 0.4027 -0.9144
vn -0.0806 0.2646 -0.9610
vn -0.0813 0.2644 -0.9610
vn -0.0819 0.2641 -0.9610
vn -0.7247 -0.6858 -0.0662
vn -0.5038 -0.7953 0.3372
vn -0.8606 -0.3239 0.3931
vn -0.9086 -0.3734 -0.1869
vn -0.3865 -0.6364 0.6676
vn -0.5189 -0.1638 0.8390
vn -0.6862 0.1548 0.7107
vn -0.9139 0.2618 0.3103
vn -0.9924 0.1174 -0.0378
vn 0.7252 -0.1987 -0.6593
vn 0.5025 0.2081 -0.8392
vn 0.8606 0.3239 -0.3931
vn 0.8973 -0.2678 -0.3508
vn 0.3861 0.5783 -0.7187
vn 0.5199 0.8011 -0.2965
vn 0.6842 0.7292 0.0155
vn 0.9255 0.3294 0.1870
vn 0.9944 -0.0588 0.0881
vn -0.3683 -0.1374 -0.9195
vn -0.0083 -0.7648 -0.6443
vn -0.5077 0.5723 -0.6440
vn -0.3518 0.9361 0.0010
vn 0.0056 0.7637 0.6455
vn 0.3683 0.1374 0.9195
vn 0.5104 -0.5712 0.6428
vn 0.3518 -0.9361 -0.0010
vn -0.1169 -0.0589 -0.9914
vn 0.0969 0.0332 -0.9947
vn 0.0958 0.0371 -0.9947
vn -0.1324 -0.0540 -0.9897
vn 0.3394 0.1286 -0.9318
vn 0.5626 -0.8203 -0.1027
vn 0.7222 -0.6651 -0.1899
vn 0.7198 -0.6682 -0.1884
vn 0.8536 -0.4418 -0.2759
vn 0.5785 0.2165 0.7864
vn 0.7370 0.2763 0.6169
vn 0.8654 0.3248 0.3815
vn -0.1171 0.9880 -0.1007
vn 0.1157 0.9746 -0.1920
vn 0.3511 0.8952 -0.2744
vn 0.9107 -0.2768 0.3065
vn 0.5395 0.7649 0.3521
vn 0.0765 0.6484 -0.7575
vn 0.4477 -0.3933 -0.8030
vn 0.1919 0.0732 -0.9787
vn 0.2054 0.9526 -0.2246
vn 0.7818 -0.5810 -0.2263
vn 0.7953 0.2983 0.5278
vn -0.2091 0.9284 0.3072
vn -0.3611 0.8597 0.3613
vn -0.3695 0.8549 0.3642
vn -0.3663 0.8567 0.3632
vn -0.5137 0.7503 0.4160
vn -0.5140 0.7499 0.4165
vn -0.5143 0.7495 0.4170
vn -0.7454 0.1985 -0.6364
vn -0.7240 0.3074 0.6175
vn -0.7973 0.3615 0.4833
vn -0.6864 0.3400 -0.6429
vn 0.3358 -0.0253 0.9416
vn 0.1987 -0.0866 0.9762
vn 0.9405 -0.3066 0.1465
vn 0.9074 -0.4181 0.0437
vn 0.4167 -0.2244 -0.8809
vn 0.2898 -0.1447 -0.9461
vn -0.5368 -0.8363 -0.1116
vn 0.6764 0.6846 0.2717
vn -0.7372 0.4686 0.4867
vn -0.6725 0.4667 0.5744
vn -0.4006 0.7241 -0.5614
vn -0.5170 0.6031 -0.6075
vn 0.0491 -0.2955 0.9541
vn -0.0066 -0.4368 0.8995
vn 0.7741 -0.6330 0.0016
vn 0.6625 -0.7488 0.0197
vn 0.3451 -0.0364 -0.9378
vn 0.4443 -0.0541 -0.8942
vn 0.5999 0.8000 0.0126
vn 0.5999 0.8000 0.0125
vn 0.7270 0.6861 -0.0277
vn 0.7336 0.6789 -0.0301
vn 0.7311 0.6817 -0.0293
vn 0.8406 0.5357 -0.0798
vn 0.8408 0.5353 -0.0803
vn 0.8411 0.5349 -0.0808
vn 0.6982 0.5197 -0.4924
vn 0.7211 0.3722 -0.5844
vn 0.7216 0.3634 -0.5892
vn 0.7214 0.3667 -0.5875
vn 0.7145 0.1971 -0.6713
vn 0.7142 0.1967 -0.6718
vn 0.7139 0.1962 -0.6722
vn -0.2381 -0.8749 -0.4217
vn -0.4370 -0.8994 0.0065
vn -0.7444 -0.5567 -0.3687
vn -0.2826 -0.6369 -0.7173
vn -0.6703 -0.7020 0.2406
vn -0.9522 -0.2866 0.1057
vn -0.9824 -0.0379 -0.1828
vn -0.7892 -0.0177 -0.6138
vn -0.5224 -0.1900 -0.8313
vn 0.9672 0.0094 0.2538
vn 0.9371 0.3237 -0.1306
vn 0.7444 0.5567 0.3687
vn 0.8147 0.0057 0.5798
vn 0.7208 0.6450 -0.2538
vn 0.4112 0.9111 0.0273
vn 0.2519 0.9023 0.3499
vn 0.2981 0.6000 0.7424
vn 0.4733 0.2481 0.8452
vn 0.5826 -0.2717 -0.7660
vn 0.6398 -0.7514 -0.1615
vn 0.1765 0.3708 -0.9118
vn -0.3263 0.7850 -0.5265
vn -0.6422 0.7496 0.1603
vn -0.5826 0.2717 0.7660
vn -0.1741 -0.3690 0.9130
vn 0.3263 -0.7850 0.5265
vn 0.7668 -0.1230 -0.6300
vn 0.8719 0.0294 -0.4888
vn 0.8707 0.0328 -0.4907
vn 0.7563 -0.1230 -0.6426
vn 0.9371 0.1957 -0.2890
vn 0.5079 -0.6142 0.6040
vn 0.6440 -0.4207 0.6389
vn 0.6419 -0.4243 0.6386
vn 0.7541 -0.1710 0.6341
vn -0.3700 0.4065 0.8354
vn -0.1525 0.5060 0.8489
vn 0.1050 0.5837 0.8052
vn -0.1225 0.9024 -0.4132
vn 0.0809 0.9572 -0.2779
vn 0.2880 0.9503 -0.1180
vn 0.2785 0.0220 0.9602
vn -0.1104 0.9031 0.4149
vn 0.5754 0.6167 -0.5372
vn 0.9644 -0.2645 0.0080
vn 0.9042 0.0968 -0.4160
vn 0.1597 0.9624 -0.2198
vn 0.6943 -0.3237 0.6428
vn -0.0502 0.5418 0.8390
# 186 vertex normals

vt 0.4580 0.2305 0.0000
vt 0.4724 0.2511 0.0000
vt 0.5000 0.3072 0.0000
vt 0.4352 0.2700 0.0000
vt 0.4354 0.3148 0.0000
vt 0.4094 0.3118 0.0000
vt 0.2793 0.2257 0.0000
vt 0.2986 0.1904 0.0000
vt 0.3159 0.1588 0.0000
vt 0.0200 0.0552 0.0000
vt 0.0314 0.0355 0.0000
vt 0.0404 0.0200 0.0000
vt 0.1133 0.3454 -2.7403
vt 0.1444 0.3400 -2.7403
vt 0.1414 0.5818 -2.7403
vt 0.1119 0.5861 -2.7403
vt 0.1743 0.3313 2.7403
vt 0.1707 0.5744 -2.7403
vt 0.0227 0.3313 2.7403
vt 0.0537 0.3312 -2.7403
vt 0.0537 0.5738 -2.7403
vt 0.0234 0.5736 -2.7403
vt 0.0823 0.3398 -2.7403
vt 0.0824 0.5815 -2.7403
vt 0.0200 0.2730 -0.0521
vt 0.0294 0.2441 0.0521
vt 0.0599 0.2441 0.0521
vt 0.0693 0.2730 -0.0521
vt 0.0447 0.2910 0.0521
vt 0.1104 0.2441 -0.0521
vt 0.1350 0.2620 0.0521
vt 0.1256 0.2910 -0.0521
vt 0.0951 0.2910 -0.0521
vt 0.0857 0.2620 0.0521
vt 0.1417 0.7722 -2.7403
vt 0.1437 0.9782 -2.7403
vt 0.1121 0.9771 -2.7403
vt 0.1119 0.7741 -2.7403
vt 0.1718 0.7687 -2.7403
vt 0.1747 0.9799 -2.7403
vt 0.0520 0.7689 -2.7403
vt 0.0511 0.9800 -2.7403
vt 0.0200 0.9799 -2.7403
vt 0.0210 0.7686 -2.7403
vt 0.0822 0.7723 -2.7403
vt 0.0806 0.9782 -2.7403
vt 0.6304 0.5230 0.0000
vt 0.6304 0.5439 0.0000
vt 0.5303 0.5439 0.0000
vt 0.5293 0.5228 0.0000
vt 0.4177 0.5439 0.0000
vt 0.4177 0.5225 0.0000
vt 0.4177 0.4576 0.0000
vt 0.5261 0.4570 0.0000
vt 0.6304 0.4568 0.0000
vt 0.4177 0.3312 0.0000
vt 0.5201 0.3312 0.0000
vt 0.6304 0.3312 0.0000
vt 0.6962 0.5603 0.0000
vt 0.6962 0.6253 0.0000
vt 0.6311 0.6253 0.0000
vt 0.6311 0.5603 0.0000
vt 0.6962 0.6904 0.0000
vt 0.6311 0.6904 0.0000
vt 0.5661 0.6904 0.0000
vt 0.5661 0.6253 0.0000
vt 0.5661 0.5603 0.0000
vt 0.7951 0.3312 0.0000
vt 0.8602 0.3312 0.0000
vt 0.8602 0.3962 0.0000
vt 0.7951 0.3962 0.0000
vt 0.9253 0.3312 0.0000
vt 0.9253 0.3962 0.0000
vt 0.9253 0.4613 0.0000
vt 0.8602 0.4613 0.0000
vt 0.7951 0.4613 0.0000
vt 0.7126 0.5603 0.0000
vt 0.7641 0.5603 0.0000
vt 0.7641 0.6118 0.0000
vt 0.7126 0.6118 0.0000
vt 0.8157 0.5603 0.0000
vt 0.8157 0.6118 0.0000
vt 0.8157 0.6634 0.0000
vt 0.7641 0.6634 0.0000
vt 0.7126 0.6634 0.0000
vt 0.4177 0.8569 0.0000
vt 0.4698 0.8569 0.0000
vt 0.4698 0.9090 0.0000
vt 0.4177 0.9090 0.0000
vt 0.5219 0.8569 0.0000
vt 0.5219 0.9090 0.0000
vt 0.5219 0.9611 0.0000
vt 0.4698 0.9611 0.0000
vt 0.4177 0.9611 0.0000
vt 0.5661 0.7068 0.0000
vt 0.6176 0.7068 0.0000
vt 0.6176 0.7583 0.0000
vt 0.5661 0.7583 0.0000
vt 0.6692 0.7068 0.0000
vt 0.6692 0.7583 0.0000
vt 0.6692 0.8099 0.0000
vt 0.6176 0.8099 0.0000
vt 0.5661 0.8099 0.0000
vt 0.3327 0.0200 0.0000
vt 0.3848 0.0200 0.0000
vt 0.3848 0.0721 0.0000
vt 0.3327 0.0721 0.0000
vt 0.4369 0.0200 0.0000
vt 0.4369 0.0721 0.0000
vt 0.4369 0.1242 0.0000
vt 0.3848 0.1242 0.0000
vt 0.3327 0.1242 0.0000
vt 0.7917 0.2335 0.0000
vt 0.8030 0.1267 0.0000
vt 0.9800 0.1455 0.0000
vt 0.9687 0.2522 0.0000
vt 0.8598 0.0200 0.0000
vt 0.9468 0.0292 0.0000
vt 0.2393 0.5853 0.0000
vt 0.1949 0.4876 0.0000
vt 0.3570 0.4140 0.0000
vt 0.4014 0.5118 0.0000
vt 0.1910 0.3662 0.0000
vt 0.2682 0.3312 0.0000
vt 0.1982 0.8290 0.0000
vt 0.1910 0.7218 0.0000
vt 0.3686 0.7100 0.0000
vt 0.3758 0.8171 0.0000
vt 0.2375 0.6064 0.0000
vt 0.3072 0.6017 0.0000
vt 0.5164 0.1141 0.0000
vt 0.6041 0.0522 0.0000
vt 0.7067 0.1975 0.0000
vt 0.6191 0.2595 0.0000
vt 0.7186 0.0200 0.0000
vt 0.7753 0.1003 0.0000
vt 0.1910 0.9773 0.0000
vt 0.1910 0.8454 0.0000
vt 0.3230 0.8454 0.0000
vt 0.3230 0.9773 0.0000
vt 0.6468 0.4631 0.0000
vt 0.6468 0.3312 0.0000
vt 0.7788 0.3312 0.0000
vt 0.7788 0.4631 0.0000
vt 0.4177 0.6922 0.0000
vt 0.4177 0.5603 0.0000
vt 0.5497 0.5603 0.0000
vt 0.5497 0.6922 0.0000
vt 0.4177 0.8405 0.0000
vt 0.4177 0.7086 0.0000
vt 0.5497 0.7086 0.0000
vt 0.5497 0.8405 0.0000
vt 0.6856 0.7964 0.0000
vt 0.6856 0.7068 0.0000
vt 0.7752 0.7068 0.0000
vt 0.7752 0.7964 0.0000
vt 0.5661 0.9159 0.0000
vt 0.5661 0.8263 0.0000
vt 0.6557 0.8263 0.0000
vt 0.6557 0.9159 0.0000
vt 0.6856 0.9025 0.0000
vt 0.6856 0.8128 0.0000
vt 0.7752 0.8128 0.0000
vt 0.7752 0.9025 0.0000
vt 0.8321 0.6499 0.0000
vt 0.8321 0.5603 0.0000
vt 0.9217 0.5603 0.0000
vt 0.9217 0.6499 0.0000
# 168 texture coords

g BasicFlower
usemtl Material__40
s 1
f 1/1/1 2/2/1 3/3/1 4/4/1 
f 3/3/1 5/5/1 6/6/1 4/4/1 
f 6/6/1 7/7/2 8/8/3 4/4/1 
f 4/4/1 8/8/3 9/9/4 1/1/1 
f 7/7/2 10/10/5 11/11/6 8/8/3 
f 8/8/3 11/11/6 12/12/7 9/9/4 
s 8
f 13/13/8 14/14/9 15/15/10 16/16/11 
f 14/14/9 17/17/12 18/18/13 15/15/10 
f 17/19/12 19/20/14 20/21/15 18/22/13 
f 19/20/14 21/23/16 22/24/17 20/21/15 
f 21/23/16 13/13/8 16/16/11 22/24/17 
s 1
f 21/25/18 19/26/18 17/27/18 14/28/18 13/29/18 
f 23/30/19 24/31/19 25/32/19 26/33/19 27/34/19 
s 8
f 28/35/20 24/36/21 23/37/22 29/38/23 
f 30/39/24 25/40/25 24/36/21 28/35/20 
f 31/41/26 26/42/27 25/43/25 30/44/24 
f 32/45/28 27/46/29 26/42/27 31/41/26 
f 29/38/23 23/37/22 27/46/29 32/45/28 
f 15/15/10 28/35/20 29/38/23 16/16/11 
f 18/18/13 30/39/24 28/35/20 15/15/10 
f 20/21/15 31/41/26 30/44/24 18/22/13 
f 22/24/17 32/45/28 31/41/26 20/21/15 
f 16/16/11 29/38/23 32/45/28 22/24/17 
s 1
f 33/1/30 34/2/31 35/3/30 36/4/30 
f 35/3/30 37/5/30 38/6/30 36/4/30 
f 38/6/30 39/7/32 40/8/33 36/4/30 
f 36/4/30 40/8/33 41/9/34 33/1/30 
f 39/7/32 42/10/35 43/11/36 40/8/33 
f 40/8/33 43/11/36 44/12/37 41/9/34 
f 45/47/38 46/48/38 47/49/38 48/50/38 
f 47/49/38 49/51/38 50/52/38 48/50/38 
f 50/52/38 51/53/39 52/54/40 48/50/38 
f 48/50/38 52/54/40 53/55/41 45/47/38 
f 51/53/39 54/56/42 55/57/43 52/54/40 
f 52/54/40 55/57/43 56/58/44 53/55/41 
f 57/59/45 58/60/46 59/61/47 60/62/48 
f 58/60/46 61/63/49 62/64/50 59/61/47 
f 63/65/51 64/66/52 59/61/47 62/64/50 
f 64/66/52 65/67/53 60/62/48 59/61/47 
f 66/68/54 67/69/55 68/70/56 69/71/57 
f 67/69/55 70/72/58 71/73/59 68/70/56 
f 72/74/60 73/75/61 68/70/56 71/73/59 
f 73/75/61 74/76/62 69/71/57 68/70/56 
f 57/77/45 60/78/48 75/79/63 76/80/64 
f 60/78/48 65/81/53 77/82/65 75/79/63 
f 70/83/58 67/84/55 75/79/63 77/82/65 
f 67/84/55 66/85/54 76/80/64 75/79/63 
f 65/86/53 64/87/52 78/88/66 77/89/65 
f 64/87/52 63/90/51 79/91/67 78/88/66 
f 72/92/60 71/93/59 78/88/66 79/91/67 
f 71/93/59 70/94/58 77/89/65 78/88/66 
f 63/95/51 62/96/50 80/97/68 79/98/67 
f 62/96/50 61/99/49 81/100/69 80/97/68 
f 74/101/62 73/102/61 80/97/68 81/100/69 
f 73/102/61 72/103/60 79/98/67 80/97/68 
f 61/104/49 58/105/46 82/106/70 81/107/69 
f 58/105/46 57/108/45 76/109/64 82/106/70 
f 66/110/54 69/111/57 82/106/70 76/109/64 
f 69/111/57 74/112/62 81/107/69 82/106/70 
f 83/113/71 84/114/72 85/115/73 86/116/74 
f 84/114/72 87/117/75 88/118/75 85/115/73 
f 89/119/76 90/120/77 91/121/78 92/122/76 
f 90/120/77 93/123/79 94/124/79 91/121/78 
f 95/125/80 96/126/81 97/127/81 98/128/80 
f 96/126/81 99/129/82 100/130/82 97/127/81 
f 101/131/83 102/132/84 103/133/84 104/134/83 
f 102/132/84 105/135/85 106/136/85 103/133/84 
f 107/137/86 108/138/86 109/139/86 110/140/86 
f 111/141/87 112/142/87 113/143/87 114/144/87 
f 115/145/88 116/146/88 117/147/88 118/148/88 
f 119/149/89 120/150/89 121/151/89 122/152/89 
f 123/153/90 124/154/90 125/155/90 126/156/90 
f 127/157/91 128/158/91 129/159/91 130/160/91 
f 131/161/92 132/162/92 133/163/92 134/164/92 
f 135/165/93 136/166/93 137/167/93 138/168/93 
f 139/1/94 140/2/94 141/3/94 142/4/94 
f 141/3/94 143/5/94 144/6/94 142/4/94 
f 144/6/94 145/7/95 146/8/96 142/4/94 
f 142/4/94 146/8/96 147/9/97 139/1/94 
f 145/7/95 148/10/98 149/11/99 146/8/96 
f 146/8/96 149/11/99 150/12/100 147/9/97 
s 8
f 151/13/101 152/14/102 153/15/103 154/16/104 
f 152/14/102 155/17/105 156/18/106 153/15/103 
f 155/19/105 157/20/107 158/21/108 156/22/106 
f 157/20/107 159/23/109 160/24/110 158/21/108 
f 159/23/109 151/13/101 154/16/104 160/24/110 
s 1
f 159/25/111 157/26/111 155/27/111 152/28/111 151/29/111 
f 161/30/112 162/31/112 163/32/112 164/33/112 165/34/112 
s 8
f 166/35/113 162/36/114 161/37/115 167/38/116 
f 168/39/117 163/40/118 162/36/114 166/35/113 
f 169/41/119 164/42/120 163/43/118 168/44/117 
f 170/45/121 165/46/122 164/42/120 169/41/119 
f 167/38/116 161/37/115 165/46/122 170/45/121 
f 153/15/103 166/35/113 167/38/116 154/16/104 
f 156/18/106 168/39/117 166/35/113 153/15/103 
f 158/21/108 169/41/119 168/44/117 156/22/106 
f 160/24/110 170/45/121 169/41/119 158/21/108 
f 154/16/104 167/38/116 170/45/121 160/24/110 
s 1
f 171/1/123 172/2/124 173/3/123 174/4/123 
f 173/3/123 175/5/124 176/6/124 174/4/123 
f 176/6/124 177/7/125 178/8/126 174/4/123 
f 174/4/123 178/8/126 179/9/127 171/1/123 
f 177/7/125 180/10/128 181/11/129 178/8/126 
f 178/8/126 181/11/129 182/12/130 179/9/127 
f 183/47/131 184/48/131 185/49/131 186/50/131 
f 185/49/131 187/51/131 188/52/131 186/50/131 
f 188/52/131 189/53/132 190/54/133 186/50/131 
f 186/50/131 190/54/133 191/55/134 183/47/131 
f 189/53/132 192/56/135 193/57/136 190/54/133 
f 190/54/133 193/57/136 194/58/137 191/55/134 
f 195/59/138 196/60/139 197/61/140 198/62/141 
f 196/60/139 199/63/142 200/64/143 197/61/140 
f 201/65/144 202/66/145 197/61/140 200/64/143 
f 202/66/145 203/67/146 198/62/141 197/61/140 
f 204/68/147 205/69/148 206/70/149 207/71/150 
f 205/69/148 208/72/151 209/73/152 206/70/149 
f 210/74/153 211/75/154 206/70/149 209/73/152 
f 211/75/154 212/76/155 207/71/150 206/70/149 
f 195/77/138 198/78/141 213/79/156 214/80/157 
f 198/78/141 203/81/146 215/82/158 213/79/156 
f 208/83/151 205/84/148 213/79/156 215/82/158 
f 205/84/148 204/85/147 214/80/157 213/79/156 
f 203/86/146 202/87/145 216/88/159 215/89/158 
f 202/87/145 201/90/144 217/91/160 216/88/159 
f 210/92/153 209/93/152 216/88/159 217/91/160 
f 209/93/152 208/94/151 215/89/158 216/88/159 
f 201/95/144 200/96/143 218/97/161 217/98/160 
f 200/96/143 199/99/142 219/100/162 218/97/161 
f 212/101/155 211/102/154 218/97/161 219/100/162 
f 211/102/154 210/103/153 217/98/160 218/97/161 
f 199/104/142 196/105/139 220/106/163 219/107/162 
f 196/105/139 195/108/138 214/109/157 220/106/163 
f 204/110/147 207/111/150 220/106/163 214/109/157 
f 207/111/150 212/112/155 219/107/162 220/106/163 
f 221/113/164 222/114/165 223/115/166 224/116/167 
f 222/114/165 225/117/168 226/118/168 223/115/166 
f 227/119/169 228/120/170 229/121/171 230/122/169 
f 228/120/170 231/123/172 232/124/172 229/121/171 
f 233/125/173 234/126/174 235/127/174 236/128/173 
f 234/126/174 237/129/175 238/130/175 235/127/174 
f 239/131/176 240/132/177 241/133/177 242/134/176 
f 240/132/177 243/135/178 244/136/178 241/133/177 
f 245/137/179 246/138/179 247/139/179 248/140/179 
f 249/141/180 250/142/180 251/143/180 252/144/180 
f 253/145/181 254/146/181 255/147/181 256/148/181 
f 257/149/182 258/150/182 259/151/182 260/152/182 
f 261/153/183 262/154/183 263/155/183 264/156/183 
f 265/157/184 266/158/184 267/159/184 268/160/184 
f 269/161/185 270/162/185 271/163/185 272/164/185 
f 273/165/186 274/166/186 275/167/186 276/168/186 
# 150 polygons

