# 3ds Max Wavefront OBJ Exporter v0.97b - (c)2007 guruware
# File Created: 10.05.2018 14:54:03

mtllib fence01.mtl

#
# object fence01
#

v  -0.1585 -0.0079 0.2562
v  -0.1585 0.0120 -0.3906
v  0.1585 0.0120 -0.3906
v  0.1585 -0.0079 0.2562
v  -0.1585 3.9257 0.5304
v  0.1585 3.9257 0.5304
v  0.1585 4.4451 0.1815
v  -0.1585 4.4451 0.1815
v  -0.1585 0.0353 0.3038
v  0.1585 0.0353 0.3038
v  0.1585 3.8441 0.5524
v  -0.1585 3.8441 0.5524
v  0.2031 0.0367 0.2591
v  0.2031 0.0567 -0.3902
v  0.2031 3.8996 -0.3554
v  0.2031 4.4119 0.1500
v  0.2031 3.8764 0.5098
v  0.1585 0.0580 -0.4349
v  -0.1585 0.0580 -0.4349
v  -0.1585 3.8734 -0.4003
v  0.1585 3.8734 -0.4003
v  -0.2031 0.0567 -0.3902
v  -0.2031 0.0367 0.2591
v  -0.2031 3.8764 0.5098
v  -0.2031 4.4119 0.1500
v  -0.2031 3.8996 -0.3554
v  0.1585 4.4504 0.1252
v  0.1585 3.9498 -0.3685
v  -0.1585 3.9498 -0.3685
v  -0.1585 4.4504 0.1252
v  -0.1420 -0.0136 -1.2616
v  -0.1420 0.0208 -1.8404
v  0.1420 0.0208 -1.8404
v  0.1420 -0.0136 -1.2616
v  -0.1420 3.5023 -0.9150
v  0.1420 3.5023 -0.9150
v  0.1420 3.9764 -1.2142
v  -0.1420 3.9764 -1.2142
v  -0.1420 0.0238 -1.2179
v  0.1420 0.0238 -1.2179
v  0.1420 3.4287 -0.8974
v  -0.1420 3.4287 -0.8974
v  0.1820 0.0262 -1.2578
v  0.1820 0.0608 -1.8389
v  0.1820 3.5016 -1.7091
v  0.1820 3.9475 -1.2433
v  0.1820 3.4587 -0.9348
v  0.1420 0.0631 -1.8788
v  -0.1420 0.0631 -1.8788
v  -0.1420 3.4793 -1.7499
v  0.1420 3.4793 -1.7499
v  -0.1820 0.0608 -1.8389
v  -0.1820 0.0262 -1.2578
v  -0.1820 3.4587 -0.9348
v  -0.1820 3.9475 -1.2433
v  -0.1820 3.5016 -1.7091
v  0.1420 3.9826 -1.2644
v  0.1420 3.5470 -1.7195
v  -0.1420 3.5470 -1.7195
v  -0.1420 3.9826 -1.2644
v  -0.0723 2.9662 1.9092
v  -0.1352 2.9269 1.9092
v  -0.1352 2.4798 1.9092
v  -0.0723 2.4405 1.9092
v  0.0747 2.4405 1.9092
v  0.1375 2.4798 1.9092
v  0.1375 2.9269 1.9092
v  0.0747 2.9662 1.9092
v  -0.1352 2.9269 -2.0404
v  -0.0723 2.9662 -2.0404
v  0.0747 2.9662 -2.0404
v  0.1375 2.9269 -2.0404
v  0.1375 2.4798 -2.0404
v  0.0747 2.4405 -2.0404
v  -0.0723 2.4405 -2.0404
v  -0.1352 2.4798 -2.0404
# 76 vertices

vn -0.3406 -0.8890 0.3061
vn -0.3409 -0.8671 -0.3632
vn 0.3409 -0.8671 -0.3632
vn 0.3406 -0.8890 0.3061
vn -0.3513 0.4060 0.8436
vn 0.3513 0.4060 0.8436
vn 0.3514 0.7987 0.4886
vn -0.3514 0.7987 0.4886
vn -0.3406 -0.3898 0.8556
vn 0.3406 -0.3898 0.8556
vn 0.3513 0.0728 0.9334
vn -0.3513 0.0728 0.9334
vn 0.8739 -0.3598 0.3269
vn 0.8745 -0.3361 -0.3497
vn 0.8785 0.1833 -0.4412
vn 0.8891 0.4557 0.0427
vn 0.8841 0.1216 0.4513
vn 0.3409 -0.3284 -0.8809
vn -0.3409 -0.3284 -0.8809
vn -0.3473 0.1660 -0.9229
vn 0.3473 0.1660 -0.9229
vn -0.8745 -0.3361 -0.3497
vn -0.8739 -0.3598 0.3269
vn -0.8841 0.1216 0.4513
vn -0.8891 0.4557 0.0427
vn -0.8785 0.1833 -0.4412
vn 0.3514 0.8756 -0.3315
vn 0.3473 0.5370 -0.7688
vn -0.3473 0.5370 -0.7688
vn -0.3514 0.8756 -0.3315
vn -0.3406 -0.8974 0.2805
vn -0.3409 -0.8564 -0.3879
vn 0.3409 -0.8564 -0.3879
vn 0.3406 -0.8974 0.2805
vn -0.3513 0.3817 0.8549
vn 0.3513 0.3817 0.8549
vn 0.3514 0.7843 0.5112
vn -0.3514 0.7843 0.5112
vn -0.3406 -0.4142 0.8441
vn 0.3406 -0.4142 0.8441
vn 0.3513 0.0460 0.9351
vn -0.3513 0.0460 0.9351
vn 0.8739 -0.3691 0.3164
vn 0.8745 -0.3259 -0.3592
vn 0.8785 0.1959 -0.4358
vn 0.8891 0.4543 0.0558
vn 0.8841 0.1086 0.4546
vn 0.3409 -0.3030 -0.8899
vn -0.3409 -0.3030 -0.8899
vn -0.3473 0.1924 -0.9178
vn 0.3473 0.1924 -0.9178
vn -0.8745 -0.3259 -0.3592
vn -0.8739 -0.3691 0.3164
vn -0.8841 0.1086 0.4546
vn -0.8891 0.4543 0.0558
vn -0.8785 0.1959 -0.4358
vn 0.3514 0.8847 -0.3063
vn 0.3473 0.5588 -0.7531
vn -0.3473 0.5588 -0.7531
vn -0.3514 0.8847 -0.3063
vn -0.2097 0.7305 0.6499
vn -0.6914 0.3829 0.6126
vn -0.6914 -0.3829 0.6126
vn -0.2097 -0.7305 0.6499
vn 0.2097 -0.7305 0.6499
vn 0.6914 -0.3829 0.6126
vn 0.6914 0.3829 0.6126
vn 0.2097 0.7305 0.6499
vn -0.6914 0.3829 -0.6126
vn -0.2097 0.7305 -0.6499
vn 0.2097 0.7305 -0.6499
vn 0.6914 0.3829 -0.6126
vn 0.6914 -0.3829 -0.6126
vn 0.2097 -0.7305 -0.6499
vn -0.2097 -0.7305 -0.6499
vn -0.6914 -0.3829 -0.6126
# 76 vertex normals

vt 0.0564 0.4825 0.0000
vt 0.0536 0.4211 0.0000
vt 0.0833 0.4191 0.0000
vt 0.0852 0.4805 0.0000
vt 0.0772 0.8470 0.0000
vt 0.1084 0.8451 0.0000
vt 0.1088 0.9020 0.0000
vt 0.0839 0.9030 0.0000
vt 0.0567 0.4884 0.0000
vt 0.0854 0.4864 0.0000
vt 0.1080 0.8368 0.0000
vt 0.0767 0.8387 0.0000
vt 0.1414 0.4574 -3.3184
vt 0.2051 0.4574 0.0000
vt 0.2133 0.8343 0.0000
vt 0.1653 0.8861 3.3184
vt 0.1284 0.8347 0.0000
vt 0.0831 0.4130 0.0000
vt 0.0532 0.4149 0.0000
vt 0.0270 0.0254 0.0000
vt 0.0630 0.0232 0.0000
vt 0.2059 0.0200 0.0000
vt 0.2685 0.0317 0.0000
vt 0.2118 0.4049 0.0000
vt 0.1661 0.4487 0.0000
vt 0.1284 0.3889 0.0000
vt 0.1089 0.9066 0.0000
vt 0.1132 0.9711 0.0000
vt 0.0807 0.9715 0.0000
vt 0.0841 0.9077 0.0000
vt 0.0501 0.4858 0.0000
vt 0.0917 0.4832 -1.2257
vt 0.0464 0.4185 0.0000
vt 0.0902 0.4158 0.0000
vt 0.0707 0.8434 0.0000
vt 0.1145 0.8407 0.0000
vt 0.0745 0.9746 0.0000
vt 0.0798 0.9800 0.0000
vt 0.1142 0.9799 0.0000
vt 0.1196 0.9743 0.0000
vt 0.1152 0.9041 1.2257
vt 0.0778 0.9055 0.0000
vt 0.0697 0.0200 0.0000
vt 0.0200 0.0230 0.0000
vt 0.4293 0.0918 0.0677
vt 0.4359 0.0851 0.0677
vt 0.5113 0.0851 0.0677
vt 0.5179 0.0918 0.0677
vt 0.5179 0.1073 0.0677
vt 0.5113 0.1139 -0.0677
vt 0.4359 0.1139 0.0677
vt 0.4293 0.1073 -0.0677
vt 0.4333 0.0471 0.0628
vt 0.4293 0.0386 -0.0628
vt 0.4345 0.0240 0.0628
vt 0.4430 0.0200 0.0628
vt 0.5139 0.0456 0.0628
vt 0.5179 0.0541 -0.0628
vt 0.5127 0.0687 0.0628
vt 0.5042 0.0727 0.0628
vt 0.7805 0.9583 -0.0862
vt 0.7642 0.9583 0.0862
vt 0.7631 0.0248 -0.0862
vt 0.7794 0.0248 -0.0862
vt 0.7479 0.9582 -0.0862
vt 0.6782 0.9583 -0.0862
vt 0.6771 0.0248 -0.0862
vt 0.7468 0.0247 -0.0862
vt 0.8991 0.9585 -0.0862
vt 0.8828 0.9585 0.0862
vt 0.8816 0.0250 -0.0862
vt 0.8979 0.0250 -0.0862
vt 0.8665 0.9584 -0.0862
vt 0.7968 0.9585 -0.0862
vt 0.7957 0.0249 -0.0862
vt 0.8654 0.0249 -0.0862
vt 0.6619 0.9582 -0.0862
vt 0.6608 0.0247 -0.0862
# 78 texture coords

g fence01
usemtl wire_177148027
s 1
f 1/1/1 2/2/2 3/3/3 4/4/4 
f 5/5/5 6/6/6 7/7/7 8/8/8 
f 9/9/9 10/10/10 11/11/11 12/12/12 
f 13/13/13 14/14/14 15/15/15 16/16/16 17/17/17 
f 18/18/18 19/19/19 20/20/20 21/21/21 
f 22/22/22 23/23/23 24/24/24 25/25/25 26/26/26 
f 27/27/27 28/28/28 29/29/29 30/30/30 
f 9/9/9 23/31/23 1/1/1 
f 4/4/4 13/32/13 10/10/10 
f 22/33/22 19/19/19 2/2/2 
f 3/3/3 18/18/18 14/34/14 
f 12/12/12 5/5/5 24/35/24 
f 17/36/17 6/6/6 11/11/11 
f 26/37/26 29/29/29 20/38/20 
f 21/39/21 28/28/28 15/40/15 
f 16/41/16 27/27/27 7/7/7 
f 8/8/8 30/30/30 25/42/25 
f 1/1/1 23/31/23 22/33/22 2/2/2 
f 2/2/2 19/19/19 18/18/18 3/3/3 
f 3/3/3 14/34/14 13/32/13 4/4/4 
f 4/4/4 10/10/10 9/9/9 1/1/1 
f 5/5/5 12/12/12 11/11/11 6/6/6 
f 6/6/6 17/36/17 16/41/16 7/7/7 
f 28/28/28 21/39/21 20/38/20 29/29/29 
f 29/29/29 26/37/26 25/42/25 30/30/30 
f 10/10/10 13/32/13 17/36/17 11/11/11 
f 12/12/12 24/35/24 23/31/23 9/9/9 
f 14/34/14 18/18/18 21/21/21 15/43/15 
f 19/19/19 22/33/22 26/44/26 20/20/20 
f 27/27/27 16/41/16 15/40/15 28/28/28 
f 8/8/8 25/42/25 24/35/24 5/5/5 
f 7/7/7 27/27/27 30/30/30 8/8/8 
f 31/1/31 32/2/32 33/3/33 34/4/34 
f 35/5/35 36/6/36 37/7/37 38/8/38 
f 39/9/39 40/10/40 41/11/41 42/12/42 
f 43/13/43 44/14/44 45/15/45 46/16/46 47/17/47 
f 48/18/48 49/19/49 50/20/50 51/21/51 
f 52/22/52 53/23/53 54/24/54 55/25/55 56/26/56 
f 57/27/57 58/28/58 59/29/59 60/30/60 
f 39/9/39 53/31/53 31/1/31 
f 34/4/34 43/32/43 40/10/40 
f 52/33/52 49/19/49 32/2/32 
f 33/3/33 48/18/48 44/34/44 
f 42/12/42 35/5/35 54/35/54 
f 47/36/47 36/6/36 41/11/41 
f 56/37/56 59/29/59 50/38/50 
f 51/39/51 58/28/58 45/40/45 
f 46/41/46 57/27/57 37/7/37 
f 38/8/38 60/30/60 55/42/55 
f 31/1/31 53/31/53 52/33/52 32/2/32 
f 32/2/32 49/19/49 48/18/48 33/3/33 
f 33/3/33 44/34/44 43/32/43 34/4/34 
f 34/4/34 40/10/40 39/9/39 31/1/31 
f 35/5/35 42/12/42 41/11/41 36/6/36 
f 36/6/36 47/36/47 46/41/46 37/7/37 
f 58/28/58 51/39/51 50/38/50 59/29/59 
f 59/29/59 56/37/56 55/42/55 60/30/60 
f 40/10/40 43/32/43 47/36/47 41/11/41 
f 42/12/42 54/35/54 53/31/53 39/9/39 
f 44/34/44 48/18/48 51/21/51 45/43/45 
f 49/19/49 52/33/52 56/44/56 50/20/50 
f 57/27/57 46/41/46 45/40/45 58/28/58 
f 38/8/38 55/42/55 54/35/54 35/5/35 
f 37/7/37 57/27/57 60/30/60 38/8/38 
f 61/45/61 62/46/62 63/47/63 64/48/64 65/49/65 66/50/66 67/51/67 68/52/68 
f 69/53/69 70/54/70 71/55/71 72/56/72 73/57/73 74/58/74 75/59/75 76/60/76 
f 61/61/61 68/62/68 71/63/71 70/64/70 
f 67/65/67 66/66/66 73/67/73 72/68/72 
f 65/69/65 64/70/64 75/71/75 74/72/74 
f 63/73/63 62/74/62 69/75/69 76/76/76 
f 68/62/68 67/65/67 72/68/72 71/63/71 
f 70/64/70 69/75/69 62/74/62 61/61/61 
f 66/66/66 65/77/65 74/78/74 73/67/73 
f 64/70/64 63/73/63 76/76/76 75/71/75 
# 54 polygons - 20 triangles

