# 3ds Max Wavefront OBJ Exporter v0.97b - (c)2007 guruware
# File Created: 10.05.2018 14:16:31

mtllib Log.mtl

#
# object log
#

v  -0.8162 -0.0202 -3.2554
v  -2.1778 -0.0202 -2.9021
v  -1.9991 1.5828 -2.2813
v  -0.7339 1.5828 -3.0292
v  -3.9256 -0.0202 -2.7488
v  -3.8135 0.1214 -2.6703
v  -2.3073 1.5828 -1.8901
v  4.4574 -0.0202 1.9022
v  5.1428 -0.0202 0.4591
v  4.6230 1.5828 0.4418
v  4.4574 1.5828 1.9022
v  6.0749 -0.0202 -0.3791
v  4.5291 1.5828 0.0841
v  3.3884 1.1213 -2.1706
v  3.1353 1.0159 -2.0785
v  3.5269 1.5828 -1.9792
v  3.1512 1.5828 -2.3243
v  2.3488 -0.0202 -3.3209
v  1.8761 -0.0202 -4.6818
v  1.6667 1.5828 -3.0715
v  2.1550 1.5828 -2.9699
v  0.6497 -0.0202 -3.6737
v  0.7161 1.5828 -3.2695
v  3.1429 1.5828 -1.8701
v  5.9238 -0.0202 -0.9342
v  4.6176 -0.0202 -1.3804
v  4.2499 1.5828 -0.9798
v  4.4420 1.5828 -0.2477
v  1.5285 -0.0202 -4.7540
v  1.3724 1.5828 -3.1328
v  3.3884 -0.0202 -2.1706
v  3.9902 -0.0202 2.7940
v  3.9902 1.5828 2.7940
v  -2.4467 1.5828 -1.7132
v  -3.3382 -0.0202 0.3464
v  -3.0975 1.5828 0.3464
v  -2.8274 1.5828 -1.0983
v  -3.4719 -0.0202 -1.0539
v  -2.5653 1.5828 -1.5217
v  3.3120 -0.0202 3.5380
v  3.3120 1.5828 3.5380
v  1.9963 1.5828 4.1931
v  2.1904 -0.0202 4.6756
v  1.6281 1.5828 4.2272
v  1.7215 -0.0202 5.8382
v  -0.8808 1.1213 3.9265
v  -0.6535 1.5828 3.9912
v  -0.8808 1.0159 3.6571
v  -1.1064 1.5828 3.7561
v  -2.3173 -0.0202 3.3430
v  -2.0537 1.5828 3.0408
v  -2.3162 1.5828 2.6168
v  -3.7578 -0.0202 3.3642
v  -3.2300 -0.0202 1.8670
v  -2.8274 1.5828 1.7911
v  -0.6824 1.5828 3.5930
v  1.1482 -0.0202 5.8861
v  1.2865 1.5828 4.2589
v  0.5328 1.5828 4.3287
v  0.2822 -0.0202 4.8112
v  -3.9446 -0.0202 3.0622
v  -2.4745 1.5828 2.3611
v  -0.8808 -0.0202 3.9265
# 63 vertices

vn -0.3171 0.2135 -0.9240
vn -0.1556 0.3718 -0.9152
vn -0.3927 0.4888 -0.7790
vn -0.3624 0.1757 -0.9153
vn -0.6626 0.5880 -0.4639
vn -0.5839 0.7013 -0.4089
vn -0.5180 0.7517 -0.4081
vn 0.9235 0.0800 0.3751
vn 0.7618 0.2535 0.5962
vn 0.8892 0.4191 0.1833
vn 0.9560 0.0000 0.2934
vn 0.7653 0.6338 0.1125
vn 0.6819 0.7093 -0.1790
vn -0.4657 0.4548 -0.7592
vn 0.1681 0.3882 0.9061
vn 0.8495 0.2088 -0.4845
vn 0.4210 0.6268 -0.6556
vn 0.1434 0.7106 -0.6888
vn 0.5676 0.3852 -0.7276
vn -0.4104 0.3589 -0.8383
vn 0.0253 0.2435 -0.9696
vn 0.6545 0.2531 -0.7124
vn 0.5448 0.7008 -0.4605
vn 0.5467 0.3896 -0.7412
vn 0.8588 0.2734 -0.4332
vn 0.7288 0.5956 -0.3377
vn -0.1898 0.6890 -0.6995
vn 0.0044 0.5654 -0.8248
vn 0.8102 -0.0000 -0.5861
vn 0.5978 0.0631 -0.7992
vn 0.6262 0.0631 -0.7771
vn 0.5438 0.0000 -0.8392
vn 0.8192 -0.0000 0.5736
vn -0.5397 0.7523 -0.3779
vn 0.0000 1.0000 -0.0000
vn -0.9768 0.2135 0.0180
vn -0.9841 0.1757 -0.0275
vn -0.8663 0.4888 -0.1026
vn -0.9132 0.3718 0.1668
vn -0.5607 0.7517 -0.3472
vn 0.6684 0.0800 0.7395
vn 0.6026 0.0000 0.7980
vn 0.4764 0.4191 0.7729
vn 0.8208 0.2535 0.5119
vn 0.0650 0.7093 0.7019
vn 0.3674 0.6338 0.6807
vn -0.8727 0.4548 -0.1780
vn 0.9090 0.3882 -0.1519
vn -0.1648 0.2088 0.9640
vn -0.4896 0.3852 0.7823
vn -0.5982 0.7106 0.3704
vn -0.4720 0.6268 0.6199
vn -0.9281 0.3589 -0.0989
vn -0.9025 0.2435 0.3554
vn -0.4456 0.2531 0.8587
vn -0.2464 0.7008 0.6694
vn -0.0681 0.5956 0.8004
vn -0.1134 0.2734 0.9552
vn -0.5095 0.3896 0.7672
vn -0.7222 0.6890 0.0609
vn -0.7735 0.5654 0.2863
vn -0.2737 -0.0000 0.9618
vn -0.5161 0.0631 0.8542
vn -0.5466 0.0631 0.8350
vn -0.6026 0.0000 0.7980
# 65 vertex normals

vt 0.4842 0.0742 0.0000
vt 0.5888 0.0841 4.8089
vt 0.5793 0.2128 0.0000
vt 0.4711 0.1945 0.0000
vt 0.4408 0.2423 0.0000
vt 0.5686 0.2459 -8.1234
vt 0.5698 0.2779 0.0000
vt 0.4558 0.3874 0.0000
vt 0.4284 0.3676 8.1234
vt 0.7394 0.5530 0.0000
vt 0.7432 0.6712 3.1073
vt 0.6189 0.6598 0.0000
vt 0.6207 0.5510 0.0000
vt 0.7441 0.3623 -0.4956
vt 0.6510 0.3642 0.4956
vt 0.7568 0.2324 0.4956
vt 0.7822 0.2430 0.4956
vt 0.1426 0.2756 0.0000
vt 0.1592 0.3034 0.0000
vt 0.0867 0.2965 0.0000
vt 0.2036 0.2693 0.0000
vt 0.1859 0.1132 0.0000
vt 0.2508 0.0275 0.0000
vt 0.2901 0.1933 0.0000
vt 0.2585 0.2130 0.0000
vt 0.3709 0.0631 0.0000
vt 0.3617 0.1862 0.0000
vt 0.5022 0.8495 0.0001
vt 0.5315 0.8530 0.0001
vt 0.5499 0.9012 0.0001
vt 0.5080 0.8826 0.0001
vt 0.6171 0.3380 0.4956
vt 0.5917 0.2386 -0.4956
vt 0.6998 0.1743 0.4956
vt 0.7366 0.2169 0.4956
vt 0.2763 0.0200 0.0000
vt 0.3116 0.1869 0.0000
vt 0.0200 0.2728 -4.8089
vt 0.0271 0.1966 0.0000
vt 0.0979 0.1885 0.0000
vt 0.7406 0.4784 0.0000
vt 0.6219 0.4765 -3.1073
vt 0.4676 0.3955 0.0000
vt 0.5101 0.4985 -0.0001
vt 0.5546 0.5584 0.0001
vt 0.5836 0.6633 0.0001
vt 0.5809 0.6905 0.0001
vt 0.5784 0.7158 0.0001
vt 0.5728 0.7716 0.0001
vt 0.4426 0.9414 0.0001
vt 0.4081 0.9545 0.0001
vt 0.3873 0.9624 0.0001
vt 0.3408 0.9800 0.0001
vt 0.2320 0.9792 0.0001
vt 0.1308 0.9392 0.0001
vt 0.1037 0.9141 0.0001
vt 0.0915 0.9028 -0.0001
vt 0.9576 0.3477 -0.0003
vt 0.8375 0.3465 -0.0003
vt 0.8322 0.2378 0.0003
vt 0.9601 0.2435 -0.0003
vt 0.6094 0.4001 0.0000
vt 0.5018 0.4278 0.0000
vt 0.4781 0.4049 0.0000
vt 0.5892 0.2892 -0.5402
vt 0.9468 0.6139 0.0000
vt 0.8284 0.6055 0.0000
vt 0.8361 0.4969 0.0000
vt 0.9609 0.4964 0.0001
vt 0.6411 0.7596 -0.0001
vt 0.7570 0.8072 0.0000
vt 0.7488 0.8334 0.0000
vt 0.5798 0.8298 0.0000
vt 0.8273 0.0705 -0.0001
vt 0.7672 0.0727 -0.0001
vt 0.8320 0.0381 -0.0001
vt 0.8866 0.0527 -0.0001
vt 0.9718 0.9136 -0.0029
vt 0.8544 0.9514 0.0000
vt 0.8405 0.9169 0.0000
vt 0.9698 0.8061 0.0000
vt 0.9553 0.4605 0.0003
vt 0.8329 0.4553 -0.0003
vt 0.1590 0.4942 0.0001
vt 0.1261 0.4872 0.0001
vt 0.1090 0.4447 0.0001
vt 0.1565 0.4648 0.0001
vt 0.5781 0.8725 0.0000
vt 0.7476 0.8589 0.0000
vt 0.7567 0.9144 0.0000
vt 0.6379 0.9559 0.0001
vt 0.9536 0.7851 0.0000
vt 0.8268 0.8991 0.0000
vt 0.7868 0.8691 0.0000
vt 0.8519 0.7641 0.0029
vt 0.8195 0.1690 -0.0001
vt 0.7504 0.1889 -0.0001
vt 0.7142 0.1207 0.0001
vt 0.9595 0.0839 0.0001
vt 0.9306 0.2050 -0.0001
vt 0.9415 0.6882 0.0000
vt 0.8231 0.6798 -0.0001
vt 0.0806 0.8902 0.0001
vt 0.0565 0.8622 0.0001
vt 0.0200 0.7597 0.0001
vt 0.0230 0.6509 0.0001
vt 0.0422 0.6051 0.0001
vt 0.0508 0.5846 0.0001
vt 0.0651 0.5505 0.0001
vt 0.2394 0.4263 0.0001
vt 0.2954 0.4227 0.0001
vt 0.3207 0.4211 0.0001
vt 0.3480 0.4193 0.0001
vt 0.4519 0.4520 0.0001
# 114 texture coords

g log
usemtl wire_225143087
s 8
f 1/1/1 2/2/2 3/3/3 4/4/4 
f 2/5/2 5/6/5 6/7/6 7/8/7 3/9/3 
f 8/10/8 9/11/9 10/12/10 11/13/11 
f 9/14/9 12/15/12 13/16/13 10/17/10 
s off
f 14/18/14 15/19/14 16/20/14 
f 17/21/15 15/19/15 14/18/15 
s 8
f 18/22/16 19/23/17 20/24/18 21/25/19 
f 22/26/20 1/1/1 4/4/4 23/27/21 
s off
f 24/28/22 16/29/22 15/30/22 17/31/22 
s 8
f 25/32/23 26/33/24 27/34/25 28/35/26 
f 12/15/12 25/32/23 28/35/26 13/16/13 
f 29/36/27 22/26/20 23/27/21 30/37/28 
f 19/23/17 29/36/27 30/37/28 20/24/18 
f 16/20/29 27/38/25 26/39/24 31/40/30 14/18/31 
f 14/18/31 31/40/30 18/22/16 21/25/19 17/21/32 
f 32/41/33 8/10/8 11/13/11 33/42/33 
f 34/43/34 7/8/7 6/7/6 
s 1
f 33/44/35 11/45/35 10/46/35 13/47/35 28/48/35 27/49/35 16/29/35 24/28/35 17/31/35 21/50/35 20/51/35 30/52/35 23/53/35 4/54/35 3/55/35 7/56/35 34/57/35 
s 8
f 35/58/36 36/59/37 37/60/38 38/61/39 
f 38/62/39 37/63/38 39/64/40 6/7/6 5/65/5 
f 40/66/41 41/67/42 42/68/43 43/69/44 
f 43/70/44 42/71/43 44/72/45 45/73/46 
s off
f 46/74/47 47/75/47 48/76/47 
f 49/77/48 46/74/48 48/76/48 
s 8
f 50/78/49 51/79/50 52/80/51 53/81/52 
f 54/82/53 55/83/54 36/59/37 35/58/36 
s off
f 56/84/55 49/85/55 48/86/55 47/87/55 
s 8
f 57/88/56 58/89/57 59/90/58 60/91/59 
f 45/73/46 44/72/45 58/89/57 57/88/56 
f 61/92/60 62/93/61 55/94/54 54/95/53 
f 53/81/52 52/80/51 62/93/61 61/92/60 
f 47/75/62 46/74/63 63/96/64 60/97/59 59/98/58 
f 46/74/63 49/77/65 51/99/50 50/100/49 63/96/64 
f 32/101/33 33/102/33 41/67/42 40/66/41 
f 34/43/34 6/7/6 39/64/40 
s 1
f 33/44/35 34/57/35 39/103/35 37/104/35 36/105/35 55/106/35 62/107/35 52/108/35 51/109/35 49/85/35 56/84/35 47/87/35 59/110/35 58/111/35 44/112/35 42/113/35 41/114/35 
# 30 polygons - 6 triangles

