# 3ds Max Wavefront OBJ Exporter v0.97b - (c)2007 guruware
# File Created: 10.05.2018 13:55:34

mtllib Paving stones one.mtl

#
# object paving_stones001
#

v  -0.3370 -0.2076 0.6246
v  -0.8458 -0.2076 0.1589
v  0.8458 -0.2561 -0.0210
v  0.6043 -0.2008 0.6028
v  -0.3370 0.1836 0.6246
v  0.6043 0.1351 0.6028
v  0.8458 0.1351 -0.0210
v  -0.8458 0.1836 0.1589
v  -0.3357 -0.1180 0.6820
v  0.6057 -0.1665 0.6602
v  0.6057 0.0455 0.6602
v  -0.3357 0.0939 0.6820
v  0.6767 -0.1665 0.6012
v  0.9182 -0.1665 -0.0227
v  0.9182 0.0455 -0.0227
v  0.6767 0.0455 0.6012
v  0.3170 -0.2115 -0.6820
v  -0.7947 -0.1180 -0.4260
v  -0.7947 0.0939 -0.4260
v  0.3170 0.0004 -0.6820
v  -0.8657 -0.1180 -0.3670
v  -0.9182 -0.1180 0.1606
v  -0.9182 0.0939 0.1606
v  -0.8657 0.0939 -0.3670
v  -0.4093 -0.1180 0.6263
v  -0.7934 -0.2076 -0.3687
v  0.3184 -0.3565 -0.6246
v  0.3907 -0.2669 -0.6263
v  -0.4093 0.0939 0.6263
v  -0.7934 0.1836 -0.3687
v  0.3184 0.0900 -0.6246
v  0.3907 0.0004 -0.6263
# 32 vertices

vn -0.2108 -0.8263 0.5223
vn -0.4974 -0.8340 0.2387
vn 0.5178 -0.8535 -0.0585
vn 0.1666 -0.9304 0.3265
vn -0.1881 0.8417 0.5062
vn 0.3304 0.8159 0.4745
vn 0.5338 0.8346 -0.1361
vn -0.4805 0.8452 0.2337
vn -0.2835 -0.2578 0.9237
vn 0.2891 -0.4551 0.8422
vn 0.3329 0.2519 0.9087
vn -0.2768 0.2624 0.9244
vn 0.7249 -0.4519 0.5200
vn 0.9451 -0.2924 -0.1458
vn 0.9384 0.3052 -0.1618
vn 0.7930 0.2789 0.5417
vn 0.1611 -0.1590 -0.9740
vn -0.4284 -0.2445 -0.8699
vn -0.4056 0.2625 -0.8755
vn 0.2002 0.2506 -0.9472
vn -0.8568 -0.2895 -0.4267
vn -0.8981 -0.2980 0.3235
vn -0.8981 0.2980 0.3235
vn -0.8568 0.2895 -0.4267
vn -0.6257 -0.2431 0.7413
vn -0.4264 -0.8173 -0.3874
vn 0.1163 -0.8447 -0.5225
vn 0.6413 -0.2874 -0.7114
vn -0.6257 0.2431 0.7413
vn -0.3768 0.8341 -0.4030
vn 0.2099 0.7785 -0.5916
vn 0.6634 0.2470 -0.7063
# 32 vertex normals

vt 0.7435 0.6364 0.0443
vt 0.7088 0.6541 0.0443
vt 0.7326 0.5610 0.0443
vt 0.7610 0.5861 0.0443
vt 0.5946 0.8186 -0.6424
vt 0.5501 0.8479 0.0000
vt 0.5188 0.8266 0.0000
vt 0.6033 0.7806 0.0000
vt 0.0880 0.3189 0.0000
vt 0.1337 0.2985 0.0000
vt 0.1382 0.3087 0.0000
vt 0.0923 0.3299 0.0000
vt 0.1381 0.2966 0.0000
vt 0.1681 0.2822 0.0000
vt 0.1731 0.2920 0.0000
vt 0.1428 0.3068 0.0000
vt 0.2106 0.2565 0.0000
vt 0.2754 0.2295 0.0000
vt 0.2817 0.2423 0.0000
vt 0.2163 0.2673 0.0000
vt 0.0247 0.3443 0.0000
vt 0.0482 0.3352 0.0000
vt 0.0524 0.3449 0.0000
vt 0.0288 0.3542 0.0000
vt 0.0831 0.3205 0.0000
vt 0.0845 0.3135 0.0000
vt 0.1337 0.2945 0.0000
vt 0.0200 0.3454 0.0000
vt 0.0212 0.3395 0.0000
vt 0.2048 0.2486 0.0000
vt 0.2043 0.2561 0.0000
vt 0.0933 0.3361 0.0000
vt 0.0876 0.3320 0.0000
vt 0.1423 0.3138 0.1461
vt 0.0295 0.3603 0.0000
vt 0.0243 0.3566 0.0000
vt 0.2182 0.2737 0.0000
vt 0.2117 0.2700 0.0000
vt 0.0470 0.3291 0.0000
vt 0.2729 0.2230 -0.1461
vt 0.1657 0.2763 0.0000
vt 0.1765 0.2975 0.0000
vt 0.2852 0.2480 0.0000
vt 0.0557 0.3501 0.0000
vt 0.6817 0.6412 -0.0443
vt 0.6897 0.5767 0.0443
vt 0.5238 0.7815 0.6424
vt 0.5840 0.7577 0.0000
# 48 texture coords

g paving_stones001
usemtl wire_225087143
s 1
f 1/1/1 2/2/2 3/3/3 4/4/4 
f 5/5/5 6/6/6 7/7/7 8/8/8 
f 9/9/9 10/10/10 11/11/11 12/12/12 
f 13/13/13 14/14/14 15/15/15 16/16/16 
f 17/17/17 18/18/18 19/19/19 20/20/20 
f 21/21/21 22/22/22 23/23/23 24/24/24 
f 9/9/9 25/25/25 1/26/1 
f 4/27/4 13/13/13 10/10/10 
f 21/21/21 18/28/18 26/29/26 
f 27/30/27 17/17/17 28/31/28 
f 12/12/12 5/32/5 29/33/29 
f 16/16/16 6/34/6 11/11/11 
f 24/24/24 30/35/30 19/36/19 
f 20/20/20 31/37/31 32/38/32 
f 1/26/1 25/25/25 22/22/22 2/39/2 
f 26/40/26 18/18/18 17/17/17 27/30/27 
f 27/30/27 28/31/28 14/14/14 3/41/3 
f 4/27/4 10/10/10 9/9/9 1/26/1 
f 5/32/5 12/12/12 11/11/11 6/34/6 
f 6/34/6 16/16/16 15/15/15 7/42/7 
f 31/37/31 20/20/20 19/19/19 30/43/30 
f 30/35/30 24/24/24 23/23/23 8/44/8 
f 10/10/10 13/13/13 16/16/16 11/11/11 
f 12/12/12 29/33/29 25/25/25 9/9/9 
f 28/31/28 17/17/17 20/20/20 32/38/32 
f 18/28/18 21/21/21 24/24/24 19/36/19 
f 2/2/2 26/45/26 27/46/27 3/3/3 
f 7/7/7 31/47/31 30/48/30 8/8/8 
f 14/14/14 28/31/28 32/38/32 15/15/15 
f 22/22/22 25/25/25 29/33/29 23/23/23 
f 22/22/22 21/21/21 26/29/26 2/39/2 
f 14/14/14 13/13/13 4/27/4 3/41/3 
f 15/15/15 32/38/32 31/37/31 7/42/7 
f 23/23/23 29/33/29 5/32/5 8/44/8 
# 26 polygons - 8 triangles

