# 3ds Max Wavefront OBJ Exporter v0.97b - (c)2007 guruware
# File Created: 10.05.2018 13:54:42

mtllib Paving stones.mtl

#
# object paving_stones002
#

v  1.2029 -0.4141 1.2336
v  0.6943 -0.4141 2.7826
v  -1.1778 -0.4141 3.1777
v  -2.1677 -0.5628 1.5865
v  1.2029 0.2137 1.2336
v  -2.1677 0.0650 1.5865
v  -1.1778 0.2137 3.1777
v  0.6943 0.2137 2.7826
v  -1.1778 0.0698 3.3214
v  -1.1778 -0.2702 3.3214
v  0.6943 -0.2702 2.9264
v  0.6943 0.0698 2.9264
v  0.8382 0.0698 2.7826
v  0.8382 -0.2702 2.7826
v  1.3468 -0.2702 1.2336
v  1.3468 0.0698 1.2336
v  0.1823 -0.1439 -0.4530
v  0.1823 -0.4839 -0.4530
v  -2.0392 -0.2702 0.1238
v  -2.0392 0.0698 0.1238
v  -2.3115 -0.0789 1.5865
v  -2.1830 0.0698 0.2676
v  -2.1830 -0.2702 0.2676
v  -2.3115 -0.4189 1.5865
v  -1.3215 -0.2702 3.1777
v  -2.0392 -0.4141 0.2676
v  0.1823 -0.6278 -0.3092
v  0.3261 -0.4839 -0.3092
v  -1.3215 0.0698 3.1777
v  -2.0392 0.2137 0.2676
v  0.1823 0.0000 -0.3092
v  0.3261 -0.1439 -0.3092
v  2.4545 -0.4498 0.1302
v  1.4284 -0.3794 0.3779
v  0.5539 -0.3881 -0.8232
v  0.7003 -0.3881 -1.9016
v  2.4545 0.0483 0.1302
v  0.7003 0.1101 -1.9016
v  0.5539 0.1101 -0.8232
v  1.4284 0.0483 0.3779
v  1.3553 -0.0658 0.4312
v  0.4808 -0.0041 -0.7698
v  0.4808 -0.2740 -0.7698
v  1.3553 -0.3357 0.4312
v  1.4957 -0.0658 0.4702
v  1.4957 -0.3357 0.4702
v  2.5217 -0.3357 0.2225
v  2.5217 -0.0658 0.2225
v  2.8362 -0.1232 -1.1497
v  2.8362 -0.3931 -1.1497
v  1.5048 -0.2740 -2.3612
v  1.5048 -0.0041 -2.3612
v  1.3644 -0.0041 -2.4002
v  1.3644 -0.2740 -2.4002
v  0.6332 -0.2740 -1.9939
v  0.6332 -0.0041 -1.9939
v  0.4867 -0.2740 -0.9155
v  1.4317 -0.3881 -2.3078
v  2.7629 -0.5776 -1.0964
v  2.8301 -0.4635 -1.0041
v  0.4867 -0.0041 -0.9155
v  1.4317 0.1101 -2.3078
v  2.7629 -0.0090 -1.0964
v  2.8301 -0.1232 -1.0041
v  3.2752 -0.2472 -2.7372
v  3.0745 -0.2012 -2.2186
v  2.2921 -0.2069 -2.2006
v  1.8693 -0.2069 -2.5876
v  3.2752 0.0780 -2.7372
v  1.8693 0.1183 -2.5876
v  2.2921 0.1183 -2.2006
v  3.0745 0.0780 -2.2186
v  3.0757 0.0035 -2.1709
v  2.2933 0.0438 -2.1529
v  2.2933 -0.1324 -2.1529
v  3.0757 -0.1727 -2.1709
v  3.1347 0.0035 -2.2200
v  3.1347 -0.1727 -2.2200
v  3.3354 -0.1727 -2.7386
v  3.3354 0.0035 -2.7386
v  2.8357 -0.0340 -3.2865
v  2.8357 -0.2101 -3.2865
v  1.9117 -0.1324 -3.0738
v  1.9117 0.0438 -3.0738
v  1.8527 0.0438 -3.0247
v  1.8527 -0.1324 -3.0247
v  1.8090 -0.1324 -2.5862
v  1.8090 0.0438 -2.5862
v  2.2319 -0.1324 -2.1992
v  1.9128 -0.2069 -3.0261
v  2.8369 -0.3306 -3.2388
v  2.8969 -0.2561 -3.2402
v  2.2319 0.0438 -2.1992
v  1.9128 0.1183 -3.0261
v  2.8369 0.0406 -3.2388
v  2.8969 -0.0340 -3.2402
v  0.0065 -0.2762 -2.4834
v  -0.1020 -0.0456 -1.5410
v  -1.4646 -0.2759 -2.1544
v  -2.0262 -0.2759 -2.5318
v  0.0065 0.1012 -2.4834
v  -2.0262 0.1015 -2.5318
v  -1.4646 0.1015 -2.1544
v  -0.1020 0.3318 -1.5410
v  -1.4685 0.0150 -2.0858
v  -1.4685 -0.1894 -2.0858
v  -0.1059 0.0409 -1.4725
v  -0.1059 0.2453 -1.4725
v  0.0928 0.0148 -2.4785
v  -0.0157 0.2453 -1.5360
v  -0.0157 0.0409 -1.5360
v  0.0928 -0.1897 -2.4785
v  -0.5603 -0.0678 -3.3215
v  -0.5603 -0.2723 -3.3215
v  -1.9093 -0.1894 -3.1228
v  -1.9093 0.0150 -3.1228
v  -1.9997 0.0150 -3.0592
v  -1.9997 -0.1894 -3.0592
v  -2.1126 -0.1894 -2.5367
v  -2.1126 0.0150 -2.5367
v  -1.5508 -0.1894 -2.1593
v  -1.9132 -0.2759 -3.0543
v  -0.5642 -0.3588 -3.2530
v  -0.4778 -0.2723 -3.2481
v  -1.5508 0.0150 -2.1593
v  -1.9132 0.1015 -3.0543
v  -0.5642 0.0186 -3.2530
v  -0.4778 -0.0678 -3.2481
v  -2.2021 -0.0491 -0.6013
v  -3.2863 -0.2224 -1.5937
v  -2.8914 -0.2224 -1.8864
v  -1.7036 -0.2226 -1.1124
v  -2.8914 0.0616 -1.8864
v  -3.2863 0.0616 -1.5937
v  -2.2021 0.2349 -0.6013
v  -1.7036 0.0614 -1.1124
v  -3.3201 -0.0034 -1.5547
v  -3.3201 -0.1573 -1.5547
v  -2.2359 0.0160 -0.5623
v  -2.2359 0.1699 -0.5623
v  -1.6546 -0.0036 -1.0697
v  -2.1530 0.1699 -0.5585
v  -2.1530 0.0160 -0.5585
v  -1.6546 -0.1575 -1.0697
v  -1.6553 -0.0658 -1.6179
v  -1.6553 -0.2196 -1.6179
v  -2.5498 -0.1573 -1.9421
v  -2.5498 -0.0034 -1.9421
v  -2.6326 -0.0034 -1.9458
v  -2.6326 -0.1573 -1.9458
v  -2.9405 -0.1573 -1.9291
v  -2.9405 -0.0034 -1.9291
v  -3.3354 -0.1573 -1.6364
v  -2.5835 -0.2224 -1.9031
v  -1.6892 -0.2847 -1.5790
v  -1.6400 -0.2196 -1.5363
v  -3.3354 -0.0034 -1.6364
v  -2.5835 0.0616 -1.9031
v  -1.6892 -0.0007 -1.5790
v  -1.6400 -0.0658 -1.5363
# 160 vertices

vn 0.4774 -0.8778 -0.0389
vn 0.3407 -0.8644 0.3697
vn -0.2093 -0.8528 0.4784
vn -0.4188 -0.9024 0.1015
vn 0.4517 0.8844 -0.1175
vn -0.4588 0.8771 0.1423
vn -0.2246 0.8861 0.4055
vn 0.3174 0.8816 0.3494
vn -0.2517 0.3412 0.9057
vn -0.2517 -0.3412 0.9056
vn 0.4306 -0.3390 0.8364
vn 0.4306 0.3390 0.8364
vn 0.8120 0.3362 0.4772
vn 0.8120 -0.3362 0.4772
vn 0.9350 -0.3388 -0.1053
vn 0.9247 0.3572 -0.1316
vn 0.2453 0.3290 -0.9119
vn 0.2169 -0.3524 -0.9104
vn -0.4674 -0.3230 -0.8229
vn -0.4311 0.3531 -0.8304
vn -0.9184 0.3335 0.2129
vn -0.8612 0.3576 -0.3612
vn -0.8561 -0.3240 -0.4026
vn -0.9078 -0.3727 0.1923
vn -0.7430 -0.3100 0.5932
vn -0.3795 -0.8561 -0.3508
vn 0.1713 -0.9088 -0.3803
vn 0.7501 -0.3441 -0.5647
vn -0.7550 0.3391 0.5612
vn -0.3549 0.8882 -0.2918
vn 0.2316 0.8249 -0.5157
vn 0.7320 0.3015 -0.6109
vn 0.3141 -0.8827 0.3496
vn -0.1457 -0.9508 0.2735
vn -0.5073 -0.8546 0.1114
vn -0.4393 -0.8652 -0.2417
vn 0.3790 0.8672 0.3229
vn -0.4279 0.8734 -0.2325
vn -0.4856 0.8660 0.1192
vn -0.1871 0.8481 0.4957
vn -0.5511 0.2952 0.7805
vn -0.9052 0.3052 0.2958
vn -0.9083 -0.3009 0.2905
vn -0.5150 -0.4880 0.7047
vn 0.0079 0.3245 0.9459
vn -0.0137 -0.4882 0.8726
vn 0.6492 -0.3348 0.6830
vn 0.6573 0.3461 0.6695
vn 0.8809 0.2931 -0.3716
vn 0.8859 -0.1941 -0.4213
vn 0.4662 -0.2889 -0.8362
vn 0.4824 0.3061 -0.8207
vn -0.1364 0.3334 -0.9329
vn -0.1364 -0.3334 -0.9329
vn -0.7655 -0.3406 -0.5459
vn -0.7655 0.3406 -0.5459
vn -0.9531 -0.2884 -0.0914
vn 0.0758 -0.8500 -0.5212
vn 0.4777 -0.8553 -0.2008
vn 0.9348 -0.3322 0.1257
vn -0.9531 0.2884 -0.0914
vn 0.1106 0.8623 -0.4942
vn 0.5539 0.8193 -0.1482
vn 0.9455 0.2930 0.1419
vn 0.5178 -0.8535 -0.0586
vn 0.1666 -0.9304 0.3265
vn -0.2108 -0.8263 0.5223
vn -0.4975 -0.8340 0.2386
vn 0.5338 0.8346 -0.1362
vn -0.4805 0.8453 0.2337
vn -0.1881 0.8417 0.5062
vn 0.3303 0.8159 0.4745
vn 0.3329 0.2519 0.9087
vn -0.2767 0.2624 0.9244
vn -0.2835 -0.2578 0.9237
vn 0.2890 -0.4551 0.8422
vn 0.7930 0.2789 0.5417
vn 0.7249 -0.4519 0.5199
vn 0.9451 -0.2924 -0.1457
vn 0.9384 0.3052 -0.1617
vn 0.2002 0.2506 -0.9472
vn 0.1611 -0.1590 -0.9741
vn -0.4284 -0.2445 -0.8699
vn -0.4056 0.2625 -0.8755
vn -0.8568 0.2895 -0.4267
vn -0.8568 -0.2895 -0.4267
vn -0.8981 -0.2980 0.3235
vn -0.8981 0.2980 0.3235
vn -0.6256 -0.2431 0.7413
vn -0.4264 -0.8174 -0.3874
vn 0.1163 -0.8447 -0.5224
vn 0.6413 -0.2874 -0.7114
vn -0.6256 0.2431 0.7413
vn -0.3768 0.8340 -0.4030
vn 0.2099 0.7784 -0.5916
vn 0.6634 0.2470 -0.7063
vn 0.4453 -0.8952 -0.0162
vn 0.2356 -0.8013 0.5499
vn -0.0521 -0.9869 0.1524
vn -0.4523 -0.8440 0.2884
vn 0.4473 0.8461 -0.2899
vn -0.4714 0.8372 0.2773
vn -0.4377 0.6322 0.6393
vn 0.1826 0.9100 0.3721
vn -0.5335 0.2718 0.8009
vn -0.4819 -0.3140 0.8180
vn 0.0997 -0.2835 0.9538
vn 0.0615 0.3140 0.9474
vn 0.9075 0.3187 -0.2737
vn 0.8327 0.3707 0.4112
vn 0.8158 -0.2974 0.4959
vn 0.9123 -0.3715 -0.1722
vn 0.2700 0.2937 -0.9170
vn 0.2530 -0.3069 -0.9175
vn -0.3507 -0.2896 -0.8906
vn -0.3303 0.3054 -0.8931
vn -0.8001 0.3327 -0.4992
vn -0.8001 -0.3327 -0.4992
vn -0.8861 -0.3292 0.3264
vn -0.8861 0.3292 0.3264
vn -0.5834 -0.2491 0.7730
vn -0.3398 -0.8554 -0.3910
vn 0.1883 -0.8822 -0.4316
vn 0.7208 -0.3190 -0.6153
vn -0.5834 0.2491 0.7730
vn -0.3139 0.8579 -0.4068
vn 0.2302 0.8094 -0.5403
vn 0.7058 0.2854 -0.6483
vn -0.0592 -0.7989 0.5985
vn -0.4727 -0.8800 0.0462
vn -0.1250 -0.8926 -0.4332
vn 0.3562 -0.8905 0.2832
vn -0.1320 0.8550 -0.5015
vn -0.5360 0.8440 -0.0208
vn 0.0162 0.9067 0.4215
vn 0.5286 0.8484 0.0275
vn -0.8387 0.2858 0.4637
vn -0.8129 -0.3142 0.4904
vn -0.3649 -0.2864 0.8859
vn -0.3938 0.3141 0.8639
vn 0.8846 0.3220 0.3372
vn 0.4072 0.3707 0.8347
vn 0.3419 -0.2974 0.8915
vn 0.8237 -0.3684 0.4311
vn 0.7282 0.2925 -0.6199
vn 0.7147 -0.3055 -0.6292
vn 0.1878 -0.2836 -0.9404
vn 0.2087 0.3016 -0.9303
vn -0.0120 0.2891 -0.9572
vn -0.0120 -0.2891 -0.9572
vn -0.3386 -0.3378 -0.8782
vn -0.3386 0.3378 -0.8782
vn -0.8688 -0.3359 -0.3637
vn 0.0519 -0.8633 -0.5020
vn 0.3911 -0.8850 -0.2525
vn 0.9436 -0.3297 -0.0286
vn -0.8688 0.3359 -0.3637
vn 0.0811 0.8620 -0.5003
vn 0.4945 0.7972 -0.3464
vn 0.9570 0.2780 -0.0832
# 160 vertex normals

vt 0.3971 0.7905 0.0000
vt 0.2919 0.7556 0.0000
vt 0.2654 0.6282 0.0000
vt 0.3741 0.5610 0.0000
vt 0.2495 0.6933 0.0000
vt 0.0200 0.6694 -220.7280
vt 0.0877 0.5610 0.0000
vt 0.2150 0.5879 220.7280
vt 0.2383 0.1431 0.0000
vt 0.2459 0.1238 0.0000
vt 0.3548 0.1709 0.0000
vt 0.3463 0.1915 0.0000
vt 0.3580 0.1969 0.0000
vt 0.3667 0.1760 0.0000
vt 0.4611 0.2172 0.0000
vt 0.4523 0.2380 0.0000
vt 0.5860 0.2785 0.0000
vt 0.5932 0.2584 0.0000
vt 0.7399 0.3263 0.0000
vt 0.7302 0.3522 0.0000
vt 0.1140 0.0803 0.0000
vt 0.0342 0.0549 0.0000
vt 0.0429 0.0343 0.0000
vt 0.1231 0.0594 0.0000
vt 0.2350 0.1175 0.0000
vt 0.2484 0.1095 0.0000
vt 0.3658 0.1612 0.0000
vt 0.0307 0.0268 0.0000
vt 0.0451 0.0200 0.0000
vt 0.5955 0.2433 0.0000
vt 0.5818 0.2523 0.0000
vt 0.2289 0.1547 0.0000
vt 0.2258 0.1388 0.0000
vt 0.3465 0.2061 0.0000
vt 0.0253 0.0660 0.0000
vt 0.0200 0.0505 0.0000
vt 0.5772 0.2906 0.0000
vt 0.5729 0.2747 0.0000
vt 0.1304 0.0479 0.0000
vt 0.7476 0.3136 0.0000
vt 0.4676 0.2053 0.0000
vt 0.4481 0.2513 0.0000
vt 0.7269 0.3666 0.0000
vt 0.1107 0.0938 0.0000
vt 0.5029 0.7209 0.0000
vt 0.4644 0.5689 0.0000
vt 0.1795 0.7989 0.0000
vt 0.0277 0.7598 0.0000
vt 0.9293 0.0413 0.0000
vt 0.9465 0.1111 1.9280
vt 0.8650 0.1708 0.0000
vt 0.7916 0.1612 0.0000
vt 0.6570 0.5878 -9.8092
vt 0.5188 0.7072 9.8092
vt 0.5197 0.6332 0.0000
vt 0.5905 0.5610 0.0000
vt 0.6758 0.4269 0.0000
vt 0.5802 0.4270 0.0000
vt 0.5810 0.4090 0.0000
vt 0.6759 0.4096 0.0000
vt 0.6851 0.4271 0.0000
vt 0.6849 0.4098 0.0000
vt 0.7475 0.4081 0.0000
vt 0.7483 0.4251 0.0000
vt 0.8426 0.4168 0.0000
vt 0.8412 0.3981 0.0000
vt 0.9682 0.4007 0.0000
vt 0.9690 0.4208 0.0000
vt 0.4464 0.4217 0.0000
vt 0.4474 0.4021 0.0000
vt 0.4992 0.4060 0.0000
vt 0.4990 0.4223 0.0000
vt 0.5712 0.4078 0.0000
vt 0.5790 0.3983 0.0000
vt 0.6790 0.4030 0.0000
vt 0.9795 0.3997 0.0000
vt 0.9705 0.3900 -6.1461
vt 0.8378 0.3825 0.0000
vt 0.8309 0.3935 0.0000
vt 0.5772 0.4370 0.0000
vt 0.5703 0.4270 0.0000
vt 0.6789 0.4374 6.1461
vt 0.9800 0.4214 0.0000
vt 0.9718 0.4313 0.0000
vt 0.8409 0.4278 0.0000
vt 0.8325 0.4180 0.0000
vt 0.5021 0.3962 0.0000
vt 0.7482 0.3977 0.0000
vt 0.7499 0.4356 0.0000
vt 0.5011 0.4324 0.0000
vt 0.4455 0.4324 0.0000
vt 0.8455 0.0200 0.0000
vt 0.7635 0.1117 -1.9280
vt 0.6658 0.6735 0.0000
vt 0.5639 0.7418 0.0000
vt 0.4474 0.3915 0.0000
vt 0.7326 0.5610 0.0443
vt 0.7610 0.5861 0.0443
vt 0.7435 0.6364 0.0443
vt 0.7088 0.6541 0.0443
vt 0.5188 0.8266 0.0000
vt 0.6033 0.7806 0.0000
vt 0.5946 0.8186 -0.6424
vt 0.5501 0.8479 0.0000
vt 0.1382 0.3087 0.0000
vt 0.0923 0.3299 0.0000
vt 0.0880 0.3189 0.0000
vt 0.1337 0.2985 0.0000
vt 0.1428 0.3068 0.0000
vt 0.1381 0.2966 0.0000
vt 0.1681 0.2822 0.0000
vt 0.1731 0.2920 0.0000
vt 0.2163 0.2673 0.0000
vt 0.2106 0.2565 0.0000
vt 0.2754 0.2295 0.0000
vt 0.2817 0.2423 0.0000
vt 0.0288 0.3542 0.0000
vt 0.0247 0.3443 0.0000
vt 0.0482 0.3352 0.0000
vt 0.0524 0.3449 0.0000
vt 0.0831 0.3205 0.0000
vt 0.0845 0.3135 0.0000
vt 0.1337 0.2945 0.0000
vt 0.0200 0.3454 0.0000
vt 0.0212 0.3395 0.0000
vt 0.2048 0.2486 0.0000
vt 0.2043 0.2561 0.0000
vt 0.0933 0.3361 0.0000
vt 0.0876 0.3320 0.0000
vt 0.1423 0.3138 0.1461
vt 0.0295 0.3603 0.0000
vt 0.0243 0.3566 0.0000
vt 0.2182 0.2737 0.0000
vt 0.2117 0.2700 0.0000
vt 0.0470 0.3291 0.0000
vt 0.2729 0.2230 -0.1461
vt 0.1657 0.2763 0.0000
vt 0.1765 0.2975 0.0000
vt 0.2852 0.2480 0.0000
vt 0.0557 0.3501 0.0000
vt 0.6897 0.5767 0.0443
vt 0.6817 0.6412 -0.0443
vt 0.5238 0.7815 0.6424
vt 0.5840 0.7577 0.0000
vt 0.4036 0.8571 0.0000
vt 0.3998 0.9234 0.0000
vt 0.3048 0.8842 0.0000
vt 0.2654 0.8604 0.0000
vt 0.1582 0.8808 0.0000
vt 0.0200 0.8841 0.0000
vt 0.0582 0.8585 0.0000
vt 0.1513 0.8148 0.0000
vt 0.1087 0.5117 0.0000
vt 0.1040 0.4972 0.0000
vt 0.2046 0.4809 0.0000
vt 0.2086 0.4923 0.0000
vt 0.2649 0.4618 0.0000
vt 0.2147 0.4904 0.0000
vt 0.2108 0.4789 0.0000
vt 0.2607 0.4489 0.0000
vt 0.3319 0.4322 0.0000
vt 0.3268 0.4195 0.0000
vt 0.4163 0.3906 0.0000
vt 0.4217 0.4046 0.0000
vt 0.0270 0.5374 0.0000
vt 0.0227 0.5232 -11.1958
vt 0.0531 0.5153 0.0000
vt 0.0571 0.5260 0.0000
vt 0.0963 0.4993 0.0000
vt 0.0994 0.4906 0.0000
vt 0.2041 0.4729 0.0000
vt 0.4240 0.3872 0.0000
vt 0.4154 0.3825 0.0000
vt 0.3225 0.4123 0.0000
vt 0.3198 0.4215 0.0000
vt 0.1086 0.5197 0.0000
vt 0.1011 0.5144 0.0000
vt 0.2132 0.4995 0.0000
vt 0.4296 0.4023 0.0000
vt 0.4262 0.4113 0.0000
vt 0.3332 0.4404 0.0000
vt 0.3249 0.4353 0.0000
vt 0.0532 0.5077 0.0000
vt 0.2597 0.4409 0.0000
vt 0.2694 0.4688 0.0000
vt 0.0615 0.5321 0.0000
vt 0.0292 0.5451 11.1958
vt 0.3624 0.8064 0.0000
vt 0.2713 0.8245 0.0000
vt 0.1194 0.9335 0.0000
vt 0.0276 0.9197 0.0000
vt 0.0200 0.5158 0.0000
vt 0.8629 0.2633 0.0000
vt 0.7635 0.2469 -0.5173
vt 0.7751 0.2155 0.0000
vt 0.8716 0.2140 0.5173
vt 0.5278 0.4547 0.0000
vt 0.5547 0.4747 -3.8905
vt 0.4804 0.5427 3.8905
vt 0.4462 0.5062 0.0000
vt 0.3915 0.0779 0.0000
vt 0.3901 0.0676 0.0000
vt 0.4861 0.0662 0.0000
vt 0.4873 0.0757 0.0000
vt 0.5338 0.0617 0.0000
vt 0.4923 0.0749 0.0000
vt 0.4911 0.0658 0.0000
vt 0.5328 0.0516 0.0000
vt 0.5696 0.0527 0.0000
vt 0.5679 0.0431 0.0000
vt 0.6331 0.0361 0.0000
vt 0.6349 0.0474 0.0000
vt 0.6408 0.0466 0.0000
vt 0.6391 0.0352 0.0000
vt 0.6607 0.0325 0.0000
vt 0.6625 0.0428 0.0000
vt 0.3843 0.0676 0.0000
vt 0.3885 0.0621 0.0000
vt 0.4875 0.0602 0.0000
vt 0.6343 0.0300 0.0000
vt 0.5660 0.0372 0.0000
vt 0.5626 0.0434 0.0000
vt 0.3911 0.0839 0.0000
vt 0.3855 0.0792 0.0000
vt 0.4902 0.0812 0.0000
vt 0.6378 0.0530 0.0000
vt 0.5695 0.0588 0.0000
vt 0.5642 0.0539 0.0000
vt 0.6575 0.0268 0.0000
vt 0.6923 0.0200 -1.4963
vt 0.6946 0.0266 0.0000
vt 0.5333 0.0456 0.0000
vt 0.5360 0.0675 1.4963
vt 0.6611 0.0492 0.0000
vt 0.7918 0.2028 0.0000
vt 0.8547 0.1867 0.0000
vt 0.5069 0.4533 0.0000
vt 0.4455 0.4741 0.0000
vt 0.6964 0.0383 0.0000
vt 0.6962 0.0452 0.0000
# 240 texture coords

g paving_stones002
usemtl wire_225087143
s 1
f 1/1/1 2/2/2 3/3/3 4/4/4 
f 5/5/5 6/6/6 7/7/7 8/8/8 
f 9/9/9 10/10/10 11/11/11 12/12/12 
f 13/13/13 14/14/14 15/15/15 16/16/16 
f 17/17/17 18/18/18 19/19/19 20/20/20 
f 21/21/21 22/22/22 23/23/23 24/24/24 
f 10/10/10 25/25/25 3/26/3 
f 2/27/2 14/14/14 11/11/11 
f 23/23/23 19/28/19 26/29/26 
f 27/30/27 18/18/18 28/31/28 
f 9/9/9 7/32/7 29/33/29 
f 13/13/13 8/34/8 12/12/12 
f 22/22/22 30/35/30 20/36/20 
f 17/17/17 31/37/31 32/38/32 
f 4/39/4 3/26/3 25/25/25 24/24/24 
f 27/30/27 26/40/26 19/19/19 18/18/18 
f 1/41/1 27/30/27 28/31/28 15/15/15 
f 3/26/3 2/27/2 11/11/11 10/10/10 
f 12/12/12 8/34/8 7/32/7 9/9/9 
f 5/42/5 8/34/8 13/13/13 16/16/16 
f 20/20/20 30/43/30 31/37/31 17/17/17 
f 6/44/6 30/35/30 22/22/22 21/21/21 
f 12/12/12 11/11/11 14/14/14 13/13/13 
f 10/10/10 9/9/9 29/33/29 25/25/25 
f 32/38/32 28/31/28 18/18/18 17/17/17 
f 20/36/20 19/28/19 23/23/23 22/22/22 
f 27/45/27 1/1/1 4/4/4 26/46/26 
f 6/6/6 5/5/5 31/47/31 30/48/30 
f 32/38/32 16/16/16 15/15/15 28/31/28 
f 21/21/21 24/24/24 25/25/25 29/33/29 
f 4/39/4 24/24/24 23/23/23 26/29/26 
f 1/41/1 15/15/15 14/14/14 2/27/2 
f 5/42/5 16/16/16 32/38/32 31/37/31 
f 6/44/6 21/21/21 29/33/29 7/32/7 
f 33/49/33 34/50/34 35/51/35 36/52/36 
f 37/53/37 38/54/38 39/55/39 40/56/40 
f 41/57/41 42/58/42 43/59/43 44/60/44 
f 45/61/45 46/62/46 47/63/47 48/64/48 
f 49/65/49 50/66/50 51/67/51 52/68/52 
f 53/69/53 54/70/54 55/71/55 56/72/56 
f 43/59/43 57/73/57 35/74/35 
f 34/75/34 46/62/46 44/60/44 
f 54/76/54 51/67/51 58/77/58 
f 59/78/59 50/66/50 60/79/60 
f 42/58/42 39/80/39 61/81/61 
f 45/61/45 40/82/40 41/57/41 
f 53/83/53 62/84/62 52/68/52 
f 49/65/49 63/85/63 64/86/64 
f 36/87/36 35/74/35 57/73/57 55/71/55 
f 59/78/59 58/77/58 51/67/51 50/66/50 
f 33/88/33 59/78/59 60/79/60 47/63/47 
f 35/74/35 34/75/34 44/60/44 43/59/43 
f 40/82/40 39/80/39 42/58/42 41/57/41 
f 37/89/37 40/82/40 45/61/45 48/64/48 
f 52/68/52 62/84/62 63/85/63 49/65/49 
f 38/90/38 62/91/62 53/69/53 56/72/56 
f 41/57/41 44/60/44 46/62/46 45/61/45 
f 43/59/43 42/58/42 61/81/61 57/73/57 
f 64/86/64 60/79/60 50/66/50 49/65/49 
f 52/68/52 51/67/51 54/76/54 53/83/53 
f 59/92/59 33/49/33 36/52/36 58/93/58 
f 38/54/38 37/53/37 63/94/63 62/95/62 
f 64/86/64 48/64/48 47/63/47 60/79/60 
f 56/72/56 55/71/55 57/73/57 61/81/61 
f 36/87/36 55/71/55 54/70/54 58/96/58 
f 33/88/33 47/63/47 46/62/46 34/75/34 
f 37/89/37 48/64/48 64/86/64 63/85/63 
f 38/90/38 56/72/56 61/81/61 39/80/39 
f 65/97/65 66/98/66 67/99/67 68/100/68 
f 69/101/69 70/102/70 71/103/71 72/104/72 
f 73/105/73 74/106/74 75/107/75 76/108/76 
f 77/109/77 78/110/78 79/111/79 80/112/80 
f 81/113/81 82/114/82 83/115/83 84/116/84 
f 85/117/85 86/118/86 87/119/87 88/120/88 
f 75/107/75 89/121/89 67/122/67 
f 66/123/66 78/110/78 76/108/76 
f 86/118/86 83/124/83 90/125/90 
f 91/126/91 82/114/82 92/127/92 
f 74/106/74 71/128/71 93/129/93 
f 77/109/77 72/130/72 73/105/73 
f 85/117/85 94/131/94 84/132/84 
f 81/113/81 95/133/95 96/134/96 
f 68/135/68 67/122/67 89/121/89 87/119/87 
f 91/126/91 90/136/90 83/115/83 82/114/82 
f 65/137/65 91/126/91 92/127/92 79/111/79 
f 67/122/67 66/123/66 76/108/76 75/107/75 
f 72/130/72 71/128/71 74/106/74 73/105/73 
f 69/138/69 72/130/72 77/109/77 80/112/80 
f 84/116/84 94/139/94 95/133/95 81/113/81 
f 70/140/70 94/131/94 85/117/85 88/120/88 
f 73/105/73 76/108/76 78/110/78 77/109/77 
f 75/107/75 74/106/74 93/129/93 89/121/89 
f 96/134/96 92/127/92 82/114/82 81/113/81 
f 84/132/84 83/124/83 86/118/86 85/117/85 
f 91/141/91 65/97/65 68/100/68 90/142/90 
f 70/102/70 69/101/69 95/143/95 94/144/94 
f 96/134/96 80/112/80 79/111/79 92/127/92 
f 88/120/88 87/119/87 89/121/89 93/129/93 
f 68/135/68 87/119/87 86/118/86 90/125/90 
f 65/137/65 79/111/79 78/110/78 66/123/66 
f 69/138/69 80/112/80 96/134/96 95/133/95 
f 70/140/70 88/120/88 93/129/93 71/128/71 
f 97/145/97 98/146/98 99/147/99 100/148/100 
f 101/149/101 102/150/102 103/151/103 104/152/104 
f 105/153/105 106/154/106 107/155/107 108/156/108 
f 109/157/109 110/158/110 111/159/111 112/160/112 
f 113/161/113 114/162/114 115/163/115 116/164/116 
f 117/165/117 118/166/118 119/167/119 120/168/120 
f 106/154/106 121/169/121 99/170/99 
f 98/171/98 111/159/111 107/155/107 
f 118/172/118 115/163/115 122/173/122 
f 123/174/123 114/162/114 124/175/124 
f 105/153/105 103/176/103 125/177/125 
f 110/158/110 104/178/104 108/156/108 
f 117/179/117 126/180/126 116/164/116 
f 113/161/113 127/181/127 128/182/128 
f 100/183/100 99/170/99 121/169/121 119/167/119 
f 123/174/123 122/173/122 115/163/115 114/162/114 
f 97/184/97 123/174/123 124/175/124 112/160/112 
f 106/154/106 99/170/99 98/171/98 107/155/107 
f 104/178/104 103/176/103 105/153/105 108/156/108 
f 101/185/101 104/178/104 110/158/110 109/157/109 
f 116/164/116 126/180/126 127/181/127 113/161/113 
f 102/186/102 126/187/126 117/165/117 120/168/120 
f 108/156/108 107/155/107 111/159/111 110/158/110 
f 106/154/106 105/153/105 125/177/125 121/169/121 
f 128/182/128 124/175/124 114/162/114 113/161/113 
f 116/164/116 115/163/115 118/172/118 117/179/117 
f 123/188/123 97/145/97 100/148/100 122/189/122 
f 102/150/102 101/149/101 127/190/127 126/191/126 
f 128/182/128 109/157/109 112/160/112 124/175/124 
f 120/168/120 119/167/119 121/169/121 125/177/125 
f 100/183/100 119/167/119 118/166/118 122/192/122 
f 98/171/98 97/184/97 112/160/112 111/159/111 
f 101/185/101 109/157/109 128/182/128 127/181/127 
f 102/186/102 120/168/120 125/177/125 103/176/103 
f 129/193/129 130/194/130 131/195/131 132/196/132 
f 133/197/133 134/198/134 135/199/135 136/200/136 
f 137/201/137 138/202/138 139/203/139 140/204/140 
f 141/205/141 142/206/142 143/207/143 144/208/144 
f 145/209/145 146/210/146 147/211/147 148/212/148 
f 149/213/149 150/214/150 151/215/151 152/216/152 
f 138/202/138 153/217/153 130/218/130 
f 129/219/129 143/207/143 139/203/139 
f 150/214/150 147/211/147 154/220/154 
f 155/221/155 146/210/146 156/222/156 
f 137/201/137 134/223/134 157/224/157 
f 142/206/142 135/225/135 140/204/140 
f 149/213/149 158/226/158 148/212/148 
f 145/209/145 159/227/159 160/228/160 
f 151/215/151 131/229/131 130/230/130 153/231/153 
f 155/221/155 154/220/154 147/211/147 146/210/146 
f 132/232/132 155/221/155 156/222/156 144/208/144 
f 138/202/138 130/218/130 129/219/129 139/203/139 
f 140/204/140 135/225/135 134/223/134 137/201/137 
f 136/233/136 135/225/135 142/206/142 141/205/141 
f 148/212/148 158/226/158 159/227/159 145/209/145 
f 133/234/133 158/226/158 149/213/149 152/216/152 
f 140/204/140 139/203/139 143/207/143 142/206/142 
f 138/202/138 137/201/137 157/224/157 153/217/153 
f 160/228/160 156/222/156 146/210/146 145/209/145 
f 148/212/148 147/211/147 150/214/150 149/213/149 
f 132/196/132 131/195/131 154/235/154 155/236/155 
f 158/237/158 133/197/133 136/200/136 159/238/159 
f 160/228/160 141/205/141 144/208/144 156/222/156 
f 152/216/152 151/215/151 153/231/153 157/239/157 
f 131/229/131 151/215/151 150/214/150 154/220/154 
f 129/219/129 132/232/132 144/208/144 143/207/143 
f 136/233/136 141/205/141 160/228/160 159/227/159 
f 134/240/134 133/234/133 152/216/152 157/239/157 
# 130 polygons - 40 triangles

