# 3ds Max Wavefront OBJ Exporter v0.97b - (c)2007 guruware
# File Created: 24.05.2018 16:59:36

mtllib stone01.mtl

#
# object stone01
#

v  0.4028 -0.3146 1.1441
v  1.5135 -0.3146 -0.0894
v  2.9041 -0.3146 0.6677
v  1.7933 -0.3146 1.9011
v  1.1173 0.7667 0.8932
v  1.8529 0.9538 1.2937
v  2.3304 0.9538 0.7628
v  1.5948 0.7667 0.3623
v  0.5156 -0.1916 1.0909
v  1.8347 -0.1940 1.7986
v  1.7602 0.8369 1.4465
v  0.9791 0.6341 1.0108
v  1.9215 -0.1915 1.9277
v  2.9799 -0.1915 0.7523
v  2.5112 0.8635 0.8274
v  1.9928 0.8635 1.4037
v  2.9342 -0.1940 0.5768
v  1.6279 -0.1916 -0.1449
v  1.6896 0.6341 0.2211
v  2.4834 0.8369 0.6428
v  1.3858 -0.1933 -0.1048
v  0.3405 -0.1933 1.0560
v  0.9257 0.6126 0.8290
v  1.4517 0.6126 0.2443
# 24 vertices

vn 0.0000 -1.0000 -0.0000
vn -0.4482 0.8936 -0.0242
vn -0.2898 0.9531 0.0869
vn 0.0004 0.9024 -0.4309
vn -0.1641 0.8622 -0.4793
vn -0.4851 0.3034 0.8201
vn -0.4564 0.2578 0.8516
vn -0.4787 0.2932 0.8276
vn -0.5240 0.3687 0.7678
vn 0.7153 0.2717 0.6438
vn 0.7151 0.2719 0.6440
vn 0.7156 0.2713 0.6437
vn 0.4328 0.2828 -0.8560
vn 0.4567 0.3318 -0.8254
vn 0.4382 0.2936 -0.8496
vn 0.4085 0.2351 -0.8820
vn -0.4253 0.3889 -0.8172
vn -0.8260 0.5097 0.2409
vn -0.7298 0.6237 -0.2799
vn -0.4214 0.5588 -0.7143
vn -0.1721 0.5194 0.8370
vn -0.6683 0.6016 0.4376
vn -0.1549 -0.2832 -0.9465
vn 0.8910 -0.3936 -0.2264
vn -0.6365 0.7298 0.2495
vn 0.2231 0.8731 0.4334
vn 0.2020 0.8671 0.4553
vn 0.0237 0.7871 0.6163
vn -0.0290 0.6344 -0.7724
vn 0.4935 0.8474 -0.1960
vn 0.3985 0.9048 0.1502
vn 0.4297 0.9011 0.0578
vn -0.5613 -0.6553 -0.5055
vn 0.3693 -0.6426 -0.6713
vn 0.3686 -0.6451 -0.6693
vn 0.3763 -0.6175 -0.6907
vn 0.3768 -0.6157 -0.6921
vn 0.5475 -0.6762 0.4930
vn -0.3499 0.6711 0.6536
vn -0.3483 0.6739 0.6516
vn -0.3690 0.6354 0.6783
vn -0.3701 0.6332 0.6798
vn -0.4190 0.8236 0.3823
vn 0.1225 0.7845 -0.6079
vn -0.7288 0.3325 0.5986
vn -0.7906 0.3144 0.5255
vn 0.0508 0.3427 0.9381
vn 0.1346 0.3289 0.9347
vn -0.1936 0.2019 0.9601
vn 0.8854 0.4029 -0.2317
vn 0.8846 0.4020 -0.2363
vn 0.8909 0.4092 -0.1971
vn 0.8915 0.4099 -0.1931
vn -0.1478 0.4044 -0.9025
# 54 vertex normals

vt 0.8357 0.2362 0.0000
vt 0.9061 0.2704 0.0000
vt 0.8785 0.3330 0.0000
vt 0.8093 0.2994 0.0000
vt 0.2269 0.9333 0.0000
vt 0.2003 0.9013 0.0000
vt 0.2350 0.8693 0.0000
vt 0.2633 0.9003 0.0000
vt 0.1300 0.6512 0.0000
vt 0.2029 0.6394 0.0000
vt 0.1985 0.7039 0.0000
vt 0.1528 0.6997 0.0000
vt 0.2134 0.6402 0.0000
vt 0.2945 0.6658 0.0000
vt 0.2598 0.7223 0.0000
vt 0.2093 0.7064 0.0000
vt 0.3036 0.6712 0.0000
vt 0.3565 0.7228 0.0000
vt 0.3099 0.7493 0.0000
vt 0.2701 0.7265 0.0000
vt 0.0579 0.7131 0.0000
vt 0.1198 0.6563 0.0000
vt 0.1423 0.7033 0.0000
vt 0.1028 0.7395 0.0000
vt 0.8270 0.2320 0.0000
vt 0.8396 0.2276 0.0000
vt 0.8054 0.3067 0.0000
vt 0.8019 0.2968 0.0000
vt 0.9097 0.2628 0.0000
vt 0.9146 0.2740 0.0000
vt 0.8857 0.3370 0.0000
vt 0.8750 0.3416 0.0000
vt 0.2209 0.9444 0.0000
vt 0.2331 0.9455 0.0000
vt 0.1906 0.8954 0.0000
vt 0.1894 0.9084 0.0000
vt 0.2748 0.9083 0.0000
vt 0.2753 0.8957 0.0000
vt 0.2433 0.8596 0.0000
vt 0.2306 0.8593 0.0000
vt 0.0520 0.7228 0.0000
vt 0.0983 0.7497 0.0000
# 42 texture coords

g stone01
usemtl wire_177148027
s 1
f 1/1/1 2/2/1 3/3/1 4/4/1 
f 5/5/2 6/6/3 7/7/4 8/8/5 
s 2
f 9/9/6 10/10/7 11/11/8 12/12/9 
s 1
f 13/13/10 14/14/11 15/15/10 16/16/12 
s 2
f 17/17/13 18/18/14 19/19/15 20/20/16 
s 1
f 21/21/17 22/22/18 23/23/19 24/24/20 
s 4
f 9/25/21 22/26/21 1/1/21 
f 4/4/22 13/27/22 10/28/22 
f 21/29/23 18/30/23 2/2/23 
f 3/3/24 17/31/24 14/32/24 
s 1
f 12/33/25 5/5/2 23/34/19 
s 4
f 16/35/26 6/6/27 11/36/28 
s 1
f 24/37/20 8/8/5 19/38/29 
s 4
f 20/39/30 7/7/31 15/40/32 
s 2
f 1/1/33 22/26/33 21/29/33 2/2/33 
s 8
f 2/2/34 18/30/35 17/31/36 3/3/37 
s 2
f 3/3/38 14/32/38 13/27/38 4/4/38 
s 8
f 4/4/39 10/28/40 9/25/41 1/1/42 
s 1
f 5/5/2 12/33/25 11/36/43 6/6/3 
s 4
f 6/6/27 16/35/26 15/40/32 7/7/31 
s 1
f 7/7/4 20/39/44 19/38/29 8/8/5 
f 8/8/5 24/37/20 23/34/19 5/5/2 
s 16
f 10/10/45 13/13/46 16/16/47 11/11/48 
s 1
f 12/12/25 23/23/19 22/22/18 9/9/49 
s 16
f 14/14/50 17/17/51 20/20/52 15/15/53 
s 1
f 18/41/54 21/21/17 24/24/20 19/42/29 
# 18 polygons - 8 triangles

