# 3ds Max Wavefront OBJ Exporter v0.97b - (c)2007 guruware
# File Created: 24.05.2018 16:53:19

mtllib water01.mtl

#
# object water01
#

v  -5.5081 0.2944 5.0352
v  -4.6151 0.2944 5.9671
v  -3.1121 0.2944 6.7123
v  -3.1121 0.2944 5.0352
v  -1.2479 0.2944 6.7123
v  -1.2479 0.2944 5.0352
v  0.6375 0.2944 6.7123
v  0.6375 0.2944 5.0352
v  1.9513 0.2944 6.0819
v  3.0335 0.2944 5.0352
v  -5.7986 0.2944 3.3581
v  -3.1121 0.2944 3.3581
v  -1.2479 0.2944 3.3581
v  0.6375 0.2944 3.3581
v  3.4518 0.2944 3.3581
v  -5.5081 0.2944 1.6811
v  -3.1121 0.2944 1.6811
v  -1.2479 0.2944 1.6811
v  0.6375 0.2944 1.6811
v  3.0335 0.2944 1.6811
v  -4.6151 0.2944 0.7492
v  -3.1121 0.2944 0.0040
v  -1.2479 0.2944 0.0040
v  0.6375 0.2944 0.0040
v  1.9513 0.2944 0.6344
# 25 vertices

vn 0.0000 1.0000 -0.0000
# 1 vertex normals

vt 0.0673 0.1760 0.0000
vt 0.1374 0.1029 0.0000
vt 0.2554 0.0444 0.0000
vt 0.2554 0.1760 0.0000
vt 0.4017 0.0444 0.0000
vt 0.4017 0.1760 0.0000
vt 0.5497 0.0444 0.0000
vt 0.5497 0.1760 0.0000
vt 0.6529 0.0939 0.0000
vt 0.7378 0.1760 0.0000
vt 0.0445 0.3077 0.0000
vt 0.2554 0.3077 0.0000
vt 0.4017 0.3077 0.0000
vt 0.5497 0.3077 0.0000
vt 0.7707 0.3077 0.0000
vt 0.0673 0.4393 0.0000
vt 0.2554 0.4393 0.0000
vt 0.4017 0.4393 0.0000
vt 0.5497 0.4393 0.0000
vt 0.7378 0.4393 0.0000
vt 0.1374 0.5125 0.0000
vt 0.2554 0.5710 0.0000
vt 0.4017 0.5710 0.0000
vt 0.5497 0.5710 0.0000
vt 0.6529 0.5215 0.0000
# 25 texture coords

g water01
usemtl wire_177148027
s 1
f 1/1/1 2/2/1 3/3/1 4/4/1 
f 4/4/1 3/3/1 5/5/1 6/6/1 
f 6/6/1 5/5/1 7/7/1 8/8/1 
f 8/8/1 7/7/1 9/9/1 10/10/1 
f 11/11/1 1/1/1 4/4/1 12/12/1 
f 12/12/1 4/4/1 6/6/1 13/13/1 
f 13/13/1 6/6/1 8/8/1 14/14/1 
f 14/14/1 8/8/1 10/10/1 15/15/1 
f 16/16/1 11/11/1 12/12/1 17/17/1 
f 17/17/1 12/12/1 13/13/1 18/18/1 
f 18/18/1 13/13/1 14/14/1 19/19/1 
f 19/19/1 14/14/1 15/15/1 20/20/1 
f 21/21/1 16/16/1 17/17/1 22/22/1 
f 22/22/1 17/17/1 18/18/1 23/23/1 
f 23/23/1 18/18/1 19/19/1 24/24/1 
f 24/24/1 19/19/1 20/20/1 25/25/1 
# 16 polygons

