# 3ds Max Wavefront OBJ Exporter v0.97b - (c)2007 guruware
# File Created: 01.05.2018 14:11:54

mtllib Axe.mtl

#
# object Axe
#

v  0.0364 0.2082 -0.0210
v  0.0841 -0.0006 -0.0210
v  0.0643 -0.0006 -0.0633
v  0.0166 0.2082 -0.0633
v  0.0125 -0.0006 -0.0895
v  -0.0352 0.2082 -0.0895
v  -0.0515 -0.0006 -0.0895
v  -0.0992 0.2082 -0.0895
v  -0.1033 -0.0006 -0.0633
v  -0.1510 0.2082 -0.0633
v  -0.1231 -0.0006 -0.0210
v  -0.1708 0.2082 -0.0210
v  -0.0515 2.3537 -0.0895
v  -0.1033 2.3537 -0.0633
v  -0.1185 2.3260 -0.0210
v  0.0643 2.3537 -0.0633
v  0.0841 2.3537 -0.0210
v  0.0125 2.3537 -0.0895
v  0.0180 0.4587 -0.0210
v  -0.0018 0.4587 -0.0633
v  0.0099 0.7394 -0.0633
v  0.0297 0.7394 -0.0210
v  -0.0536 0.4587 -0.0895
v  -0.0419 0.7394 -0.0895
v  -0.1177 0.4587 -0.0895
v  -0.1059 0.7394 -0.0895
v  -0.1695 0.4587 -0.0633
v  -0.1577 0.7394 -0.0633
v  -0.1892 0.4587 -0.0210
v  -0.1775 0.7394 -0.0210
v  0.0581 1.0105 -0.0210
v  0.0383 1.0105 -0.0633
v  0.0765 1.3295 -0.0633
v  0.0963 1.3295 -0.0210
v  -0.0135 1.0105 -0.0895
v  0.0247 1.3295 -0.0895
v  -0.0775 1.0105 -0.0895
v  -0.0393 1.3295 -0.0895
v  -0.1293 1.0105 -0.0633
v  -0.0911 1.3295 -0.0633
v  -0.1491 1.0105 -0.0210
v  -0.1109 1.3295 -0.0210
v  0.1214 1.6044 -0.0210
v  0.1016 1.6044 -0.0633
v  0.1082 1.9679 -0.0633
v  0.1279 1.9679 -0.0210
v  0.0498 1.6044 -0.0895
v  0.0564 1.9679 -0.0895
v  -0.0142 1.6044 -0.0895
v  -0.0077 1.9679 -0.0895
v  -0.0660 1.6044 -0.0633
v  -0.0595 1.9679 -0.0633
v  -0.0858 1.6044 -0.0210
v  -0.0793 1.9679 -0.0210
v  -0.6839 1.7779 -0.0732
v  -0.6080 1.5429 -0.0981
v  -0.6885 1.5095 -0.0732
v  -0.8173 1.7398 -0.0347
v  -0.6080 1.5429 -0.0210
v  -0.6885 1.5095 -0.0210
v  0.4210 1.7278 -0.0210
v  0.4210 1.7278 -0.1450
v  0.4177 1.8831 -0.1450
v  0.4177 1.8831 -0.0210
v  0.4085 2.3166 -0.0210
v  0.4085 2.3166 -0.1450
v  -0.1139 2.2982 -0.0832
v  -0.6974 2.4575 -0.0210
v  -0.6974 2.4575 -0.0732
v  -0.8263 2.2203 -0.0347
v  -0.8263 2.2203 -0.0210
v  -0.1139 2.1536 -0.0832
v  -0.6866 2.1958 -0.0732
v  -0.6138 2.4340 -0.0981
v  -0.1139 1.7572 -0.0832
v  -0.1139 1.7572 -0.0210
v  -0.6138 2.4340 -0.0210
v  0.4118 2.1592 -0.1450
v  0.4118 2.1592 -0.0210
v  -0.8493 1.9842 -0.0347
v  -0.8493 1.9842 -0.0210
v  -0.1139 2.0251 -0.0832
v  -0.7128 1.9842 -0.0732
v  0.4148 2.0194 -0.1450
v  0.4148 2.0194 -0.0210
v  -0.8173 1.7398 -0.0210
v  -0.1139 1.8999 -0.0832
v  0.0643 -0.0006 0.0213
v  0.0166 0.2082 0.0213
v  0.0125 -0.0006 0.0474
v  -0.0352 0.2082 0.0474
v  -0.0515 -0.0006 0.0474
v  -0.0992 0.2082 0.0474
v  -0.1033 -0.0006 0.0213
v  -0.1510 0.2082 0.0213
v  -0.0515 2.3537 0.0474
v  0.0125 2.3537 0.0474
v  0.0643 2.3537 0.0213
v  -0.1033 2.3537 0.0213
v  0.0099 0.7394 0.0213
v  -0.0018 0.4587 0.0213
v  -0.0419 0.7394 0.0474
v  -0.0536 0.4587 0.0474
v  -0.1059 0.7394 0.0474
v  -0.1177 0.4587 0.0474
v  -0.1577 0.7394 0.0213
v  -0.1695 0.4587 0.0213
v  0.0765 1.3295 0.0213
v  0.0383 1.0105 0.0213
v  0.0247 1.3295 0.0474
v  -0.0135 1.0105 0.0474
v  -0.0393 1.3295 0.0474
v  -0.0775 1.0105 0.0474
v  -0.0911 1.3295 0.0213
v  -0.1293 1.0105 0.0213
v  0.1082 1.9679 0.0213
v  0.1016 1.6044 0.0213
v  0.0564 1.9679 0.0474
v  0.0498 1.6044 0.0474
v  -0.0077 1.9679 0.0474
v  -0.0142 1.6044 0.0474
v  -0.0595 1.9679 0.0213
v  -0.0660 1.6044 0.0213
v  -0.6839 1.7779 0.0311
v  -0.8173 1.7398 -0.0074
v  -0.6885 1.5095 0.0311
v  -0.6080 1.5429 0.0560
v  0.4177 1.8831 0.1029
v  0.4210 1.7278 0.1029
v  -0.1139 2.2982 0.0411
v  0.4085 2.3166 0.1029
v  -0.8263 2.2203 -0.0074
v  -0.6974 2.4575 0.0311
v  -0.1139 2.1536 0.0411
v  -0.6138 2.4340 0.0560
v  -0.6866 2.1958 0.0311
v  -0.1139 1.7572 0.0411
v  0.4118 2.1592 0.1029
v  -0.8493 1.9842 -0.0074
v  -0.1139 2.0251 0.0411
v  -0.7128 1.9842 0.0311
v  0.4148 2.0194 0.1029
v  -0.1139 1.8999 0.0411
# 143 vertices

vn 0.9795 0.2017 -0.0000
vn 0.9556 0.2946 -0.0000
vn 0.8017 0.2471 -0.5442
vn 0.7907 0.1613 -0.5906
vn 0.3580 0.1103 -0.9272
vn 0.2896 0.0556 -0.9555
vn -0.2533 -0.0781 -0.9642
vn -0.3245 -0.0692 -0.9433
vn -0.7647 -0.2357 -0.5997
vn -0.8037 -0.1613 -0.5728
vn -0.9556 -0.2946 -0.0000
vn -0.9810 -0.1940 -0.0000
vn 0.0005 0.9838 0.1794
vn 0.2667 0.8912 0.3670
vn 0.0244 0.9997 -0.0000
vn -0.0766 0.9950 0.0634
vn -0.1008 0.9949 -0.0000
vn 0.0000 1.0000 -0.0000
vn 0.9998 0.0217 -0.0000
vn 0.8035 0.0173 -0.5951
vn 0.8033 -0.0797 -0.5902
vn 0.9951 -0.0992 -0.0000
vn 0.2950 0.0061 -0.9555
vn 0.3011 -0.0291 -0.9531
vn -0.3227 -0.0072 -0.9465
vn -0.3160 0.0319 -0.9482
vn -0.8140 -0.0173 -0.5806
vn -0.8090 0.0798 -0.5824
vn -0.9998 -0.0210 -0.0000
vn -0.9952 0.0976 -0.0000
vn 0.9887 -0.1502 -0.0000
vn 0.8018 -0.1216 -0.5851
vn 0.8044 -0.1144 -0.5829
vn 0.9901 -0.1404 -0.0000
vn 0.3064 -0.0462 -0.9508
vn 0.3115 -0.0448 -0.9492
vn -0.3098 0.0472 -0.9496
vn -0.3049 0.0430 -0.9514
vn -0.8031 0.1217 -0.5834
vn -0.8019 0.1144 -0.5864
vn -0.9887 0.1496 -0.0000
vn -0.9899 0.1415 -0.0000
vn 0.9974 -0.0727 -0.0000
vn 0.8107 -0.0595 -0.5824
vn 0.8136 0.0519 -0.5791
vn 0.9980 0.0629 -0.0000
vn 0.3175 -0.0240 -0.9480
vn 0.3243 0.0218 -0.9457
vn -0.3000 0.0215 -0.9537
vn -0.2930 -0.0180 -0.9559
vn -0.8041 0.0594 -0.5916
vn -0.8022 -0.0508 -0.5949
vn -0.9973 0.0741 -0.0000
vn -0.9981 -0.0624 -0.0000
vn 0.9884 0.1517 -0.0000
vn 0.7923 0.1216 -0.5979
vn 0.2812 0.0432 -0.9587
vn -0.3352 -0.0514 -0.9408
vn -0.7976 -0.1224 -0.5906
vn -0.9885 -0.1510 -0.0000
vn -0.2200 0.0232 -0.9752
vn -0.1968 0.1092 -0.9743
vn -0.4048 -0.0090 -0.9143
vn -0.3797 -0.0334 -0.9245
vn 0.2997 -0.9540 -0.0000
vn 0.2936 -0.9559 -0.0000
vn 0.3006 -0.9538 -0.0000
vn 0.9996 0.0286 -0.0000
vn -0.0218 0.9998 -0.0000
vn -0.0260 0.9997 -0.0000
vn 0.0779 0.9800 -0.1830
vn 0.0899 0.9960 -0.0000
vn -0.8063 0.5915 -0.0000
vn -0.9208 0.3901 -0.0000
vn -0.9279 0.3727 -0.0000
vn -0.0962 0.0000 -0.9954
vn -0.2108 -0.0244 -0.9772
vn -0.1750 -0.1265 -0.9764
vn -0.0900 -0.0204 -0.9957
vn 0.1282 -0.9917 -0.0000
vn 0.1347 -0.9909 -0.0000
vn 0.1982 0.9802 -0.0000
vn 0.1998 0.9798 -0.0000
vn 0.2032 0.9791 -0.0000
vn -0.1667 -0.0042 -0.9860
vn -0.1676 -0.0048 -0.9858
vn -0.0406 -0.9992 -0.0000
vn -0.3692 0.0254 -0.9290
vn -0.3885 -0.0217 -0.9212
vn -0.9998 -0.0220 -0.0000
vn -0.0957 0.0000 -0.9954
vn -0.2207 -0.0050 -0.9753
vn -0.1654 -0.0045 -0.9862
vn -0.3746 -0.0086 -0.9271
vn -0.9094 -0.4159 -0.0000
vn -0.9167 -0.3995 -0.0000
vn -0.0953 -0.0003 -0.9955
vn -0.1646 -0.0044 -0.9864
vn -0.7980 -0.6027 -0.0000
vn -0.0894 0.0189 -0.9958
vn -0.1641 -0.0047 -0.9864
vn 0.0000 -1.0000 -0.0000
vn 0.8017 0.2471 0.5442
vn 0.7907 0.1613 0.5906
vn 0.3580 0.1103 0.9272
vn 0.2896 0.0556 0.9555
vn -0.2533 -0.0781 0.9642
vn -0.3245 -0.0692 0.9433
vn -0.7647 -0.2357 0.5997
vn -0.8037 -0.1613 0.5728
vn 0.0005 0.9838 -0.1794
vn -0.0766 0.9950 -0.0634
vn 0.2667 0.8912 -0.3670
vn 0.8033 -0.0797 0.5902
vn 0.8035 0.0173 0.5951
vn 0.3011 -0.0291 0.9531
vn 0.2950 0.0061 0.9555
vn -0.3160 0.0319 0.9482
vn -0.3227 -0.0072 0.9465
vn -0.8090 0.0798 0.5824
vn -0.8140 -0.0173 0.5806
vn 0.8044 -0.1144 0.5829
vn 0.8018 -0.1216 0.5851
vn 0.3115 -0.0448 0.9492
vn 0.3064 -0.0462 0.9508
vn -0.3049 0.0430 0.9514
vn -0.3098 0.0472 0.9496
vn -0.8019 0.1144 0.5864
vn -0.8031 0.1217 0.5834
vn 0.8136 0.0519 0.5791
vn 0.8107 -0.0595 0.5824
vn 0.3243 0.0218 0.9457
vn 0.3175 -0.0240 0.9480
vn -0.2930 -0.0180 0.9559
vn -0.3000 0.0215 0.9537
vn -0.8022 -0.0508 0.5949
vn -0.8041 0.0594 0.5916
vn 0.7923 0.1216 0.5979
vn 0.2812 0.0432 0.9587
vn -0.3352 -0.0514 0.9408
vn -0.7976 -0.1224 0.5906
vn -0.2200 0.0232 0.9752
vn -0.3797 -0.0334 0.9245
vn -0.4048 -0.0090 0.9143
vn -0.1968 0.1092 0.9743
vn 0.0779 0.9800 0.1830
vn -0.0962 0.0000 0.9954
vn -0.0900 -0.0204 0.9957
vn -0.1750 -0.1265 0.9764
vn -0.2108 -0.0244 0.9772
vn -0.1667 -0.0042 0.9860
vn -0.1676 -0.0048 0.9858
vn -0.3885 -0.0217 0.9212
vn -0.3692 0.0254 0.9290
vn -0.0957 0.0000 0.9954
vn -0.2207 -0.0050 0.9753
vn -0.1654 -0.0045 0.9862
vn -0.3746 -0.0086 0.9271
vn -0.0953 -0.0003 0.9955
vn -0.1646 -0.0044 0.9864
vn -0.0894 0.0189 0.9958
vn -0.1641 -0.0047 0.9864
# 162 vertex normals

vt 0.1915 0.5314 0.0000
vt 0.1156 0.5433 0.0000
vt 0.1136 0.5130 0.0000
vt 0.1898 0.5009 0.0000
vt 0.1160 0.4831 0.0000
vt 0.1911 0.4710 0.0000
vt 0.1202 0.4531 0.0000
vt 0.1938 0.4421 0.0000
vt 0.1232 0.4227 0.0000
vt 0.1956 0.4142 0.0000
vt 0.1228 0.3919 0.0000
vt 0.1953 0.3869 0.0000
vt 0.6467 0.2454 -0.0000
vt 0.6148 0.2222 -0.0000
vt 0.6026 0.1846 -0.0000
vt 0.7181 0.2222 -0.0000
vt 0.7303 0.1846 -0.0000
vt 0.6862 0.2454 -0.0000
vt 0.2796 0.5245 0.0000
vt 0.2779 0.4946 0.0000
vt 0.3754 0.4898 0.0000
vt 0.3775 0.5198 0.0000
vt 0.2767 0.4650 0.0000
vt 0.3718 0.4605 0.0000
vt 0.2756 0.4363 0.0000
vt 0.3676 0.4318 0.0000
vt 0.2744 0.4086 0.0000
vt 0.3639 0.4036 0.0000
vt 0.2728 0.3816 0.0000
vt 0.3612 0.3755 0.0000
vt 0.4727 0.5163 0.0000
vt 0.4702 0.4863 0.0000
vt 0.5825 0.4824 0.0000
vt 0.5848 0.5124 0.0000
vt 0.4655 0.4568 0.0000
vt 0.5779 0.4524 0.0000
vt 0.4598 0.4277 0.0000
vt 0.5724 0.4225 0.0000
vt 0.4548 0.3986 0.0000
vt 0.5673 0.3922 0.0000
vt 0.4516 0.3693 0.0000
vt 0.5641 0.3616 0.0000
vt 0.6809 0.5093 0.0000
vt 0.6789 0.4790 0.0000
vt 0.8062 0.4724 0.0000
vt 0.8081 0.5027 0.0000
vt 0.6756 0.4486 0.0000
vt 0.8052 0.4416 0.0000
vt 0.6717 0.4178 0.0000
vt 0.8047 0.4101 0.0000
vt 0.6680 0.3864 0.0000
vt 0.8039 0.3778 0.0000
vt 0.6653 0.3546 0.0000
vt 0.8022 0.3452 0.0000
vt 0.9451 0.4877 -0.0000
vt 0.9431 0.4569 0.0000
vt 0.9435 0.4262 0.0000
vt 0.9449 0.3958 0.0000
vt 0.9459 0.3655 0.0000
vt 0.9451 0.3354 -0.0000
vt 0.1351 0.8675 0.0000
vt 0.1824 0.9632 0.0000
vt 0.1344 0.9773 0.0000
vt 0.0558 0.8852 0.0000
vt 0.1531 0.0972 1.0527
vt 0.1299 0.0988 1.0527
vt 0.1285 0.0781 1.0527
vt 0.1510 0.0666 1.0527
vt 0.4434 0.0773 -6.0723
vt 0.4401 0.0286 1.0527
vt 0.4718 0.0265 1.0527
vt 0.4751 0.0751 1.0527
vt 0.5635 0.0692 1.0527
vt 0.5603 0.0205 1.0527
vt 0.7058 0.0353 1.0527
vt 0.7075 0.0600 1.0527
vt 0.8714 0.0490 1.0527
vt 0.8700 0.0283 1.0527
vt 0.9311 0.0395 1.0527
vt 0.9314 0.0449 1.0527
vt 0.4451 0.7039 0.0000
vt 0.1281 0.6964 0.0000
vt 0.1672 0.5964 0.0000
vt 0.4435 0.6450 0.0000
vt 0.2943 0.0630 1.0527
vt 0.2960 0.0876 1.0527
vt 0.8479 0.0506 1.0527
vt 0.8458 0.0200 1.0527
vt 0.7378 0.6922 0.0000
vt 0.7340 0.6283 0.0000
vt 0.0448 0.6897 0.0000
vt 0.1170 0.5897 0.0000
vt 0.5314 0.0714 1.0527
vt 0.5281 0.0227 1.0527
vt 0.9796 0.0363 1.0527
vt 0.9800 0.0417 6.0723
vt 0.4468 0.7561 0.0000
vt 0.1173 0.7835 0.0000
vt 0.7412 0.7490 0.0000
vt 0.0363 0.7862 0.0000
vt 0.5029 0.0733 1.0527
vt 0.4996 0.0246 1.0527
vt 0.0204 0.1061 1.0527
vt 0.0200 0.1007 1.0527
vt 0.0706 0.0973 1.0527
vt 0.0710 0.1027 1.0527
vt 0.4484 0.8070 0.0000
vt 0.7446 0.8043 0.0000
vt 0.4506 0.8651 0.0000
vt 0.7485 0.8673 0.0000
vt 0.8414 0.1239 0.0000
vt 0.8734 0.1471 0.0000
vt 0.8856 0.1846 0.0000
vt 0.7700 0.1471 0.0000
vt 0.7578 0.1846 0.0000
vt 0.8020 0.1239 0.0000
# 116 texture coords

g Axe
usemtl wire_088088225
s 8
f 1/1/1 2/2/2 3/3/3 4/4/4 
f 4/4/4 3/3/3 5/5/5 6/6/6 
f 6/6/6 5/5/5 7/7/7 8/8/8 
f 8/8/8 7/7/7 9/9/9 10/10/10 
f 10/10/10 9/9/9 11/11/11 12/12/12 
s 1
f 13/13/13 14/14/14 15/15/15 16/16/16 
f 15/15/15 17/17/17 16/16/16 
f 13/13/13 16/16/16 18/18/18 
s 8
f 19/19/19 20/20/20 21/21/21 22/22/22 
f 20/20/20 23/23/23 24/24/24 21/21/21 
f 23/23/23 25/25/25 26/26/26 24/24/24 
f 25/25/25 27/27/27 28/28/28 26/26/26 
f 27/27/27 29/29/29 30/30/30 28/28/28 
f 31/31/31 32/32/32 33/33/33 34/34/34 
f 32/32/32 35/35/35 36/36/36 33/33/33 
f 35/35/35 37/37/37 38/38/38 36/36/36 
f 37/37/37 39/39/39 40/40/40 38/38/38 
f 39/39/39 41/41/41 42/42/42 40/40/40 
f 43/43/43 44/44/44 45/45/45 46/46/46 
f 44/44/44 47/47/47 48/48/48 45/45/45 
f 47/47/47 49/49/49 50/50/50 48/48/48 
f 49/49/49 51/51/51 52/52/52 50/50/50 
f 51/51/51 53/53/53 54/54/54 52/52/52 
f 22/22/22 21/21/21 32/32/32 31/31/31 
f 21/21/21 24/24/24 35/35/35 32/32/32 
f 24/24/24 26/26/26 37/37/37 35/35/35 
f 26/26/26 28/28/28 39/39/39 37/37/37 
f 28/28/28 30/30/30 41/41/41 39/39/39 
f 34/34/34 33/33/33 44/44/44 43/43/43 
f 33/33/33 36/36/36 47/47/47 44/44/44 
f 36/36/36 38/38/38 49/49/49 47/47/47 
f 38/38/38 40/40/40 51/51/51 49/49/49 
f 40/40/40 42/42/42 53/53/53 51/51/51 
f 19/19/19 1/1/1 4/4/4 20/20/20 
f 20/20/20 4/4/4 6/6/6 23/23/23 
f 23/23/23 6/6/6 8/8/8 25/25/25 
f 25/25/25 8/8/8 10/10/10 27/27/27 
f 27/27/27 10/10/10 12/12/12 29/29/29 
f 17/55/55 46/46/46 45/45/45 16/56/56 
f 16/56/56 45/45/45 48/48/48 18/57/57 
f 18/57/57 48/48/48 50/50/50 13/58/58 
f 13/58/58 50/50/50 52/52/52 14/59/59 
f 52/52/52 54/54/54 15/60/60 14/59/59 
s 2
f 55/61/61 56/62/62 57/63/63 58/64/64 
s 8
f 59/65/65 60/66/66 57/67/66 56/68/67 
s 16
f 61/69/68 62/70/68 63/71/68 64/72/68 
s 32
f 65/73/69 66/74/70 67/75/71 15/76/72 
s 64
f 68/77/73 69/78/73 70/79/74 71/80/75 
s 2
f 72/81/76 73/82/77 74/83/78 67/84/79 
s 8
f 59/65/65 56/68/67 75/85/80 76/86/81 
s 32
f 77/87/82 74/88/83 69/78/84 68/77/84 
f 15/76/72 67/75/71 74/88/83 77/87/82 
s 2
f 78/89/85 72/81/76 67/84/79 66/90/86 
s 8
f 61/69/87 76/86/81 75/85/80 62/70/87 
s 2
f 73/82/77 70/91/88 69/92/89 74/83/78 
s 16
f 79/93/68 78/94/68 66/74/68 65/73/68 
s 64
f 71/80/75 70/79/74 80/95/90 81/96/90 
s 2
f 73/82/77 72/81/76 82/97/91 83/98/92 
f 82/97/91 72/81/76 78/89/85 84/99/93 
f 83/98/92 80/100/94 70/91/88 73/82/77 
s 16
f 85/101/68 84/102/68 78/94/68 79/93/68 
s 64
f 81/103/90 80/104/90 58/105/95 86/106/96 
s 2
f 83/98/92 82/97/91 87/107/97 55/61/61 
f 87/107/97 82/97/91 84/99/93 63/108/98 
f 55/61/61 58/64/64 80/100/94 83/98/92 
s 16
f 64/72/68 63/71/68 84/102/68 85/101/68 
s 64
f 60/66/99 86/106/96 58/105/95 57/67/99 
s 2
f 55/61/61 87/107/97 75/109/100 56/62/62 
f 75/109/100 87/107/97 63/108/98 62/110/101 
s 1
f 5/111/102 3/112/102 2/113/102 9/114/102 
f 2/113/102 11/115/102 9/114/102 
f 5/111/102 9/114/102 7/116/102 
s 8
f 88/3/103 2/2/2 1/1/1 89/4/104 
f 90/5/105 88/3/103 89/4/104 91/6/106 
f 92/7/107 90/5/105 91/6/106 93/8/108 
f 94/9/109 92/7/107 93/8/108 95/10/110 
f 11/11/11 94/9/109 95/10/110 12/12/12 
s 1
f 96/13/111 97/18/18 98/16/112 15/15/15 
f 98/16/112 17/17/17 15/15/15 
f 96/13/111 15/15/15 99/14/113 
s 8
f 100/21/114 101/20/115 19/19/19 22/22/22 
f 102/24/116 103/23/117 101/20/115 100/21/114 
f 104/26/118 105/25/119 103/23/117 102/24/116 
f 106/28/120 107/27/121 105/25/119 104/26/118 
f 30/30/30 29/29/29 107/27/121 106/28/120 
f 108/33/122 109/32/123 31/31/31 34/34/34 
f 110/36/124 111/35/125 109/32/123 108/33/122 
f 112/38/126 113/37/127 111/35/125 110/36/124 
f 114/40/128 115/39/129 113/37/127 112/38/126 
f 42/42/42 41/41/41 115/39/129 114/40/128 
f 116/45/130 117/44/131 43/43/43 46/46/46 
f 118/48/132 119/47/133 117/44/131 116/45/130 
f 120/50/134 121/49/135 119/47/133 118/48/132 
f 122/52/136 123/51/137 121/49/135 120/50/134 
f 54/54/54 53/53/53 123/51/137 122/52/136 
f 109/32/123 100/21/114 22/22/22 31/31/31 
f 111/35/125 102/24/116 100/21/114 109/32/123 
f 113/37/127 104/26/118 102/24/116 111/35/125 
f 115/39/129 106/28/120 104/26/118 113/37/127 
f 41/41/41 30/30/30 106/28/120 115/39/129 
f 117/44/131 108/33/122 34/34/34 43/43/43 
f 119/47/133 110/36/124 108/33/122 117/44/131 
f 121/49/135 112/38/126 110/36/124 119/47/133 
f 123/51/137 114/40/128 112/38/126 121/49/135 
f 53/53/53 42/42/42 114/40/128 123/51/137 
f 19/19/19 101/20/115 89/4/104 1/1/1 
f 101/20/115 103/23/117 91/6/106 89/4/104 
f 103/23/117 105/25/119 93/8/108 91/6/106 
f 105/25/119 107/27/121 95/10/110 93/8/108 
f 107/27/121 29/29/29 12/12/12 95/10/110 
f 17/55/55 98/56/138 116/45/130 46/46/46 
f 98/56/138 97/57/139 118/48/132 116/45/130 
f 97/57/139 96/58/140 120/50/134 118/48/132 
f 96/58/140 99/59/141 122/52/136 120/50/134 
f 15/60/60 54/54/54 122/52/136 99/59/141 
s 2
f 124/61/142 125/64/143 126/63/144 127/62/145 
s 8
f 59/65/65 127/68/67 126/67/66 60/66/66 
s 16
f 128/71/68 129/70/68 61/69/68 64/72/68 
s 32
f 130/75/146 131/74/70 65/73/69 15/76/72 
s 64
f 132/79/74 133/78/73 68/77/73 71/80/75 
s 2
f 134/81/147 130/84/148 135/83/149 136/82/150 
s 8
f 137/85/80 127/68/67 59/65/65 76/86/81 
s 32
f 133/78/84 135/88/83 77/87/82 68/77/84 
f 135/88/83 130/75/146 15/76/72 77/87/82 
s 2
f 138/89/151 131/90/152 130/84/148 134/81/147 
s 8
f 61/69/87 129/70/87 137/85/80 76/86/81 
s 2
f 133/92/153 132/91/154 136/82/150 135/83/149 
s 16
f 131/74/68 138/94/68 79/93/68 65/73/68 
s 64
f 139/95/90 132/79/74 71/80/75 81/96/90 
s 2
f 140/97/155 134/81/147 136/82/150 141/98/156 
f 140/97/155 142/99/157 138/89/151 134/81/147 
f 132/91/154 139/100/158 141/98/156 136/82/150 
s 16
f 138/94/68 142/102/68 85/101/68 79/93/68 
s 64
f 125/105/95 139/104/90 81/103/90 86/106/96 
s 2
f 143/107/159 140/97/155 141/98/156 124/61/142 
f 143/107/159 128/108/160 142/99/157 140/97/155 
f 139/100/158 125/64/143 124/61/142 141/98/156 
s 16
f 142/102/68 128/71/68 64/72/68 85/101/68 
s 64
f 60/66/99 126/67/99 125/105/95 86/106/96 
s 2
f 137/109/161 143/107/159 124/61/142 127/62/145 
f 137/109/161 129/110/162 128/108/160 143/107/159 
s 1
f 90/111/102 92/116/102 94/114/102 2/113/102 
f 94/114/102 11/115/102 2/113/102 
f 90/111/102 2/113/102 88/112/102 
# 136 polygons - 8 triangles

