# 3ds Max Wavefront OBJ Exporter v0.97b - (c)2007 guruware
# File Created: 01.05.2018 14:13:49

mtllib Shovel.mtl

#
# object shovel
#

v  -0.0175 0.6714 -0.0297
v  -0.0109 0.6714 0.0212
v  -0.0531 0.9991 0.0212
v  -0.0696 0.9991 -0.0297
v  0.0063 0.6714 0.0526
v  -0.0099 0.9991 0.0526
v  0.0436 0.9991 0.0526
v  0.0275 0.6714 0.0526
v  0.0447 0.6714 0.0212
v  0.0869 0.9991 0.0212
v  0.0512 0.6714 -0.0297
v  0.1034 0.9991 -0.0297
v  -0.0331 2.3574 -0.0297
v  -0.0696 2.2940 -0.0297
v  -0.0531 2.2940 0.0212
v  -0.0236 2.3574 -0.0003
v  -0.0099 2.2940 0.0526
v  0.0014 2.3574 0.0179
v  0.0436 2.2940 0.0526
v  0.0323 2.3574 0.0179
v  0.0869 2.2940 0.0212
v  0.0573 2.3574 -0.0003
v  0.1034 2.2940 -0.0297
v  0.0669 2.3574 -0.0297
v  -0.3163 0.1785 -0.0029
v  -0.1463 0.0677 -0.0029
v  -0.1573 0.3645 -0.0029
v  -0.3900 0.3510 -0.0029
v  0.0225 -0.0029 -0.0029
v  0.0225 0.3753 -0.0029
v  -0.3900 0.9900 0.0265
v  -0.1611 1.0302 0.0265
v  0.0225 1.0625 0.0265
v  0.3614 0.1785 -0.0029
v  0.4351 0.3510 -0.0029
v  0.2024 0.3645 -0.0029
v  0.1914 0.0677 -0.0029
v  0.4351 0.9900 0.0265
v  0.2062 1.0302 0.0265
v  0.3975 2.1753 0.0212
v  0.2870 2.2248 0.0212
v  0.2840 2.2087 -0.0297
v  0.3932 2.1593 -0.0297
v  0.4087 2.2170 0.0526
v  0.2948 2.2669 0.0526
v  0.4225 2.2687 0.0526
v  0.3044 2.3190 0.0526
v  0.4337 2.3105 0.0212
v  0.3123 2.3611 0.0212
v  0.4380 2.3264 -0.0297
v  0.3152 2.3772 -0.0297
v  -0.3410 2.1616 -0.0297
v  -0.3466 2.1771 0.0212
v  -0.3614 2.2177 0.0526
v  -0.3945 2.3086 0.0212
v  -0.3797 2.2680 0.0526
v  -0.4001 2.3242 -0.0297
v  -0.2527 2.2029 -0.0297
v  -0.2570 2.2186 0.0212
v  -0.2683 2.2598 0.0526
v  -0.2822 2.3108 0.0526
v  -0.2935 2.3520 0.0212
v  -0.2978 2.3677 -0.0297
v  -0.1214 2.2430 -0.0297
v  -0.1237 2.2590 0.0212
v  -0.1299 2.3009 0.0526
v  -0.1376 2.3526 0.0526
v  -0.1438 2.3944 0.0212
v  -0.1462 2.4104 -0.0297
v  0.0170 2.2580 -0.0297
v  0.0165 2.2741 0.0212
v  0.0154 2.3163 0.0526
v  0.0140 2.3685 0.0526
v  0.0128 2.4107 0.0212
v  0.0123 2.4269 -0.0297
v  0.1468 2.2632 0.0212
v  0.1456 2.2470 -0.0297
v  0.1501 2.3055 0.0526
v  0.1542 2.3578 0.0526
v  0.1575 2.4001 0.0212
v  0.1587 2.4163 -0.0297
v  -0.3163 0.1785 -0.0297
v  -0.1463 0.0677 -0.0297
v  -0.3900 0.9900 -0.0297
v  -0.3900 0.3510 -0.0297
v  0.0225 -0.0029 -0.0297
v  -0.1611 1.0302 -0.0297
v  0.0225 1.0625 -0.0297
v  0.1914 0.0677 -0.0297
v  0.3614 0.1785 -0.0297
v  0.4351 0.3510 -0.0297
v  0.4351 0.9900 -0.0297
v  0.2062 1.0302 -0.0297
v  -0.0531 0.9991 -0.0805
v  -0.0109 0.6714 -0.0805
v  -0.0099 0.9991 -0.1119
v  0.0063 0.6714 -0.1119
v  0.0436 0.9991 -0.1119
v  0.0275 0.6714 -0.1119
v  0.0869 0.9991 -0.0805
v  0.0447 0.6714 -0.0805
v  -0.0236 2.3574 -0.0591
v  -0.0531 2.2940 -0.0805
v  0.0014 2.3574 -0.0772
v  -0.0099 2.2940 -0.1119
v  0.0323 2.3574 -0.0772
v  0.0436 2.2940 -0.1119
v  0.0573 2.3574 -0.0591
v  0.0869 2.2940 -0.0805
v  -0.3163 0.1785 -0.0565
v  -0.3900 0.3510 -0.0565
v  -0.1573 0.3645 -0.0565
v  -0.1463 0.0677 -0.0565
v  0.0225 0.3753 -0.0565
v  0.0225 -0.0029 -0.0565
v  -0.3900 0.9900 -0.0858
v  -0.1611 1.0302 -0.0858
v  0.0225 1.0625 -0.0858
v  0.3614 0.1785 -0.0565
v  0.1914 0.0677 -0.0565
v  0.2024 0.3645 -0.0565
v  0.4351 0.3510 -0.0565
v  0.4351 0.9900 -0.0858
v  0.2062 1.0302 -0.0858
v  0.2870 2.2248 -0.0805
v  0.3975 2.1753 -0.0805
v  0.2948 2.2669 -0.1119
v  0.4087 2.2170 -0.1119
v  0.3044 2.3190 -0.1119
v  0.4225 2.2687 -0.1119
v  0.3123 2.3611 -0.0805
v  0.4337 2.3105 -0.0805
v  -0.3945 2.3086 -0.0805
v  -0.3797 2.2680 -0.1119
v  -0.3614 2.2177 -0.1119
v  -0.3466 2.1771 -0.0805
v  -0.2570 2.2186 -0.0805
v  -0.2683 2.2598 -0.1119
v  -0.2822 2.3108 -0.1119
v  -0.2935 2.3520 -0.0805
v  -0.1237 2.2590 -0.0805
v  -0.1299 2.3009 -0.1119
v  -0.1376 2.3526 -0.1119
v  -0.1438 2.3944 -0.0805
v  0.0165 2.2741 -0.0805
v  0.0154 2.3163 -0.1119
v  0.0140 2.3685 -0.1119
v  0.0128 2.4107 -0.0805
v  0.1468 2.2632 -0.0805
v  0.1501 2.3055 -0.1119
v  0.1542 2.3578 -0.1119
v  0.1575 2.4001 -0.0805
# 152 vertices

vn -0.9887 -0.1498 -0.0000
vn -0.9390 -0.1278 0.3193
vn -0.8163 -0.0397 0.5763
vn -0.9981 -0.0616 -0.0000
vn -0.4792 -0.0563 0.8759
vn -0.3131 -0.0074 0.9497
vn 0.3197 -0.0190 0.9473
vn 0.4986 -0.0233 0.8665
vn 0.9395 -0.0834 0.3323
vn 0.8141 -0.0563 0.5780
vn 0.9922 -0.1243 -0.0000
vn 0.9973 -0.0740 -0.0000
vn -0.8769 0.4807 -0.0000
vn -0.9715 0.2371 -0.0000
vn -0.7859 0.2371 0.5710
vn -0.7094 0.4807 0.5154
vn -0.3002 0.2371 0.9239
vn -0.2710 0.4807 0.8340
vn 0.3002 0.2371 0.9239
vn 0.2710 0.4807 0.8340
vn 0.7859 0.2371 0.5710
vn 0.7094 0.4807 0.5154
vn 0.9715 0.2371 -0.0000
vn 0.8769 0.4807 -0.0000
vn 0.0000 0.0000 1.0000
vn 0.0016 -0.0213 0.9998
vn 0.0015 -0.0239 0.9997
vn 0.0000 -0.0217 0.9998
vn 0.0068 -0.0422 0.9991
vn 0.0072 -0.0413 0.9991
vn 0.0000 -0.0406 0.9992
vn -0.0015 -0.0239 0.9997
vn -0.0016 -0.0213 0.9998
vn -0.0068 -0.0422 0.9991
vn -0.0072 -0.0413 0.9991
vn -0.3495 -0.7385 0.5767
vn -0.2806 -0.7474 0.6023
vn -0.3561 -0.9345 -0.0000
vn -0.4294 -0.9031 -0.0000
vn -0.1426 -0.3044 0.9418
vn -0.0980 -0.2725 0.9571
vn 0.1112 0.2483 0.9623
vn 0.1070 0.2984 0.9484
vn 0.3193 0.7236 0.6118
vn 0.2650 0.7637 0.5887
vn 0.4009 0.9161 -0.0000
vn 0.3248 0.9458 -0.0000
vn -0.9449 -0.3273 -0.0000
vn 0.3559 -0.7275 0.5865
vn 0.4414 -0.8973 -0.0000
vn 0.3751 -0.9270 -0.0000
vn 0.2964 -0.7404 0.6033
vn 0.1399 -0.2895 0.9469
vn 0.1055 -0.2711 0.9567
vn -0.1186 0.2570 0.9591
vn -0.1119 0.2933 0.9495
vn -0.3284 0.7233 0.6074
vn -0.2816 0.7563 0.5905
vn -0.4105 0.9119 -0.0000
vn -0.3463 0.9381 -0.0000
vn 0.2109 -0.9775 -0.0000
vn 0.1662 -0.7786 0.6051
vn 0.0581 -0.2808 0.9580
vn -0.0645 0.3125 0.9477
vn -0.1598 0.7935 0.5872
vn -0.1960 0.9806 -0.0000
vn 0.0114 -0.9999 -0.0000
vn 0.0093 -0.7956 0.6057
vn 0.0037 -0.2855 0.9584
vn -0.0044 0.3196 0.9475
vn -0.0125 0.8092 0.5874
vn -0.0161 0.9999 -0.0000
vn -0.1467 -0.7829 0.6046
vn -0.1868 -0.9824 -0.0000
vn -0.0502 -0.2816 0.9582
vn 0.0561 0.3147 0.9475
vn 0.1353 0.7977 0.5877
vn 0.1647 0.9864 -0.0000
vn 0.9690 -0.2471 -0.0000
vn -0.5651 -0.8250 -0.0000
vn -0.4859 -0.8740 -0.0000
vn -1.0000 0.0000 -0.0000
vn -0.9814 -0.1918 -0.0000
vn -0.9819 -0.1892 -0.0000
vn -0.9264 -0.3765 -0.0000
vn 0.0000 -1.0000 -0.0000
vn -0.1817 0.9834 -0.0000
vn 0.0000 1.0000 -0.0000
vn 0.4859 -0.8740 -0.0000
vn 0.5651 -0.8250 -0.0000
vn 0.9819 -0.1892 -0.0000
vn 0.9814 -0.1918 -0.0000
vn 1.0000 0.0000 -0.0000
vn 0.9264 -0.3765 -0.0000
vn 0.1817 0.9834 -0.0000
vn -0.8163 -0.0397 -0.5763
vn -0.9390 -0.1278 -0.3193
vn -0.3131 -0.0074 -0.9497
vn -0.4792 -0.0563 -0.8759
vn 0.3197 -0.0190 -0.9473
vn 0.4986 -0.0233 -0.8665
vn 0.8141 -0.0563 -0.5780
vn 0.9395 -0.0834 -0.3323
vn -0.7094 0.4807 -0.5154
vn -0.7859 0.2371 -0.5710
vn -0.2710 0.4807 -0.8340
vn -0.3002 0.2371 -0.9239
vn 0.2710 0.4807 -0.8340
vn 0.3002 0.2371 -0.9239
vn 0.7094 0.4807 -0.5154
vn 0.7859 0.2371 -0.5710
vn 0.0000 0.0000 -1.0000
vn 0.0015 -0.0239 -0.9997
vn 0.0016 -0.0213 -0.9998
vn 0.0000 -0.0217 -0.9998
vn 0.0068 -0.0422 -0.9991
vn 0.0072 -0.0413 -0.9991
vn 0.0000 -0.0406 -0.9992
vn -0.0016 -0.0213 -0.9998
vn -0.0015 -0.0239 -0.9997
vn -0.0068 -0.0422 -0.9991
vn -0.0072 -0.0413 -0.9991
vn -0.2806 -0.7474 -0.6023
vn -0.3495 -0.7385 -0.5767
vn -0.0980 -0.2725 -0.9571
vn -0.1426 -0.3044 -0.9418
vn 0.1070 0.2984 -0.9484
vn 0.1112 0.2483 -0.9623
vn 0.2650 0.7637 -0.5887
vn 0.3193 0.7236 -0.6118
vn 0.3559 -0.7275 -0.5865
vn 0.2964 -0.7404 -0.6033
vn 0.1399 -0.2895 -0.9469
vn 0.1055 -0.2711 -0.9567
vn -0.1186 0.2570 -0.9591
vn -0.1119 0.2933 -0.9495
vn -0.3284 0.7233 -0.6074
vn -0.2816 0.7563 -0.5905
vn 0.1662 -0.7786 -0.6051
vn 0.0581 -0.2808 -0.9580
vn -0.0645 0.3125 -0.9477
vn -0.1598 0.7935 -0.5872
vn 0.0093 -0.7956 -0.6057
vn 0.0037 -0.2855 -0.9584
vn -0.0044 0.3196 -0.9475
vn -0.0125 0.8092 -0.5874
vn -0.1467 -0.7829 -0.6046
vn -0.0502 -0.2816 -0.9582
vn 0.0561 0.3147 -0.9475
vn 0.1353 0.7977 -0.5877
# 150 vertex normals

vt 0.0724 0.0626 0.0000
vt 0.0999 0.0627 0.0000
vt 0.0887 0.2351 0.0000
vt 0.0645 0.2357 0.0000
vt 0.1192 0.0629 0.0000
vt 0.1126 0.2347 0.0000
vt 0.1373 0.2346 0.0000
vt 0.1305 0.0628 0.0000
vt 0.1490 0.0625 0.0000
vt 0.1615 0.2348 0.0000
vt 0.1761 0.0619 0.0000
vt 0.1858 0.2348 0.0000
vt 0.0685 0.9506 -0.0000
vt 0.0650 0.9136 0.0000
vt 0.0894 0.9136 0.0000
vt 0.0907 0.9508 0.0000
vt 0.1135 0.9135 0.0000
vt 0.1140 0.9508 0.0000
vt 0.1375 0.9135 0.0000
vt 0.1377 0.9508 0.0000
vt 0.1614 0.9134 0.0000
vt 0.1614 0.9506 0.0000
vt 0.1853 0.9130 0.0000
vt 0.1849 0.9502 -0.0000
vt 0.6276 0.5457 0.0000
vt 0.7043 0.4961 0.0000
vt 0.6958 0.6342 0.0000
vt 0.5928 0.6252 0.0000
vt 0.7800 0.4651 0.0000
vt 0.7753 0.6413 0.0000
vt 0.5850 0.9231 0.0000
vt 0.6860 0.9445 0.0000
vt 0.7669 0.9617 0.0000
vt 0.9279 0.5536 0.0000
vt 0.9584 0.6348 0.0000
vt 0.8551 0.6384 0.0000
vt 0.8539 0.5000 0.0000
vt 0.9506 0.9327 0.0000
vt 0.8487 0.9488 0.0000
vt 0.4352 0.3378 0.0000
vt 0.4903 0.3265 0.0000
vt 0.4930 0.3509 0.0000
vt 0.4391 0.3619 0.0000
vt 0.4324 0.3123 0.0000
vt 0.4887 0.3014 0.0000
vt 0.4298 0.2849 0.0000
vt 0.4877 0.2760 0.0000
vt 0.4277 0.2562 0.0000
vt 0.4870 0.2510 0.0000
vt 0.4268 0.2270 0.0000
vt 0.4867 0.2266 0.0000
vt 0.9491 0.1423 -29.5344
vt 0.9684 0.1573 0.0000
vt 0.9752 0.1814 0.0000
vt 0.9467 0.2201 0.0000
vt 0.9669 0.2054 0.0000
vt 0.9222 0.2200 29.5344
vt 0.7971 0.3348 0.0000
vt 0.7928 0.3588 0.0000
vt 0.7491 0.3499 0.0000
vt 0.7522 0.3255 0.0000
vt 0.8012 0.3096 0.0000
vt 0.7549 0.3003 0.0000
vt 0.8055 0.2825 0.0000
vt 0.7574 0.2748 0.0000
vt 0.8088 0.2539 0.0000
vt 0.7592 0.2497 0.0000
vt 0.8099 0.2248 45.9359
vt 0.7597 0.2251 0.0000
vt 0.6858 0.3444 0.0000
vt 0.6871 0.3201 0.0000
vt 0.6883 0.2957 0.0000
vt 0.6893 0.2716 0.0000
vt 0.6900 0.2482 0.0000
vt 0.6902 0.2255 0.0000
vt 0.6203 0.3434 0.0000
vt 0.6203 0.3191 0.0000
vt 0.6206 0.2949 0.0000
vt 0.6209 0.2712 0.0000
vt 0.6210 0.2482 0.0000
vt 0.6210 0.2259 0.0000
vt 0.5583 0.3208 0.0000
vt 0.5594 0.3451 0.0000
vt 0.5579 0.2964 0.0000
vt 0.5578 0.2723 0.0000
vt 0.5578 0.2489 0.0000
vt 0.5578 0.2262 0.0000
vt 0.9015 0.3465 0.0000
vt 0.8826 0.3301 0.0000
vt 0.8763 0.3054 0.0000
vt 0.9055 0.2686 0.0000
vt 0.8851 0.2819 0.0000
vt 0.9259 0.3484 0.0000
vt 0.4009 0.6114 0.0000
vt 0.3932 0.6118 0.0000
vt 0.3907 0.5528 0.0000
vt 0.3984 0.5524 0.0000
vt 0.4203 0.8600 0.0000
vt 0.4041 0.8607 0.0000
vt 0.3957 0.6678 0.0000
vt 0.4034 0.6675 0.0000
vt 0.3884 0.5000 0.0000
vt 0.3961 0.4996 0.0000
vt 0.4232 0.9268 0.0000
vt 0.4070 0.9275 0.0000
vt 0.4255 0.9805 0.0000
vt 0.4094 0.9812 0.0000
vt 0.3938 0.4469 0.0000
vt 0.3861 0.4472 0.0000
vt 0.3835 0.3882 0.0000
vt 0.3912 0.3878 0.0000
vt 0.3887 0.3318 0.0000
vt 0.3810 0.3321 0.0000
vt 0.3725 0.1392 0.0000
vt 0.3887 0.1385 0.0000
vt 0.3696 0.0724 0.0000
vt 0.3858 0.0717 0.0000
vt 0.3673 0.0187 0.0000
vt 0.3834 0.0180 0.0000
# 119 texture coords

g shovel
usemtl wire_088199225
s 8
f 1/1/1 2/2/2 3/3/3 4/4/4 
f 2/2/2 5/5/5 6/6/6 3/3/3 
f 7/7/7 6/6/6 5/5/5 8/8/8 
f 9/9/9 10/10/10 7/7/7 8/8/8 
f 11/11/11 12/12/12 10/10/10 9/9/9 
f 13/13/13 14/14/14 15/15/15 16/16/16 
f 16/16/16 15/15/15 17/17/17 18/18/18 
f 18/18/18 17/17/17 19/19/19 20/20/20 
f 20/20/20 19/19/19 21/21/21 22/22/22 
f 22/22/22 21/21/21 23/23/23 24/24/24 
f 14/14/14 4/4/4 3/3/3 15/15/15 
f 15/15/15 3/3/3 6/6/6 17/17/17 
f 17/17/17 6/6/6 7/7/7 19/19/19 
f 19/19/19 7/7/7 10/10/10 21/21/21 
f 21/21/21 10/10/10 12/12/12 23/23/23 
s 4
f 25/25/25 26/26/25 27/27/26 28/28/27 
f 26/26/25 29/29/25 30/30/28 27/27/26 
f 31/31/29 28/28/27 27/27/26 32/32/30 
f 32/32/30 27/27/26 30/30/28 33/33/31 
f 34/34/25 35/35/32 36/36/33 37/37/25 
f 37/37/25 36/36/33 30/30/28 29/29/25 
f 36/36/33 35/35/32 38/38/34 39/39/35 
f 30/30/28 36/36/33 39/39/35 33/33/31 
s 8
f 40/40/36 41/41/37 42/42/38 43/43/39 
f 44/44/40 45/45/41 41/41/37 40/40/36 
f 46/46/42 47/47/43 45/45/41 44/44/40 
f 48/48/44 49/49/45 47/47/43 46/46/42 
f 50/50/46 51/51/47 49/49/45 48/48/44 
s 1
f 52/52/48 53/53/48 54/54/48 55/55/48 
f 54/54/48 56/56/48 55/55/48 
f 57/57/48 52/52/48 55/55/48 
s 8
f 53/58/49 52/59/50 58/60/51 59/61/52 
f 54/62/53 53/58/49 59/61/52 60/63/54 
f 56/64/55 54/62/53 60/63/54 61/65/56 
f 55/66/57 56/64/55 61/65/56 62/67/58 
f 57/68/59 55/66/57 62/67/58 63/69/60 
f 59/61/52 58/60/51 64/70/61 65/71/62 
f 60/63/54 59/61/52 65/71/62 66/72/63 
f 61/65/56 60/63/54 66/72/63 67/73/64 
f 62/67/58 61/65/56 67/73/64 68/74/65 
f 63/69/60 62/67/58 68/74/65 69/75/66 
f 64/70/61 70/76/67 71/77/68 65/71/62 
f 66/72/63 65/71/62 71/77/68 72/78/69 
f 67/73/64 66/72/63 72/78/69 73/79/70 
f 68/74/65 67/73/64 73/79/70 74/80/71 
f 68/74/65 74/80/71 75/81/72 69/75/66 
f 76/82/73 71/77/68 70/76/67 77/83/74 
f 78/84/75 72/78/69 71/77/68 76/82/73 
f 79/85/76 73/79/70 72/78/69 78/84/75 
f 80/86/77 74/80/71 73/79/70 79/85/76 
f 81/87/78 75/81/72 74/80/71 80/86/77 
f 41/41/37 76/82/73 77/83/74 42/42/38 
f 45/45/41 78/84/75 76/82/73 41/41/37 
f 47/47/43 79/85/76 78/84/75 45/45/41 
f 49/49/45 80/86/77 79/85/76 47/47/43 
f 51/51/47 81/87/78 80/86/77 49/49/45 
s 1
f 48/88/79 46/89/79 44/90/79 43/91/79 
f 44/90/79 40/92/79 43/91/79 
f 50/93/79 48/88/79 43/91/79 
s 8
f 25/94/80 82/95/80 83/96/81 26/97/81 
s 64
f 31/98/82 84/99/82 85/100/83 28/101/84 
f 28/101/84 85/100/83 82/95/85 25/94/85 
s 8
f 26/97/81 83/96/81 86/102/86 29/103/86 
s 32
f 32/104/87 87/105/87 84/99/87 31/98/87 
f 33/106/88 88/107/88 87/105/87 32/104/87 
s 8
f 37/108/89 89/109/89 90/110/90 34/111/90 
s 64
f 35/112/91 91/113/92 92/114/93 38/115/93 
f 34/111/94 90/110/94 91/113/92 35/112/91 
s 8
f 29/103/86 86/102/86 89/109/89 37/108/89 
s 32
f 38/115/95 92/114/95 93/116/95 39/117/95 
f 39/117/95 93/116/95 88/118/88 33/119/88 
s 8
f 1/1/1 4/4/4 94/3/96 95/2/97 
f 95/2/97 94/3/96 96/6/98 97/5/99 
f 98/7/100 99/8/101 97/5/99 96/6/98 
f 98/7/100 100/10/102 101/9/103 99/8/101 
f 100/10/102 12/12/12 11/11/11 101/9/103 
f 13/13/13 102/16/104 103/15/105 14/14/14 
f 102/16/104 104/18/106 105/17/107 103/15/105 
f 104/18/106 106/20/108 107/19/109 105/17/107 
f 106/20/108 108/22/110 109/21/111 107/19/109 
f 108/22/110 24/24/24 23/23/23 109/21/111 
f 14/14/14 103/15/105 94/3/96 4/4/4 
f 103/15/105 105/17/107 96/6/98 94/3/96 
f 105/17/107 107/19/109 98/7/100 96/6/98 
f 107/19/109 109/21/111 100/10/102 98/7/100 
f 109/21/111 23/23/23 12/12/12 100/10/102 
s 4
f 110/25/112 111/28/113 112/27/114 113/26/112 
f 113/26/112 112/27/114 114/30/115 115/29/112 
f 112/27/114 111/28/113 116/31/116 117/32/117 
f 114/30/115 112/27/114 117/32/117 118/33/118 
f 119/34/112 120/37/112 121/36/119 122/35/120 
f 120/37/112 115/29/112 114/30/115 121/36/119 
f 123/38/121 122/35/120 121/36/119 124/39/122 
f 124/39/122 121/36/119 114/30/115 118/33/118 
s 8
f 42/42/38 125/41/123 126/40/124 43/43/39 
f 125/41/123 127/45/125 128/44/126 126/40/124 
f 127/45/125 129/47/127 130/46/128 128/44/126 
f 129/47/127 131/49/129 132/48/130 130/46/128 
f 131/49/129 51/51/47 50/50/46 132/48/130 
s 1
f 133/55/48 134/56/48 135/54/48 52/52/48 
f 135/54/48 136/53/48 52/52/48 
f 57/57/48 133/55/48 52/52/48 
s 8
f 58/60/51 52/59/50 136/58/131 137/61/132 
f 137/61/132 136/58/131 135/62/133 138/63/134 
f 138/63/134 135/62/133 134/64/135 139/65/136 
f 139/65/136 134/64/135 133/66/137 140/67/138 
f 140/67/138 133/66/137 57/68/59 63/69/60 
f 64/70/61 58/60/51 137/61/132 141/71/139 
f 141/71/139 137/61/132 138/63/134 142/72/140 
f 142/72/140 138/63/134 139/65/136 143/73/141 
f 143/73/141 139/65/136 140/67/138 144/74/142 
f 144/74/142 140/67/138 63/69/60 69/75/66 
f 64/70/61 141/71/139 145/77/143 70/76/67 
f 145/77/143 141/71/139 142/72/140 146/78/144 
f 146/78/144 142/72/140 143/73/141 147/79/145 
f 147/79/145 143/73/141 144/74/142 148/80/146 
f 144/74/142 69/75/66 75/81/72 148/80/146 
f 149/82/147 77/83/74 70/76/67 145/77/143 
f 150/84/148 149/82/147 145/77/143 146/78/144 
f 151/85/149 150/84/148 146/78/144 147/79/145 
f 152/86/150 151/85/149 147/79/145 148/80/146 
f 81/87/78 152/86/150 148/80/146 75/81/72 
f 125/41/123 42/42/38 77/83/74 149/82/147 
f 127/45/125 125/41/123 149/82/147 150/84/148 
f 129/47/127 127/45/125 150/84/148 151/85/149 
f 131/49/129 129/47/127 151/85/149 152/86/150 
f 51/51/47 131/49/129 152/86/150 81/87/78 
s 1
f 43/91/79 126/92/79 128/90/79 132/88/79 
f 128/90/79 130/89/79 132/88/79 
f 50/93/79 43/91/79 132/88/79 
s 8
f 110/94/80 113/97/81 83/96/81 82/95/80 
s 64
f 116/98/82 111/101/84 85/100/83 84/99/82 
f 111/101/84 110/94/85 82/95/85 85/100/83 
s 8
f 113/97/81 115/103/86 86/102/86 83/96/81 
s 32
f 117/104/87 116/98/87 84/99/87 87/105/87 
f 118/106/88 117/104/87 87/105/87 88/107/88 
s 8
f 120/108/89 119/111/90 90/110/90 89/109/89 
s 64
f 122/112/91 123/115/93 92/114/93 91/113/92 
f 119/111/94 122/112/91 91/113/92 90/110/94 
s 8
f 115/103/86 120/108/89 89/109/89 86/102/86 
s 32
f 123/115/95 124/117/95 93/116/95 92/114/95 
f 124/117/95 118/119/88 88/118/88 93/116/95 
# 134 polygons - 8 triangles

